<svg width="17" height="15" viewBox="0 0 17 15" fill="none" xmlns="http://www.w3.org/2000/svg">
<path d="M16.1499 6.94239C16.149 6.87408 16.1296 6.8073 16.0937 6.74918C16.0578 6.69106 16.0068 6.64379 15.9461 6.61243C15.8874 6.57793 15.8197 6.56154 15.7517 6.56532L13.836 6.61921L14.7738 5.20399C14.8294 5.11908 14.8494 5.01576 14.8295 4.91626C14.8096 4.81677 14.7515 4.72905 14.6676 4.67202C14.5834 4.62596 14.4851 4.61285 14.3918 4.63519C14.2984 4.65753 14.2168 4.71369 14.1625 4.79288L12.9185 6.66794L11.5189 6.68788L12.9715 4.55505C13.0006 4.50127 12.9337 4.45359 12.9352 4.40806C12.9366 4.36254 13.0373 4.34748 13.0077 4.27364C12.9998 4.22645 12.9822 4.18141 12.956 4.14137C12.9299 4.10134 12.8956 4.06717 12.8556 4.04102C12.7827 3.99997 12.6987 3.98296 12.6156 3.99246L10.0623 4.32713L10.7108 3.12613L12.9171 2.81249C12.9987 2.80252 13.0749 2.76687 13.1348 2.71069C13.1948 2.65452 13.2353 2.58073 13.2505 2.50001C13.2658 2.4193 13.2549 2.33583 13.2196 2.2617C13.1842 2.18756 13.1262 2.12661 13.0539 2.08763C12.9838 2.0481 12.9026 2.03272 12.8229 2.04392L11.1202 2.28219L12.0301 0.597229C12.0542 0.552503 12.0693 0.503445 12.0745 0.452884C12.0797 0.402323 12.0749 0.351241 12.0604 0.302543C12.0458 0.253845 12.0218 0.208498 11.9898 0.169077C11.9577 0.129656 11.9182 0.0969444 11.8734 0.0728012C11.8287 0.048658 11.7797 0.0335556 11.7291 0.028366C11.6786 0.0231764 11.6275 0.0279588 11.5788 0.0425131C11.5301 0.0570673 11.4847 0.0811061 11.4453 0.113188C11.4059 0.14527 11.3732 0.184788 11.349 0.229514L10.4391 1.91451L9.70437 0.360266C9.67 0.287474 9.61263 0.228014 9.54111 0.191079C9.46886 0.152019 9.38606 0.136957 9.30468 0.148076C9.2233 0.159196 9.14756 0.195914 9.08843 0.252925C9.02929 0.309937 8.98982 0.384276 8.97573 0.465199C8.96163 0.546121 8.97363 0.629439 9.01001 0.703071L10.0084 2.7122L9.35987 3.9132L8.23909 1.5949C8.20144 1.5202 8.14117 1.45929 8.06687 1.42087C8.02302 1.40173 7.97567 1.3919 7.92783 1.39196C7.87998 1.39203 7.83264 1.40205 7.78885 1.42132C7.78885 1.42132 7.7453 1.50196 7.71626 1.55574C7.68723 1.60952 7.60244 1.55219 7.5734 1.60597L6.53643 3.99788L5.81224 2.83129L6.69775 0.76275C6.73421 0.673973 6.73639 0.57483 6.70387 0.484548C6.67135 0.394266 6.60645 0.319292 6.52176 0.274177C6.42805 0.235312 6.3228 0.234822 6.2287 0.272785C6.13461 0.310748 6.05919 0.384115 6.01866 0.47714L5.34967 2.03753L4.34392 0.406424C4.30975 0.34746 4.25893 0.299904 4.19784 0.269695C4.13833 0.236161 4.07084 0.219418 4.00255 0.221292C3.93427 0.223165 3.86776 0.243575 3.81017 0.280321C3.72455 0.336019 3.66367 0.422545 3.64017 0.521948C3.61667 0.621352 3.63235 0.725983 3.68397 0.814107L4.69868 2.45005L2.99779 2.34204C2.94713 2.33696 2.89597 2.34248 2.84756 2.35826C2.79915 2.37404 2.75453 2.39977 2.71659 2.43373C2.67865 2.4677 2.64819 2.50921 2.62716 2.55559C2.60614 2.60197 2.59502 2.65219 2.59449 2.70311C2.58753 2.80489 2.62103 2.90532 2.68771 2.98251C2.7544 3.0597 2.84888 3.10743 2.95059 3.11531L5.18813 3.25833L5.90336 4.42008L3.34932 4.19876C3.34932 4.19876 3.32031 4.2525 3.31063 4.27042C3.30095 4.28835 3.20308 4.21239 3.12295 4.29646C3.04283 4.38054 3.12419 4.40134 3.10411 4.45995C3.08403 4.51856 2.97508 4.50601 2.97293 4.5743C2.97077 4.64259 3.05356 4.61787 3.07416 4.68687C3.09477 4.75588 3.02094 4.78545 3.05123 4.83653L4.6373 6.85041L3.27355 6.88966L1.93136 5.08855C1.88858 5.05438 1.84004 5.02813 1.78801 5.0111C1.72411 4.97468 1.65073 4.95832 1.57741 4.96415C1.50408 4.96998 1.4342 4.99773 1.37685 5.04379C1.33457 5.07217 1.29866 5.10904 1.27141 5.15205C1.24416 5.19507 1.22615 5.24331 1.21856 5.29366C1.21097 5.34401 1.21394 5.3954 1.2273 5.44453C1.24066 5.49366 1.26412 5.53945 1.29615 5.57902L2.31466 6.95074L0.390069 6.9998C0.288065 7.00498 0.191946 7.04929 0.121717 7.12347C0.051489 7.19764 0.0125217 7.29602 0.0129165 7.39816C0.0180785 7.50017 0.0623307 7.59626 0.136489 7.66648C0.210648 7.73669 0.309029 7.77561 0.411164 7.7752L2.33163 7.71236L1.39383 9.12757C1.34004 9.2141 1.3206 9.31766 1.33937 9.41779C1.35815 9.51792 1.41377 9.60736 1.49524 9.6685C1.58324 9.72278 1.68857 9.74159 1.78991 9.72107C1.89125 9.70055 1.981 9.64228 2.04098 9.55804L3.28012 7.69196L4.64873 7.64372L3.1913 9.78547C3.1671 9.83028 3.23395 9.87797 3.22767 9.93246C3.22139 9.98695 3.12549 9.99307 3.15506 10.0669C3.18463 10.1408 3.24467 10.1153 3.29844 10.1443C3.35221 10.1733 3.24036 10.2519 3.32997 10.3003C3.41959 10.3486 3.42658 10.2714 3.48107 10.2777C3.53555 10.2839 3.54164 10.3798 3.61549 10.3502L6.16883 10.0156L5.52031 11.2166L3.29264 11.4839C3.24217 11.4901 3.19341 11.5062 3.14915 11.5312C3.10489 11.5563 3.06599 11.5898 3.03468 11.6298C3.00337 11.6699 2.98023 11.7158 2.96665 11.7648C2.95306 11.8138 2.94926 11.865 2.95546 11.9155C2.96029 11.9665 2.97546 12.016 3.00007 12.0609C3.02467 12.1059 3.05823 12.1453 3.0986 12.1768C3.13898 12.2084 3.18538 12.2314 3.23495 12.2444C3.28451 12.2574 3.33619 12.2602 3.38687 12.2525L5.08957 12.0142L4.17488 13.7082C4.12611 13.7985 4.1152 13.9045 4.14457 14.0028C4.17394 14.1012 4.24116 14.1839 4.33148 14.2326C4.42179 14.2814 4.52778 14.2923 4.62613 14.2629C4.72448 14.2335 4.80715 14.1662 4.85593 14.0759L5.77064 12.3819L6.50541 13.9362C6.5268 13.9827 6.55745 14.0245 6.59552 14.0588C6.63359 14.0931 6.67826 14.1192 6.7268 14.1357C6.77533 14.1521 6.82671 14.1585 6.87779 14.1544C6.92888 14.1504 6.97862 14.1359 7.02392 14.1119C7.06953 14.0894 7.11023 14.0582 7.14376 14.0199C7.17728 13.9817 7.20294 13.9372 7.21927 13.8891C7.2356 13.8409 7.24228 13.79 7.23893 13.7393C7.23558 13.6885 7.22225 13.639 7.19974 13.5934L6.20139 11.5842L6.84991 10.3832L7.81742 12.7925C7.81742 12.7925 7.90707 12.8408 7.95187 12.865C7.99668 12.8892 7.95725 12.9836 8.01586 13.0037C8.07446 13.0238 8.06423 12.9141 8.16353 12.9446C8.26282 12.975 8.28003 13.0074 8.30691 13.022C8.33379 13.0365 8.35532 12.9323 8.37952 12.8875C8.40372 12.8427 8.49816 12.8821 8.52236 12.8373L9.51382 10.444L10.2242 11.6146L9.34353 13.6742C9.3235 13.7212 9.31291 13.7716 9.31237 13.8227C9.31183 13.8737 9.32135 13.9243 9.34038 13.9717C9.35941 14.0191 9.38759 14.0622 9.42329 14.0986C9.459 14.1351 9.50154 14.1642 9.54848 14.1842C9.59543 14.2042 9.64583 14.2149 9.69687 14.2154C9.7479 14.2159 9.79857 14.2064 9.84593 14.1873C9.89329 14.1683 9.93642 14.1401 9.97289 14.1044C10.0094 14.0687 10.0384 14.0262 10.0585 13.9792L10.7275 12.4188L11.7284 14.0589C11.7824 14.1464 11.869 14.2088 11.9691 14.2325C12.0692 14.2561 12.1746 14.239 12.2621 14.185C12.3496 14.1309 12.4121 14.0443 12.4358 13.9442C12.4594 13.8441 12.4424 13.7387 12.3883 13.6512L11.3736 12.0152L13.0794 12.1143C13.1657 12.1171 13.2505 12.091 13.3203 12.04C13.3901 11.989 13.4408 11.9162 13.4644 11.8331C13.488 11.7499 13.4831 11.6613 13.4505 11.5813C13.4178 11.5013 13.3594 11.4345 13.2845 11.3915C13.2417 11.3574 13.1931 11.3312 13.1411 11.3141L10.8987 11.1801L10.1835 10.0183L12.7375 10.2397C12.7823 10.2639 12.7859 10.15 12.8501 10.1384C12.9142 10.1267 12.9486 10.1916 12.9997 10.1613C13.0508 10.131 13.0481 10.0717 13.0234 9.98885C12.9987 9.90604 13.1476 9.95175 13.1497 9.88345C13.1519 9.81516 13.094 9.77236 13.0685 9.71232C13.0431 9.65228 13.1024 9.64957 13.1073 9.64061L11.5212 7.62673L12.885 7.58744L14.232 9.37961C14.2944 9.46031 14.3861 9.51315 14.4872 9.52656C14.5883 9.53997 14.6907 9.51291 14.772 9.45126C14.8143 9.42288 14.8502 9.38601 14.8774 9.343C14.9047 9.29998 14.9227 9.25174 14.9303 9.20139C14.9379 9.15104 14.9349 9.09966 14.9215 9.05052C14.9082 9.00139 14.8847 8.95556 14.8527 8.91599L13.8293 7.55326L15.7539 7.50421C15.8232 7.51035 15.893 7.49812 15.9561 7.46883C16.0193 7.43954 16.0736 7.39421 16.1137 7.33731C16.1538 7.28042 16.1782 7.214 16.1846 7.14469C16.1909 7.07538 16.179 7.00561 16.1499 6.94239ZM4.12572 5.01147L6.36323 5.15452L7.34284 6.74833L5.46984 6.89472L4.12572 5.01147ZM6.5003 9.18739L4.24018 9.472L5.52825 7.64391L7.39831 7.58865L6.5003 9.18739ZM8.02964 6.3552L7.05276 4.82067L7.92591 2.71071L8.92288 4.76534L8.02964 6.3552ZM9.59638 5.08272L11.8614 4.78912L10.576 6.67653L8.71072 6.72288L9.59638 5.08272ZM7.17651 9.56406L8.0525 7.94182L9.03211 9.53563L8.16379 11.6366L7.17651 9.56406ZM11.971 9.25861L9.73347 9.11555L8.74077 7.50311L10.6109 7.44778L11.971 9.25861Z" fill="url(#paint0_linear_1416_3743)"/>
<defs>
<linearGradient id="paint0_linear_1416_3743" x1="9.20004" y1="-4.06497" x2="18.2313" y2="0.31162" gradientUnits="userSpaceOnUse">
<stop stop-color="#FCE7A7"/>
<stop offset="0.550108" stop-color="#F6B748"/>
<stop offset="1" stop-color="#F7B645"/>
</linearGradient>
</defs>
</svg>
