<svg width="15" height="13" viewBox="0 0 15 13" fill="none" xmlns="http://www.w3.org/2000/svg">
<path d="M14.0361 5.93097C14.0353 5.87322 14.0189 5.81677 13.9886 5.76764C13.9582 5.71851 13.9151 5.67854 13.8638 5.65204C13.8142 5.62287 13.757 5.60902 13.6994 5.61221L12.0801 5.65777L12.8729 4.46144C12.9198 4.38966 12.9367 4.30232 12.9199 4.21821C12.9031 4.1341 12.854 4.05995 12.783 4.01174C12.7119 3.97281 12.6288 3.96173 12.5499 3.98061C12.471 3.99949 12.4019 4.04697 12.3561 4.11391L11.3045 5.69896L10.1213 5.71582L11.3493 3.91287C11.3739 3.86741 11.3173 3.8271 11.3186 3.78861C11.3198 3.75013 11.4049 3.7374 11.3799 3.67498C11.3732 3.63509 11.3584 3.59702 11.3362 3.56317C11.3141 3.52933 11.2852 3.50045 11.2513 3.47834C11.1897 3.44364 11.1187 3.42926 11.0484 3.43729L8.89001 3.7202L9.43822 2.70495L11.3033 2.43982C11.3722 2.43139 11.4367 2.40125 11.4874 2.35377C11.538 2.30628 11.5723 2.2439 11.5852 2.17567C11.598 2.10744 11.5889 2.03689 11.559 1.97422C11.5291 1.91155 11.4801 1.86002 11.419 1.82708C11.3597 1.79365 11.2911 1.78066 11.2237 1.79012L9.78433 1.99154L10.5535 0.567187C10.5739 0.529379 10.5866 0.487908 10.591 0.445167C10.5954 0.402426 10.5914 0.359245 10.5791 0.318079C10.5668 0.276913 10.5465 0.23858 10.5194 0.205256C10.4923 0.171931 10.4589 0.144279 10.4211 0.12387C10.3833 0.103461 10.3418 0.0906947 10.2991 0.0863077C10.2563 0.0819209 10.2132 0.0859634 10.172 0.0982668C10.1308 0.11057 10.0925 0.130891 10.0591 0.158011C10.0258 0.185131 9.99816 0.218537 9.97774 0.256345L9.20859 1.68073L8.58747 0.366874C8.55841 0.305341 8.50992 0.255077 8.44945 0.223855C8.38838 0.190836 8.31839 0.178103 8.2496 0.187503C8.1808 0.196903 8.11678 0.227941 8.06679 0.276135C8.0168 0.324329 7.98343 0.387171 7.97152 0.455577C7.9596 0.523983 7.96975 0.594415 8.0005 0.656659L8.84446 2.35504L8.29625 3.37029L7.34882 1.41055C7.31699 1.34741 7.26604 1.29592 7.20323 1.26344C7.16617 1.24726 7.12614 1.23895 7.0857 1.239C7.04525 1.23906 7.00523 1.24753 6.96821 1.26382C6.96821 1.26382 6.9314 1.33199 6.90685 1.37745C6.88231 1.42291 6.81063 1.37445 6.78609 1.41991L5.9095 3.44187L5.29731 2.45572L6.04587 0.707107C6.07669 0.632061 6.07853 0.548252 6.05104 0.471934C6.02355 0.395616 5.96869 0.332238 5.8971 0.2941C5.81788 0.261246 5.72891 0.260832 5.64937 0.292923C5.56983 0.325015 5.50608 0.387035 5.47181 0.465672L4.90629 1.78472L4.0561 0.405893C4.02721 0.356049 3.98425 0.315848 3.93261 0.290312C3.88231 0.261964 3.82526 0.247811 3.76753 0.249395C3.70981 0.250978 3.65359 0.268232 3.6049 0.299294C3.53252 0.346377 3.48106 0.419521 3.46119 0.50355C3.44133 0.587579 3.45458 0.676027 3.49822 0.750521L4.35599 2.13344L2.91817 2.04213C2.87535 2.03784 2.8321 2.0425 2.79118 2.05584C2.75025 2.06919 2.71253 2.09093 2.68046 2.11965C2.64839 2.14836 2.62264 2.18345 2.60487 2.22266C2.58709 2.26186 2.5777 2.30432 2.57724 2.34736C2.57136 2.4334 2.59968 2.51829 2.65605 2.58354C2.71243 2.6488 2.79229 2.68914 2.87827 2.69581L4.76974 2.81671L5.37435 3.79877L3.21533 3.61168C3.21533 3.61168 3.1908 3.65711 3.18262 3.67226C3.17444 3.68741 3.09171 3.6232 3.02398 3.69427C2.95625 3.76535 3.02502 3.78293 3.00805 3.83247C2.99107 3.88202 2.89898 3.87141 2.89715 3.92914C2.89533 3.98687 2.96531 3.96597 2.98273 4.0243C3.00015 4.08263 2.93774 4.10763 2.96334 4.15081L4.30411 5.85321L3.15128 5.88639L2.01668 4.36385C1.98051 4.33497 1.93949 4.31278 1.8955 4.29838C1.84149 4.26759 1.77946 4.25376 1.71747 4.25869C1.65549 4.26362 1.59642 4.28708 1.54793 4.32601C1.51219 4.35 1.48184 4.38117 1.4588 4.41753C1.43576 4.4539 1.42054 4.49468 1.41413 4.53724C1.40771 4.5798 1.41023 4.62324 1.42152 4.66477C1.43281 4.7063 1.45264 4.74501 1.47972 4.77846L2.3407 5.93803L0.713776 5.97949C0.627549 5.98387 0.546296 6.02133 0.486929 6.08403C0.427562 6.14674 0.394623 6.2299 0.394956 6.31625C0.399319 6.40248 0.436728 6.4837 0.499416 6.54306C0.562105 6.60242 0.64527 6.63532 0.731608 6.63496L2.35505 6.58184L1.56229 7.77817C1.51681 7.85132 1.50039 7.93886 1.51625 8.0235C1.53212 8.10814 1.57914 8.18375 1.64802 8.23544C1.7224 8.28132 1.81144 8.29722 1.89711 8.27988C1.98278 8.26253 2.05865 8.21327 2.10935 8.14206L3.15683 6.5646L4.31377 6.52382L3.08175 8.33431C3.0613 8.3722 3.1178 8.4125 3.11249 8.45857C3.10719 8.50463 3.02612 8.50981 3.05111 8.57223C3.07611 8.63465 3.12687 8.61312 3.17232 8.63766C3.21777 8.6622 3.12322 8.72859 3.19897 8.76948C3.27473 8.81038 3.28064 8.74508 3.3267 8.75037C3.37276 8.75567 3.37791 8.83673 3.44033 8.81172L5.59876 8.52881L5.05054 9.54405L3.16742 9.77009C3.12475 9.77532 3.08354 9.78889 3.04612 9.81006C3.0087 9.83122 2.97582 9.85954 2.94935 9.89341C2.92288 9.92729 2.90333 9.96607 2.89184 10.0075C2.88036 10.0489 2.87714 10.0922 2.88239 10.1349C2.88647 10.178 2.89929 10.2198 2.92009 10.2578C2.94089 10.2958 2.96926 10.3291 3.00339 10.3558C3.03752 10.3825 3.07674 10.4019 3.11864 10.4129C3.16055 10.4239 3.20423 10.4263 3.24707 10.4198L4.68642 10.2184L3.91321 11.6503C3.87197 11.7267 3.86275 11.8163 3.88758 11.8994C3.91241 11.9825 3.96923 12.0524 4.04558 12.0936C4.12192 12.1349 4.21152 12.1441 4.29466 12.1192C4.3778 12.0944 4.44768 12.0375 4.48891 11.9611L5.26215 10.5292L5.88328 11.843C5.90136 11.8824 5.92727 11.9177 5.95945 11.9467C5.99163 11.9757 6.0294 11.9978 6.07042 12.0117C6.11145 12.0256 6.15488 12.031 6.19807 12.0275C6.24125 12.0241 6.28329 12.0119 6.3216 11.9916C6.36015 11.9726 6.39456 11.9462 6.42289 11.9139C6.45123 11.8815 6.47292 11.8439 6.48673 11.8032C6.50053 11.7625 6.50618 11.7195 6.50335 11.6766C6.50052 11.6337 6.48925 11.5918 6.47022 11.5533L5.62628 9.85486L6.17449 8.83962L6.99236 10.8762C6.99236 10.8762 7.06815 10.9171 7.10602 10.9375C7.1439 10.958 7.11057 11.0378 7.16011 11.0548C7.20965 11.0718 7.201 10.979 7.28494 11.0048C7.36887 11.0305 7.38342 11.058 7.40614 11.0702C7.42887 11.0825 7.44707 10.9944 7.46753 10.9566C7.48798 10.9187 7.56781 10.952 7.58827 10.9141L8.42638 8.89095L9.02693 9.88055L8.28244 11.6216C8.26551 11.6613 8.25655 11.7039 8.2561 11.7471C8.25564 11.7902 8.26369 11.833 8.27977 11.8731C8.29586 11.9131 8.31968 11.9496 8.34986 11.9804C8.38004 12.0112 8.416 12.0358 8.45569 12.0527C8.49537 12.0696 8.53798 12.0786 8.58112 12.0791C8.62427 12.0795 8.66709 12.0714 8.70713 12.0553C8.74716 12.0392 8.78362 12.0154 8.81445 11.9853C8.84528 11.9551 8.86987 11.9191 8.8868 11.8794L9.45232 10.5604L10.2984 11.9468C10.3441 12.0207 10.4173 12.0735 10.5019 12.0935C10.5865 12.1135 10.6756 12.0991 10.7496 12.0534C10.8236 12.0077 10.8764 11.9345 10.8964 11.8498C10.9164 11.7652 10.902 11.6761 10.8563 11.6021L9.99853 10.2192L11.4405 10.3029C11.5135 10.3053 11.5851 10.2832 11.6441 10.2402C11.7031 10.1971 11.746 10.1355 11.7659 10.0652C11.7859 9.99493 11.7817 9.92002 11.7542 9.85239C11.7266 9.78476 11.6772 9.72827 11.6138 9.69198C11.5777 9.6631 11.5366 9.64094 11.4926 9.62654L9.59707 9.51322L8.99246 8.53115L11.1514 8.71828C11.1893 8.73873 11.1924 8.64249 11.2466 8.63263C11.3009 8.62277 11.3299 8.67762 11.3731 8.65201C11.4163 8.62639 11.414 8.57623 11.3931 8.50624C11.3722 8.43624 11.4981 8.47487 11.5 8.41714C11.5018 8.35942 11.4528 8.32323 11.4313 8.27248C11.4098 8.22172 11.46 8.21944 11.464 8.21186L10.1233 6.50946L11.2761 6.47625L12.4148 7.99122C12.4676 8.05945 12.5451 8.10411 12.6306 8.11545C12.7161 8.12678 12.8026 8.10391 12.8713 8.0518C12.907 8.02781 12.9374 7.99664 12.9604 7.96028C12.9834 7.92391 12.9987 7.88313 13.0051 7.84057C13.0115 7.79801 13.009 7.75457 12.9977 7.71304C12.9864 7.67151 12.9666 7.63276 12.9395 7.59931L12.0744 6.44735L13.7014 6.40589C13.76 6.41108 13.8189 6.40074 13.8723 6.37598C13.9257 6.35122 13.9716 6.3129 14.0055 6.26481C14.0394 6.21671 14.06 6.16057 14.0654 6.10198C14.0708 6.04339 14.0607 5.98441 14.0361 5.93097ZM3.87165 4.29869L5.76309 4.41962L6.59119 5.76692L5.00788 5.89067L3.87165 4.29869ZM5.87896 7.82874L3.9684 8.06933L5.05725 6.52398L6.63808 6.47727L5.87896 7.82874ZM7.17176 5.43459L6.34597 4.1374L7.08408 2.35378L7.92685 4.09063L7.17176 5.43459ZM8.49618 4.35893L10.4108 4.11073L9.32426 5.70623L7.7475 5.7454L8.49618 4.35893ZM6.45058 8.14715L7.19109 6.77581L8.01918 8.12311L7.28516 9.89916L6.45058 8.14715ZM10.5035 7.88894L8.61206 7.76801L7.77291 6.40496L9.35378 6.35819L10.5035 7.88894Z" fill="url(#paint0_linear_1416_3745)"/>
<defs>
<linearGradient id="paint0_linear_1416_3745" x1="8.16114" y1="-3.37392" x2="15.7956" y2="0.325752" gradientUnits="userSpaceOnUse">
<stop stop-color="#FCE7A7"/>
<stop offset="0.550108" stop-color="#F6B748"/>
<stop offset="1" stop-color="#F7B645"/>
</linearGradient>
</defs>
</svg>
