<svg width="18" height="20" viewBox="0 0 18 20" fill="none" xmlns="http://www.w3.org/2000/svg">
<path d="M16.8633 4.6364C16.8168 4.56896 16.7529 4.51543 16.6783 4.48153C16.6038 4.44763 16.5214 4.43463 16.44 4.44394C16.3584 4.44884 16.2801 4.47771 16.2149 4.52692L14.3433 5.86021L14.3318 3.82452C14.3304 3.70285 14.2813 3.58661 14.1951 3.50081C14.1088 3.41501 13.9923 3.3665 13.8707 3.36576C13.7561 3.37613 13.6494 3.42875 13.5714 3.51333C13.4934 3.59792 13.4496 3.70841 13.4485 3.82348L13.4623 6.52162L12.0819 7.4764L12.1037 4.38223C12.0966 4.30928 11.9982 4.30645 11.9693 4.26016C11.9403 4.21386 12.0305 4.1316 11.9517 4.07782C11.9123 4.03611 11.8647 4.00302 11.8119 3.98064C11.7591 3.95827 11.7022 3.9471 11.6448 3.94782C11.5448 3.95563 11.4499 3.99479 11.3734 4.05977L9.05442 6.09862L8.89795 4.46949L10.8855 2.68335C10.96 2.61896 11.0121 2.53253 11.0343 2.43656C11.0564 2.34059 11.0475 2.24004 11.0087 2.14949C10.97 2.05894 10.9034 1.98307 10.8187 1.93285C10.734 1.88264 10.6355 1.8607 10.5375 1.87018C10.4413 1.87765 10.3502 1.91656 10.2783 1.98096L8.74191 3.35561L8.52239 1.06999C8.51656 1.00932 8.49885 0.95037 8.47025 0.896549C8.44165 0.842728 8.40274 0.795078 8.35573 0.7563C8.30871 0.717522 8.25453 0.688397 8.19626 0.670566C8.13799 0.652735 8.07677 0.646567 8.01611 0.652397C7.95546 0.658228 7.89654 0.675942 7.84273 0.704546C7.78892 0.73315 7.74127 0.772018 7.7025 0.819041C7.66373 0.866064 7.6346 0.920317 7.61677 0.9786C7.59894 1.03688 7.59276 1.09809 7.59859 1.15876L7.8181 3.44443L6.04822 2.38756C5.96537 2.33803 5.86852 2.31715 5.77263 2.32814C5.6746 2.33751 5.58209 2.37782 5.50848 2.44325C5.43487 2.50868 5.38398 2.59584 5.36317 2.69211C5.34236 2.78839 5.35272 2.88878 5.39274 2.97877C5.43276 3.06877 5.50036 3.14372 5.58578 3.19274L7.92202 4.52649L8.07848 6.15563L5.41384 4.59577C5.32645 4.54654 5.22575 4.52614 5.1261 4.53752C5.06965 4.54775 5.01593 4.56958 4.96833 4.60161C4.92073 4.63364 4.88029 4.67524 4.84954 4.72368C4.84954 4.72368 4.86005 4.83307 4.86706 4.90602C4.87407 4.97897 4.75135 4.97852 4.75835 5.05147L5.32351 8.12597L3.82311 7.44806L3.32313 4.79673C3.30014 4.68397 3.23608 4.58379 3.14339 4.51561C3.0507 4.44743 2.936 4.41613 2.82153 4.42777C2.70225 4.45167 2.59712 4.52149 2.52878 4.62215C2.46043 4.72281 2.43435 4.84624 2.45613 4.96595L2.83228 6.96663L0.741212 6.01423C0.6678 5.97834 0.585425 5.96493 0.504417 5.97566C0.42276 5.98202 0.344368 6.01043 0.277621 6.05791C0.210874 6.10539 0.158286 6.17014 0.12548 6.2452C0.0774216 6.35786 0.0746023 6.48468 0.117599 6.59937C0.160596 6.71405 0.246102 6.80777 0.356369 6.86104L2.4596 7.81226L0.69373 8.84088C0.639889 8.86966 0.592629 8.90933 0.554965 8.95738C0.5173 9.00544 0.490051 9.06086 0.474961 9.12003C0.45987 9.17919 0.457266 9.24088 0.467312 9.3011C0.477358 9.36133 0.499837 9.41877 0.533314 9.46983C0.594376 9.57583 0.694814 9.65345 0.812784 9.68577C0.930754 9.71809 1.05671 9.70251 1.16326 9.64242L3.4869 8.29019L4.97515 8.96927L2.28404 10.4549C2.28404 10.4549 2.29104 10.5278 2.29338 10.5522C2.29571 10.5765 2.14752 10.5662 2.12389 10.7035C2.10027 10.8407 2.19517 10.8071 2.21434 10.8788C2.2335 10.9506 2.11662 11.0109 2.16009 11.0803C2.20356 11.1498 2.26948 11.0699 2.3361 11.1248C2.40271 11.1798 2.34894 11.2585 2.41322 11.2892L5.33786 12.2351L4.00608 13.1851L1.46643 12.2882C1.401 12.2827 1.33514 12.289 1.27195 12.3068C1.18399 12.3132 1.09999 12.3459 1.03087 12.4007C0.961747 12.4555 0.910699 12.5298 0.884353 12.614C0.861207 12.6705 0.850078 12.7312 0.851678 12.7922C0.853278 12.8533 0.867572 12.9133 0.893647 12.9686C0.919722 13.0238 0.957009 13.0729 1.00313 13.1129C1.04925 13.1529 1.1032 13.1829 1.16153 13.2009L3.09204 13.8865L1.20833 15.2209C1.11021 15.2942 1.0441 15.4025 1.02372 15.5233C1.00333 15.6441 1.03025 15.7681 1.09887 15.8695C1.17215 15.9677 1.2804 16.0338 1.40115 16.0542C1.5219 16.0746 1.64586 16.0476 1.74729 15.979L3.61768 14.6335L3.62918 16.6692C3.63341 16.7913 3.68323 16.9074 3.76881 16.9946C3.85439 17.0817 3.96952 17.1337 4.0915 17.1401C4.21538 17.1354 4.33283 17.0838 4.42004 16.9956C4.50725 16.9075 4.55769 16.7895 4.56115 16.6656L4.54854 13.9796L5.87916 13.0174L5.85854 16.1236C5.86437 16.1844 5.96279 16.1873 5.99293 16.2457C6.02308 16.3042 5.93168 16.3743 6.01045 16.4281C6.08921 16.4819 6.132 16.4164 6.20493 16.4094C6.27786 16.4024 6.21894 16.5553 6.34049 16.5436C6.46205 16.532 6.41741 16.4504 6.47585 16.4202C6.53429 16.39 6.60441 16.4815 6.65818 16.4027L8.9772 14.3638L9.13366 15.9929L7.09401 17.7473C7.04788 17.7871 7.01005 17.8357 6.9827 17.8902C6.95534 17.9447 6.93899 18.004 6.93458 18.0648C6.93017 18.1257 6.93778 18.1868 6.95698 18.2447C6.97618 18.3026 7.0066 18.3561 7.04649 18.4022C7.08537 18.4498 7.13355 18.4889 7.18808 18.5172C7.24261 18.5456 7.30235 18.5624 7.36363 18.5669C7.42492 18.5713 7.48646 18.5632 7.54451 18.543C7.60256 18.5229 7.65588 18.4911 7.70123 18.4497L9.23758 17.075L9.45827 19.3728C9.47004 19.4953 9.52999 19.6081 9.62493 19.6865C9.71988 19.7648 9.84203 19.8022 9.96454 19.7904C10.087 19.7786 10.1999 19.7187 10.2782 19.6237C10.3565 19.5288 10.3938 19.4065 10.3821 19.284L10.1614 16.9862L11.9313 18.0431C11.9837 18.0751 12.0421 18.0962 12.1029 18.1049C12.1637 18.1137 12.2257 18.1099 12.285 18.0939C12.3443 18.0778 12.3997 18.0499 12.4479 18.0117C12.496 17.9735 12.5359 17.9258 12.565 17.8717C12.5954 17.8188 12.6151 17.7605 12.6229 17.7001C12.6307 17.6396 12.6266 17.5782 12.6107 17.5193C12.5948 17.4604 12.5674 17.4053 12.5302 17.357C12.493 17.3087 12.4466 17.2683 12.3937 17.2379L10.0575 15.9041L9.90101 14.275L12.4738 16.0278C12.4738 16.0278 12.5953 16.016 12.6561 16.0102C12.7169 16.0043 12.7407 16.1247 12.8125 16.1056C12.8842 16.0864 12.8008 15.984 12.92 15.948C13.0392 15.912 13.078 15.9328 13.1145 15.9293C13.151 15.9258 13.1028 15.8077 13.097 15.7469C13.0911 15.6861 13.2115 15.6623 13.2057 15.6015L12.5942 12.556L14.0837 13.2472L14.5825 15.8864C14.5939 15.9465 14.617 16.0038 14.6506 16.055C14.6841 16.1062 14.7274 16.1503 14.778 16.1847C14.8286 16.2192 14.8855 16.2433 14.9454 16.2557C15.0053 16.2682 15.0671 16.2687 15.1272 16.2573C15.1873 16.2459 15.2446 16.2228 15.2958 16.1892C15.347 16.1557 15.391 16.1123 15.4255 16.0617C15.4599 16.0111 15.484 15.9543 15.4965 15.8944C15.509 15.8344 15.5095 15.7727 15.4981 15.7125L15.1219 13.7118L17.2142 14.6764C17.3264 14.7274 17.4544 14.7318 17.5699 14.6885C17.6853 14.6451 17.7789 14.5577 17.8299 14.4454C17.8809 14.3331 17.8853 14.2052 17.842 14.0897C17.7987 13.9742 17.7113 13.8806 17.599 13.8296L15.4958 12.8783L17.2605 11.8375C17.3484 11.7827 17.4154 11.7 17.4508 11.6026C17.4863 11.5053 17.4881 11.3988 17.4561 11.3003C17.424 11.2018 17.3599 11.1168 17.274 11.0589C17.1881 11.001 17.0853 10.9735 16.9819 10.9809C16.9165 10.9754 16.8506 10.9818 16.7875 10.9996L14.465 12.3639L12.9767 11.6848L15.6678 10.1992C15.7286 10.1934 15.6562 10.0776 15.7123 10.0231C15.7684 9.96866 15.846 10.0103 15.8766 9.94599C15.9072 9.8817 15.8649 9.8244 15.785 9.75846C15.7051 9.69253 15.8839 9.63856 15.8404 9.56911C15.7969 9.49967 15.7107 9.49573 15.6452 9.45294C15.5798 9.41015 15.6371 9.36783 15.6359 9.35567L12.7113 8.40977L14.0431 7.45966L16.5815 8.34446C16.6976 8.38316 16.8242 8.3745 16.9338 8.32031C17.0435 8.26611 17.1273 8.17081 17.1671 8.05511C17.1903 7.99861 17.2014 7.93791 17.1998 7.87687C17.1982 7.81583 17.1839 7.75577 17.1578 7.70056C17.1317 7.64535 17.0945 7.59617 17.0483 7.55617C17.0022 7.51617 16.9483 7.48618 16.8899 7.46818L14.9606 6.7948L16.8443 5.46035C16.9174 5.42015 16.9787 5.36138 17.022 5.29004C17.0654 5.2187 17.0892 5.13727 17.0911 5.05383C17.093 4.97039 17.073 4.88793 17.033 4.81467C16.993 4.74141 16.9345 4.67992 16.8633 4.6364ZM3.60004 10.7456L5.92368 9.39342L7.96379 10.3261L6.19648 11.7231L3.60004 10.7456ZM8.75407 13.3177L6.69359 15.1109L6.75509 12.4301L8.58036 11.1259L8.75407 13.3177ZM8.38509 9.4759L6.38729 8.60039L5.84733 5.91608L8.21256 7.29607L8.38509 9.4759ZM9.09522 7.16224L11.1545 5.35689L11.1353 8.09496L9.3089 9.38708L9.09522 7.16224ZM9.67904 13.2411L9.4677 11.0406L11.5078 11.9733L12.0466 14.6454L9.67904 13.2411ZM14.2492 9.7343L11.9256 11.0865L9.86002 10.1439L11.6853 8.83963L14.2492 9.7343Z" fill="url(#paint0_linear_1416_3740)"/>
<defs>
<linearGradient id="paint0_linear_1416_3740" x1="2.59002" y1="-1.68212" x2="14.5067" y2="-3.35678" gradientUnits="userSpaceOnUse">
<stop stop-color="#FCE7A7"/>
<stop offset="0.550108" stop-color="#F6B748"/>
<stop offset="1" stop-color="#F7B645"/>
</linearGradient>
</defs>
</svg>
