<svg width="18" height="20" viewBox="0 0 18 20" fill="none" xmlns="http://www.w3.org/2000/svg">
<path d="M16.8631 4.6364C16.8166 4.56896 16.7526 4.51543 16.6781 4.48153C16.6035 4.44763 16.5211 4.43463 16.4398 4.44394C16.3582 4.44884 16.2799 4.47771 16.2147 4.52692L14.3431 5.86021L14.3316 3.82452C14.3302 3.70285 14.2811 3.58661 14.1948 3.50081C14.1086 3.41501 13.9921 3.3665 13.8704 3.36576C13.7559 3.37613 13.6492 3.42875 13.5712 3.51333C13.4932 3.59792 13.4494 3.70841 13.4482 3.82348L13.462 6.52162L12.0816 7.4764L12.1034 4.38223C12.0964 4.30928 11.998 4.30645 11.969 4.26016C11.94 4.21386 12.0303 4.1316 11.9515 4.07782C11.9121 4.03611 11.8645 4.00302 11.8117 3.98064C11.7588 3.95827 11.7019 3.9471 11.6446 3.94782C11.5446 3.95563 11.4496 3.99479 11.3732 4.05977L9.05417 6.09862L8.8977 4.46949L10.8852 2.68335C10.9598 2.61896 11.0119 2.53253 11.034 2.43656C11.0562 2.34059 11.0472 2.24004 11.0085 2.14949C10.9698 2.05894 10.9032 1.98307 10.8185 1.93285C10.7338 1.88264 10.6353 1.8607 10.5373 1.87018C10.441 1.87765 10.3499 1.91656 10.278 1.98096L8.74166 3.35561L8.52214 1.06999C8.51632 1.00932 8.4986 0.95037 8.47001 0.896549C8.44141 0.842728 8.40249 0.795078 8.35548 0.7563C8.30847 0.717522 8.25428 0.688397 8.19601 0.670566C8.13774 0.652735 8.07653 0.646567 8.01587 0.652397C7.95521 0.658228 7.8963 0.675942 7.84249 0.704546C7.78868 0.73315 7.74103 0.772018 7.70226 0.819041C7.66349 0.866064 7.63435 0.920317 7.61652 0.9786C7.59869 1.03688 7.59252 1.09809 7.59834 1.15876L7.81786 3.44443L6.04798 2.38756C5.96512 2.33803 5.86828 2.31715 5.77238 2.32814C5.67435 2.33751 5.58184 2.37782 5.50823 2.44325C5.43462 2.50868 5.38373 2.59584 5.36293 2.69211C5.34212 2.78839 5.35248 2.88878 5.3925 2.97877C5.43252 3.06877 5.50012 3.14372 5.58554 3.19274L7.92177 4.52649L8.07824 6.15563L5.4136 4.59577C5.32621 4.54654 5.22551 4.52614 5.12585 4.53752C5.0694 4.54775 5.01569 4.56958 4.96809 4.60161C4.92049 4.63364 4.88004 4.67524 4.8493 4.72368C4.8493 4.72368 4.85981 4.83307 4.86682 4.90602C4.87382 4.97897 4.7511 4.97852 4.75811 5.05147L5.32327 8.12597L3.82287 7.44806L3.32289 4.79673C3.29989 4.68397 3.23584 4.58379 3.14315 4.51561C3.05046 4.44743 2.93575 4.41613 2.82129 4.42777C2.70201 4.45167 2.59688 4.52149 2.52853 4.62215C2.46019 4.72281 2.4341 4.84624 2.45588 4.96595L2.83203 6.96663L0.740968 6.01423C0.667556 5.97834 0.585181 5.96493 0.504173 5.97566C0.422516 5.98202 0.344124 6.01043 0.277377 6.05791C0.21063 6.10539 0.158041 6.17014 0.125235 6.2452C0.0771774 6.35786 0.0743582 6.48468 0.117355 6.59937C0.160351 6.71405 0.245858 6.80777 0.356125 6.86104L2.45935 7.81226L0.693485 8.84088C0.639645 8.86966 0.592385 8.90933 0.554721 8.95738C0.517056 9.00544 0.489807 9.06086 0.474717 9.12003C0.459626 9.17919 0.457022 9.24088 0.467068 9.3011C0.477114 9.36133 0.499593 9.41877 0.53307 9.46983C0.594132 9.57583 0.69457 9.65345 0.81254 9.68577C0.93051 9.71809 1.05647 9.70251 1.16302 9.64242L3.48666 8.29019L4.9749 8.96927L2.28379 10.4549C2.28379 10.4549 2.2908 10.5278 2.29313 10.5522C2.29547 10.5765 2.14727 10.5662 2.12365 10.7035C2.10003 10.8407 2.19493 10.8071 2.21409 10.8788C2.23325 10.9506 2.11637 11.0109 2.15985 11.0803C2.20332 11.1498 2.26924 11.0699 2.33585 11.1248C2.40247 11.1798 2.3487 11.2585 2.41298 11.2892L5.33762 12.2351L4.00583 13.1851L1.46618 12.2882C1.40076 12.2827 1.33489 12.289 1.2717 12.3068C1.18374 12.3132 1.09975 12.3459 1.03062 12.4007C0.961503 12.4555 0.910455 12.5298 0.884109 12.614C0.860963 12.6705 0.849834 12.7312 0.851434 12.7922C0.853034 12.8533 0.867328 12.9133 0.893403 12.9686C0.919478 13.0238 0.956765 13.0729 1.00289 13.1129C1.04901 13.1529 1.10295 13.1829 1.16129 13.2009L3.09179 13.8865L1.20808 15.2209C1.10997 15.2942 1.04385 15.4025 1.02347 15.5233C1.00309 15.6441 1.03 15.7681 1.09862 15.8695C1.1719 15.9677 1.28016 16.0338 1.40091 16.0542C1.52165 16.0746 1.64562 16.0476 1.74705 15.979L3.61744 14.6335L3.62893 16.6692C3.63317 16.7913 3.68299 16.9074 3.76857 16.9946C3.85415 17.0817 3.96928 17.1337 4.09126 17.1401C4.21514 17.1354 4.33258 17.0838 4.41979 16.9956C4.507 16.9075 4.55745 16.7895 4.5609 16.6656L4.5483 13.9796L5.87891 13.0174L5.85829 16.1236C5.86413 16.1844 5.96254 16.1873 5.99269 16.2457C6.02284 16.3042 5.93143 16.3743 6.0102 16.4281C6.08897 16.4819 6.13175 16.4164 6.20469 16.4094C6.27762 16.4024 6.2187 16.5553 6.34025 16.5436C6.4618 16.532 6.41716 16.4504 6.4756 16.4202C6.53405 16.39 6.60416 16.4815 6.65793 16.4027L8.97696 14.3638L9.13342 15.9929L7.09376 17.7473C7.04763 17.7871 7.00981 17.8357 6.98245 17.8902C6.9551 17.9447 6.93875 18.004 6.93434 18.0648C6.92992 18.1257 6.93753 18.1868 6.95674 18.2447C6.97594 18.3026 7.00636 18.3561 7.04625 18.4022C7.08513 18.4498 7.13331 18.4889 7.18784 18.5172C7.24237 18.5456 7.3021 18.5624 7.36339 18.5669C7.42467 18.5713 7.48622 18.5632 7.54427 18.543C7.60231 18.5229 7.65564 18.4911 7.70099 18.4497L9.23734 17.075L9.45803 19.3728C9.46979 19.4953 9.52974 19.6081 9.62469 19.6865C9.71963 19.7648 9.84179 19.8022 9.96429 19.7904C10.0868 19.7786 10.1996 19.7187 10.2779 19.6237C10.3562 19.5288 10.3936 19.4065 10.3818 19.284L10.1611 16.9862L11.931 18.0431C11.9834 18.0751 12.0418 18.0962 12.1027 18.1049C12.1635 18.1137 12.2254 18.1099 12.2848 18.0939C12.3441 18.0778 12.3995 18.0499 12.4476 18.0117C12.4958 17.9735 12.5356 17.9258 12.5648 17.8717C12.5951 17.8188 12.6148 17.7605 12.6226 17.7001C12.6305 17.6396 12.6263 17.5782 12.6104 17.5193C12.5945 17.4604 12.5672 17.4053 12.5299 17.357C12.4927 17.3087 12.4463 17.2683 12.3935 17.2379L10.0572 15.9041L9.90076 14.275L12.4735 16.0278C12.4735 16.0278 12.5951 16.016 12.6559 16.0102C12.7166 16.0043 12.7405 16.1247 12.8122 16.1056C12.884 16.0864 12.8005 15.984 12.9198 15.948C13.039 15.912 13.0778 15.9328 13.1143 15.9293C13.1507 15.9258 13.1026 15.8077 13.0967 15.7469C13.0909 15.6861 13.2113 15.6623 13.2054 15.6015L12.594 12.556L14.0834 13.2472L14.5822 15.8864C14.5936 15.9465 14.6168 16.0038 14.6503 16.055C14.6839 16.1062 14.7272 16.1503 14.7778 16.1847C14.8284 16.2192 14.8852 16.2433 14.9451 16.2557C15.0051 16.2682 15.0668 16.2687 15.127 16.2573C15.1871 16.2459 15.2444 16.2228 15.2955 16.1892C15.3467 16.1557 15.3908 16.1123 15.4252 16.0617C15.4597 16.0111 15.4838 15.9543 15.4963 15.8944C15.5087 15.8344 15.5093 15.7727 15.4979 15.7125L15.1217 13.7118L17.2139 14.6764C17.3262 14.7274 17.4542 14.7318 17.5696 14.6885C17.6851 14.6451 17.7786 14.5577 17.8297 14.4454C17.8807 14.3331 17.885 14.2052 17.8417 14.0897C17.7984 13.9742 17.711 13.8806 17.5988 13.8296L15.4956 12.8783L17.2603 11.8375C17.3481 11.7827 17.4151 11.7 17.4506 11.6026C17.486 11.5053 17.4879 11.3988 17.4558 11.3003C17.4238 11.2018 17.3597 11.1168 17.2738 11.0589C17.1878 11.001 17.085 10.9735 16.9817 10.9809C16.9163 10.9754 16.8504 10.9818 16.7872 10.9996L14.4647 12.3639L12.9765 11.6848L15.6676 10.1992C15.7284 10.1934 15.6559 10.0776 15.712 10.0231C15.7681 9.96866 15.8457 10.0103 15.8764 9.94599C15.907 9.8817 15.8647 9.8244 15.7848 9.75846C15.7048 9.69253 15.8836 9.63856 15.8402 9.56911C15.7967 9.49967 15.7104 9.49573 15.645 9.45294C15.5796 9.41015 15.6368 9.36783 15.6357 9.35567L12.711 8.40977L14.0428 7.45966L16.5813 8.34446C16.6973 8.38316 16.8239 8.3745 16.9336 8.32031C17.0433 8.26611 17.1271 8.17081 17.1669 8.05511C17.19 7.99861 17.2011 7.93791 17.1995 7.87687C17.1979 7.81583 17.1836 7.75577 17.1576 7.70056C17.1315 7.64535 17.0942 7.59617 17.0481 7.55617C17.002 7.51617 16.948 7.48618 16.8897 7.46818L14.9604 6.7948L16.8441 5.46035C16.9172 5.42015 16.9785 5.36138 17.0218 5.29004C17.0651 5.2187 17.0889 5.13727 17.0908 5.05383C17.0928 4.97039 17.0727 4.88793 17.0328 4.81467C16.9928 4.74141 16.9343 4.67992 16.8631 4.6364ZM3.5998 10.7456L5.92343 9.39342L7.96355 10.3261L6.19624 11.7231L3.5998 10.7456ZM8.75382 13.3177L6.69335 15.1109L6.75485 12.4301L8.58011 11.1259L8.75382 13.3177ZM8.38485 9.4759L6.38704 8.60039L5.84708 5.91608L8.21231 7.29607L8.38485 9.4759ZM9.09497 7.16224L11.1543 5.35689L11.1351 8.09496L9.30865 9.38708L9.09497 7.16224ZM9.6788 13.2411L9.46745 11.0406L11.5076 11.9733L12.0464 14.6454L9.6788 13.2411ZM14.249 9.7343L11.9254 11.0865L9.85977 10.1439L11.685 8.83963L14.249 9.7343Z" fill="url(#paint0_linear_1416_3742)"/>
<defs>
<linearGradient id="paint0_linear_1416_3742" x1="2.58977" y1="-1.68212" x2="14.5065" y2="-3.35678" gradientUnits="userSpaceOnUse">
<stop stop-color="#FCE7A7"/>
<stop offset="0.550108" stop-color="#F6B748"/>
<stop offset="1" stop-color="#F7B645"/>
</linearGradient>
</defs>
</svg>
