<svg width="26" height="25" viewBox="0 0 26 25" fill="none" xmlns="http://www.w3.org/2000/svg">
<path d="M8.79001 23.9971C8.89003 24.0351 8.99847 24.0451 9.10373 24.0262C9.209 24.0072 9.30714 23.9601 9.38764 23.8897C9.47163 23.8238 9.53432 23.7347 9.56787 23.6334L10.5887 20.8117L12.1122 22.9901C12.2041 23.1198 12.3431 23.2082 12.4995 23.2363C12.6558 23.2645 12.817 23.2301 12.9482 23.1406C13.0636 23.0444 13.1391 22.9087 13.1601 22.7599C13.1812 22.6111 13.1462 22.4599 13.062 22.3355L11.0443 19.4471L11.8184 17.3967L14.0919 20.7369C14.1536 20.8101 14.2614 20.74 14.3269 20.7683C14.3924 20.7965 14.3566 20.9518 14.4811 20.9511C14.5544 20.9667 14.6301 20.9669 14.7035 20.9517C14.7768 20.9366 14.8462 20.9063 14.9073 20.863C15.009 20.7804 15.0819 20.6678 15.1158 20.5412L16.0935 16.6294L17.471 18.2634L16.6617 21.6577C16.6295 21.7822 16.6377 21.9137 16.6851 22.0333C16.7325 22.1528 16.8168 22.2542 16.9256 22.3227C17.0345 22.3912 17.1623 22.4233 17.2906 22.4144C17.4189 22.4054 17.541 22.3559 17.6392 22.2729C17.7371 22.1935 17.806 22.084 17.8355 21.9615L18.4655 19.3442L20.3981 21.6367C20.4494 21.6975 20.5121 21.7477 20.5828 21.7843C20.6535 21.8209 20.7307 21.8432 20.81 21.8499C20.8893 21.8567 20.9691 21.8478 21.0449 21.8237C21.1208 21.7996 21.1911 21.7607 21.2519 21.7094C21.3128 21.6582 21.3629 21.5954 21.3995 21.5247C21.4361 21.454 21.4584 21.3769 21.4651 21.2976C21.4719 21.2183 21.4629 21.1384 21.4388 21.0626C21.4147 20.9867 21.3759 20.9164 21.3246 20.8555L19.392 18.563L22.0779 18.3845C22.2037 18.3762 22.3232 18.3268 22.4181 18.2438C22.5165 18.161 22.5859 18.049 22.6164 17.924C22.6469 17.7991 22.6369 17.6677 22.5878 17.5488C22.5387 17.4299 22.453 17.3298 22.3432 17.2628C22.2334 17.1958 22.1052 17.1655 21.977 17.1763L18.4771 17.4777L17.0997 15.8437L21.1202 15.5414C21.2506 15.5294 21.3739 15.4765 21.4725 15.3903C21.5256 15.3374 21.5671 15.2741 21.5945 15.2044C21.6218 15.1346 21.6344 15.0599 21.6315 14.9851C21.6315 14.9851 21.539 14.8753 21.4773 14.8022C21.4156 14.729 21.5478 14.6384 21.4861 14.5652L18.5966 11.6819L20.7117 11.2963L23.217 13.7735C23.3254 13.8775 23.4686 13.9376 23.6188 13.942C23.769 13.9465 23.9155 13.8949 24.0298 13.7975C24.1402 13.6832 24.2013 13.5302 24.2 13.3713C24.1987 13.2125 24.1351 13.0605 24.0228 12.9481L22.1335 11.078L25.0869 10.5488C25.1925 10.5329 25.2909 10.4862 25.37 10.4145C25.453 10.3471 25.5161 10.2583 25.5526 10.1578C25.589 10.0572 25.5974 9.94863 25.577 9.84363C25.545 9.68693 25.4538 9.54859 25.3225 9.45731C25.1912 9.36602 25.0298 9.32882 24.8718 9.35345L21.9062 9.89287L23.0396 7.47697C23.0761 7.40608 23.0974 7.32838 23.1022 7.2488C23.107 7.16922 23.0951 7.08944 23.0674 7.01468C23.0397 6.93992 22.9967 6.87172 22.9412 6.81448C22.8857 6.75723 22.8189 6.71222 22.7451 6.68222C22.6008 6.61367 22.4352 6.60484 22.2845 6.65769C22.1338 6.71054 22.01 6.82079 21.9402 6.96444L20.4478 10.1421L18.3448 10.5173L20.133 6.92355C20.133 6.92355 20.0713 6.85044 20.0508 6.82605C20.0302 6.80166 20.197 6.70267 20.1205 6.5377C20.044 6.37273 19.9671 6.47932 19.8932 6.41643C19.8193 6.35354 19.9001 6.20203 19.8019 6.1597C19.7036 6.11737 19.6921 6.25215 19.5798 6.24258C19.4674 6.233 19.4667 6.10846 19.3749 6.12327L15.5308 7.27818L16.2563 5.26891L19.6505 4.34721C19.7248 4.30448 19.7909 4.24884 19.8455 4.18281C19.9353 4.11063 20.0012 4.01311 20.0348 3.90295C20.0684 3.79278 20.0681 3.67506 20.0339 3.56506C20.0168 3.48718 19.9837 3.41371 19.9367 3.34933C19.8896 3.28494 19.8297 3.23102 19.7607 3.19107C19.6917 3.15112 19.6151 3.12596 19.5359 3.11723C19.4567 3.10849 19.3765 3.11639 19.3005 3.14035L16.7176 3.83693L17.7506 1.005C17.8016 0.853419 17.7922 0.687963 17.7245 0.543084C17.6567 0.398206 17.5357 0.284977 17.3867 0.226938C17.2351 0.175917 17.0698 0.18524 16.9249 0.252981C16.7801 0.32072 16.6669 0.441709 16.6089 0.590738L15.5983 3.42458L14.0748 1.2462C13.9796 1.11818 13.8399 1.03044 13.6833 1.00032C13.5266 0.970211 13.3644 0.99991 13.2286 1.08352C13.099 1.18056 13.0112 1.32321 12.9829 1.48263C12.9546 1.64204 12.988 1.80623 13.0763 1.94195L15.0837 4.81806L14.3686 6.83956L12.0848 3.48725C12.0334 3.42627 11.9256 3.49629 11.8498 3.45587C11.7741 3.41546 11.8202 3.27222 11.6956 3.27292C11.5711 3.27363 11.5737 3.37572 11.5006 3.43739C11.4274 3.49906 11.3772 3.29105 11.2553 3.39383C11.1334 3.49662 11.2419 3.55114 11.2015 3.62692C11.1611 3.7027 11.0179 3.65655 11.0187 3.78111L10.0409 7.69293L8.66344 6.05892L9.55231 2.66016C9.57227 2.58309 9.57685 2.50283 9.56578 2.42398C9.55472 2.34514 9.52823 2.26924 9.48782 2.20063C9.44741 2.13202 9.39385 2.07199 9.33026 2.02407C9.26667 1.97616 9.19426 1.94124 9.11718 1.92132C9.04008 1.89906 8.95926 1.89276 8.87965 1.90281C8.80005 1.91286 8.72337 1.93912 8.65424 1.97984C8.5851 2.02056 8.525 2.07496 8.47761 2.13971C8.43021 2.20445 8.39649 2.27814 8.37856 2.35636L7.74854 4.97362L5.80573 2.66899C5.70213 2.5461 5.55396 2.46937 5.39382 2.45572C5.23369 2.44207 5.07468 2.49255 4.95182 2.59614C4.82895 2.69973 4.75227 2.84789 4.73865 3.00804C4.72503 3.16818 4.7756 3.32723 4.8792 3.45013L6.82205 5.75482L4.13612 5.9333C4.056 5.93774 3.97762 5.95844 3.9058 5.99421C3.83398 6.02998 3.77021 6.08005 3.7184 6.14131C3.66658 6.20258 3.6278 6.27377 3.60444 6.35054C3.58107 6.4273 3.57362 6.50807 3.58252 6.58782C3.58912 6.66717 3.61127 6.7444 3.64774 6.81518C3.68421 6.88596 3.73427 6.94886 3.79506 7.00029C3.85584 7.05172 3.92616 7.09065 4.002 7.11489C4.07783 7.13913 4.15767 7.14816 4.23701 7.14151L7.73694 6.84012L9.1144 8.47413L5.04937 8.50102C5.04937 8.50102 4.9275 8.60387 4.86655 8.65527C4.80559 8.70666 4.69061 8.59501 4.62775 8.66887C4.56488 8.74274 4.73051 8.79077 4.62916 8.91794C4.52781 9.04511 4.47069 9.05157 4.43411 9.0824C4.39754 9.11324 4.53693 9.20438 4.58832 9.26535C4.63972 9.32632 4.52808 9.44126 4.57948 9.50223L7.49718 12.3201L5.38404 12.6833L2.88895 10.2182C2.83205 10.1621 2.76465 10.1177 2.69061 10.0877C2.61657 10.0576 2.53734 10.0424 2.45743 10.0429C2.37752 10.0435 2.29851 10.0598 2.2249 10.0909C2.15128 10.122 2.08452 10.1673 2.02841 10.2242C1.9723 10.2811 1.92791 10.3484 1.89784 10.4224C1.86778 10.4965 1.85263 10.5758 1.85318 10.6557C1.85374 10.7356 1.87001 10.8146 1.9011 10.8882C1.9322 10.9619 1.97748 11.0286 2.03438 11.0848L3.92367 12.9548L0.959998 13.4718C0.8015 13.5003 0.660812 13.5906 0.568917 13.7229C0.477022 13.8551 0.441445 14.0185 0.469982 14.177C0.498518 14.3355 0.588839 14.4762 0.721092 14.5681C0.853345 14.6601 1.0167 14.6957 1.17519 14.6672L4.14079 14.1278L3.01764 16.5559C2.96396 16.6801 2.95334 16.8186 2.98754 16.9495C3.02175 17.0804 3.09878 17.1962 3.20635 17.2782C3.31392 17.3603 3.44584 17.404 3.58111 17.4024C3.71638 17.4008 3.84727 17.354 3.95283 17.2694C4.02715 17.2267 4.09321 17.171 4.14788 17.105L5.63004 13.9152L7.73295 13.5399L5.94477 17.1336C5.88382 17.185 6.0476 17.2556 6.02777 17.3558C6.00793 17.456 5.89366 17.4688 5.90848 17.5607C5.92331 17.6525 6.01129 17.6826 6.14611 17.6941C6.28094 17.7056 6.12889 17.8963 6.22714 17.9387C6.32539 17.981 6.42098 17.9212 6.52305 17.9186C6.62513 17.916 6.59502 18.0039 6.6053 18.0161L10.4494 16.8612L9.72396 18.8706L6.34008 19.8044C6.1867 19.849 6.0571 19.9523 5.97953 20.0919C5.90196 20.2316 5.88264 20.3962 5.92581 20.55C5.94288 20.6279 5.97599 20.7013 6.02302 20.7657C6.07005 20.8301 6.12999 20.884 6.19899 20.924C6.26798 20.9639 6.34454 20.9891 6.42378 20.9978C6.50303 21.0066 6.58324 20.9987 6.65927 20.9748L9.23181 20.2659L8.19879 23.0979C8.15006 23.1953 8.12785 23.304 8.13428 23.4128C8.14071 23.5216 8.17558 23.6267 8.23545 23.7178C8.29533 23.8088 8.37806 23.8826 8.47538 23.9316C8.57271 23.9806 8.68122 24.0032 8.79001 23.9971ZM18.5035 7.58823L17.011 10.7658L14.1269 11.2782L14.9885 8.4656L18.5035 7.58823ZM11.0572 8.65108L11.9396 5.19515L13.8636 8.12075L12.8709 10.8768L11.0572 8.65108ZM14.3055 12.5044L17.1016 11.9619L19.6744 14.4448L16.109 14.7181L14.3055 12.5044ZM15.2601 15.5171L14.388 18.9853L12.3761 16.0295L13.379 13.2856L15.2601 15.5171ZM10.1204 9.42004L11.981 11.6272L9.09689 12.1396L6.53442 9.66891L10.1204 9.42004ZM7.81389 16.58L9.30637 13.4024L12.2251 12.8816L11.2325 15.6378L7.81389 16.58Z" fill="url(#paint0_linear_1416_3744)"/>
<defs>
<linearGradient id="paint0_linear_1416_3744" x1="28.8141" y1="20.1894" x2="17.2554" y2="30.8347" gradientUnits="userSpaceOnUse">
<stop stop-color="#FCE7A7"/>
<stop offset="0.550108" stop-color="#F6B748"/>
<stop offset="1" stop-color="#F7B645"/>
</linearGradient>
</defs>
</svg>
