<svg width="16" height="17" viewBox="0 0 16 17" fill="none" xmlns="http://www.w3.org/2000/svg">
<path d="M14.4889 3.61135C14.4505 3.55568 14.3977 3.51149 14.3362 3.48351C14.2747 3.45553 14.2067 3.4448 14.1395 3.45249C14.0722 3.45653 14.0075 3.48036 13.9537 3.52099L12.4088 4.62152L12.3993 2.9412C12.3982 2.84077 12.3576 2.74482 12.2864 2.674C12.2153 2.60317 12.1191 2.56313 12.0187 2.56252C11.9241 2.57108 11.8361 2.61451 11.7717 2.68433C11.7073 2.75415 11.6711 2.84535 11.6702 2.94034L11.6816 5.16747L10.5421 5.95559L10.5601 3.40155C10.5543 3.34134 10.4731 3.339 10.4492 3.30078C10.4253 3.26257 10.4997 3.19467 10.4347 3.15028C10.4022 3.11585 10.3629 3.08854 10.3193 3.07007C10.2757 3.0516 10.2287 3.04238 10.1814 3.04297C10.0988 3.04941 10.0204 3.08174 9.95737 3.13538L8.04316 4.81832L7.91401 3.47357L9.55459 1.99924C9.61611 1.94609 9.65912 1.87474 9.67741 1.79552C9.6957 1.7163 9.68832 1.63331 9.65633 1.55857C9.62435 1.48382 9.56942 1.4212 9.49949 1.37975C9.42957 1.3383 9.34826 1.32019 9.26736 1.32802C9.18792 1.33418 9.11273 1.3663 9.05337 1.41946L7.78521 2.55414L7.60401 0.667511C7.5992 0.617431 7.58458 0.568771 7.56097 0.524345C7.53737 0.479919 7.50524 0.440587 7.46644 0.408578C7.42764 0.37657 7.38291 0.352529 7.33481 0.337811C7.28671 0.323092 7.23618 0.318001 7.18611 0.322814C7.13604 0.327626 7.08741 0.342248 7.043 0.365859C6.99858 0.38947 6.95925 0.421553 6.92725 0.460367C6.89524 0.499182 6.87119 0.543964 6.85648 0.592073C6.84176 0.640182 6.83666 0.6907 6.84147 0.74078L7.02267 2.62746L5.56174 1.75508C5.49335 1.7142 5.41341 1.69696 5.33426 1.70603C5.25334 1.71376 5.17698 1.74704 5.11622 1.80105C5.05546 1.85506 5.01345 1.927 4.99628 2.00647C4.9791 2.08594 4.98765 2.1688 5.02069 2.24309C5.05372 2.31737 5.10952 2.37924 5.18003 2.4197L7.10844 3.52063L7.23759 4.86537L5.03811 3.57781C4.96597 3.53717 4.88285 3.52034 4.80059 3.52973C4.754 3.53818 4.70965 3.5562 4.67037 3.58264C4.63108 3.60907 4.59769 3.64341 4.57231 3.6834C4.57231 3.6834 4.58099 3.77369 4.58677 3.8339C4.59255 3.89412 4.49126 3.89375 4.49704 3.95396L4.96355 6.49177L3.72506 5.93219L3.31236 3.74369C3.29338 3.65062 3.2405 3.56793 3.164 3.51165C3.08749 3.45537 2.9928 3.42953 2.89832 3.43914C2.79986 3.45887 2.71308 3.5165 2.65667 3.59958C2.60026 3.68267 2.57872 3.78456 2.5967 3.88337L2.90719 5.5348L1.18115 4.74866C1.12055 4.71904 1.05256 4.70797 0.985692 4.71682C0.91829 4.72207 0.853582 4.74552 0.798487 4.78471C0.743392 4.8239 0.699983 4.87735 0.672904 4.93931C0.633235 5.0323 0.630908 5.13699 0.666399 5.23165C0.70189 5.32632 0.77247 5.40367 0.863488 5.44764L2.59957 6.23282L1.14196 7.08188C1.09752 7.10563 1.05851 7.13838 1.02742 7.17804C0.996326 7.21771 0.973834 7.26346 0.961378 7.31229C0.948921 7.36113 0.946772 7.41205 0.955064 7.46176C0.963357 7.51148 0.981912 7.55889 1.00954 7.60103C1.05995 7.68853 1.14285 7.7526 1.24023 7.77928C1.33761 7.80596 1.44158 7.79309 1.52953 7.7435L3.44754 6.62731L4.67599 7.18785L2.45465 8.41418C2.45465 8.41418 2.46044 8.47436 2.46236 8.49443C2.46429 8.5145 2.34196 8.50603 2.32246 8.61931C2.30297 8.73259 2.3813 8.70483 2.39712 8.76408C2.41294 8.82333 2.31646 8.87308 2.35234 8.9304C2.38823 8.98772 2.44264 8.92175 2.49762 8.96711C2.55261 9.01247 2.50823 9.07749 2.56129 9.10277L4.97539 9.88356L3.87609 10.6678L1.77977 9.92738C1.72577 9.92289 1.6714 9.92808 1.61924 9.94277C1.54663 9.94806 1.4773 9.97508 1.42024 10.0203C1.36319 10.0655 1.32105 10.1269 1.29931 10.1963C1.2802 10.243 1.27101 10.2931 1.27233 10.3435C1.27365 10.3939 1.28545 10.4434 1.30698 10.489C1.3285 10.5346 1.35928 10.5752 1.39735 10.6082C1.43542 10.6412 1.47995 10.6659 1.5281 10.6808L3.1216 11.2467L1.56672 12.3482C1.48574 12.4087 1.43116 12.4981 1.41434 12.5978C1.39751 12.6975 1.41973 12.7998 1.47637 12.8836C1.53686 12.9646 1.62622 13.0192 1.72589 13.036C1.82556 13.0528 1.92788 13.0306 2.0116 12.9739L3.55549 11.8633L3.56498 13.5437C3.56848 13.6444 3.6096 13.7403 3.68024 13.8122C3.75088 13.8842 3.84591 13.927 3.9466 13.9324C4.04885 13.9285 4.1458 13.8858 4.21778 13.8131C4.28977 13.7404 4.33141 13.643 4.33426 13.5407L4.32386 11.3236L5.42219 10.5293L5.40517 13.0933C5.40999 13.1435 5.49122 13.1458 5.51611 13.1941C5.54099 13.2423 5.46554 13.3003 5.53056 13.3447C5.59558 13.389 5.6309 13.335 5.6911 13.3292C5.7513 13.3234 5.70266 13.4496 5.803 13.44C5.90333 13.4304 5.86648 13.363 5.91472 13.3381C5.96296 13.3132 6.02084 13.3887 6.06522 13.3236L7.97943 11.6407L8.10858 12.9854L6.42497 14.4335C6.3869 14.4664 6.35567 14.5065 6.3331 14.5515C6.31052 14.5965 6.29702 14.6455 6.29338 14.6957C6.28973 14.7459 6.29602 14.7963 6.31187 14.8441C6.32772 14.8919 6.35282 14.9361 6.38575 14.9741C6.41785 15.0134 6.45761 15.0457 6.50262 15.0691C6.54764 15.0925 6.59695 15.1064 6.64753 15.11C6.69812 15.1137 6.74892 15.107 6.79683 15.0904C6.84475 15.0737 6.88877 15.0475 6.9262 15.0133L8.19436 13.8786L8.37652 15.7753C8.38623 15.8764 8.43572 15.9696 8.51409 16.0342C8.59246 16.0988 8.69329 16.1297 8.79441 16.12C8.89553 16.1103 8.98865 16.0608 9.05328 15.9824C9.11791 15.904 9.14877 15.8031 9.13906 15.702L8.9569 13.8053L10.4178 14.6777C10.4611 14.7042 10.5093 14.7216 10.5595 14.7288C10.6097 14.736 10.6608 14.7329 10.7098 14.7196C10.7588 14.7064 10.8045 14.6833 10.8443 14.6518C10.884 14.6202 10.9169 14.5809 10.9409 14.5362C10.966 14.4926 10.9822 14.4445 10.9887 14.3946C10.9952 14.3447 10.9917 14.294 10.9786 14.2454C10.9655 14.1968 10.9429 14.1513 10.9122 14.1114C10.8815 14.0715 10.8432 14.0382 10.7995 14.0131L8.87112 12.9121L8.74197 11.5674L10.8656 13.0142C10.8656 13.0142 10.966 13.0045 11.0161 12.9997C11.0663 12.9948 11.086 13.0942 11.1452 13.0784C11.2044 13.0626 11.1356 12.9781 11.234 12.9484C11.3324 12.9187 11.3644 12.9358 11.3945 12.9329C11.4246 12.93 11.3849 12.8326 11.38 12.7824C11.3752 12.7322 11.4746 12.7125 11.4698 12.6624L10.9651 10.1485L12.1945 10.719L12.6062 12.8975C12.6156 12.9471 12.6347 12.9944 12.6624 13.0367C12.6901 13.0789 12.7259 13.1153 12.7676 13.1437C12.8094 13.1722 12.8563 13.1921 12.9058 13.2024C12.9552 13.2127 13.0062 13.2131 13.0559 13.2037C13.1055 13.1942 13.1528 13.1752 13.195 13.1475C13.2373 13.1198 13.2736 13.084 13.3021 13.0422C13.3305 13.0005 13.3504 12.9535 13.3607 12.9041C13.371 12.8546 13.3714 12.8036 13.362 12.754L13.0515 11.1025L14.7785 11.8987C14.8712 11.9408 14.9768 11.9444 15.0721 11.9087C15.1674 11.8729 15.2446 11.8007 15.2868 11.7081C15.3289 11.6154 15.3325 11.5097 15.2967 11.4144C15.261 11.3191 15.1888 11.2419 15.0962 11.1997L13.3601 10.4145L14.8168 9.55542C14.8893 9.51012 14.9446 9.44191 14.9738 9.36154C15.0031 9.28117 15.0046 9.1933 14.9782 9.11197C14.9517 9.03063 14.8988 8.9605 14.8279 8.91273C14.757 8.86495 14.6721 8.84223 14.5868 8.84829C14.5328 8.8438 14.4784 8.84903 14.4263 8.86372L12.5092 9.98993L11.2808 9.42939L13.5021 8.20311C13.5523 8.19829 13.4925 8.10271 13.5388 8.05775C13.5851 8.01279 13.6492 8.04715 13.6745 7.99408C13.6997 7.94101 13.6648 7.89371 13.5988 7.83928C13.5328 7.78486 13.6805 7.74031 13.6446 7.68299C13.6087 7.62567 13.5375 7.62241 13.4835 7.58709C13.4294 7.55177 13.4767 7.51684 13.4758 7.5068L11.0617 6.72602L12.161 5.94177L14.2563 6.67212C14.3521 6.70405 14.4566 6.69691 14.5471 6.65218C14.6376 6.60744 14.7068 6.52878 14.7397 6.43328C14.7588 6.38664 14.768 6.33654 14.7666 6.28615C14.7653 6.23577 14.7535 6.18619 14.732 6.14062C14.7105 6.09505 14.6797 6.05445 14.6416 6.02143C14.6036 5.98841 14.559 5.96366 14.5109 5.9488L12.9183 5.39297L14.4732 4.29147C14.5336 4.25829 14.5842 4.20978 14.6199 4.15089C14.6557 4.092 14.6753 4.02479 14.6769 3.95591C14.6785 3.88704 14.662 3.81897 14.629 3.7585C14.596 3.69803 14.5477 3.64728 14.4889 3.61135ZM3.54093 8.6541L5.45894 7.53797L7.14293 8.30787L5.68413 9.46093L3.54093 8.6541ZM7.79525 10.7772L6.09446 12.2573L6.14522 10.0445L7.65186 8.96799L7.79525 10.7772ZM7.49068 7.60604L5.84162 6.88337L5.39592 4.66764L7.34826 5.80674L7.49068 7.60604ZM8.07684 5.69626L9.77667 4.20607L9.76083 6.46617L8.25322 7.53273L8.07684 5.69626ZM8.55875 10.714L8.3843 8.89757L10.0683 9.66747L10.513 11.8732L8.55875 10.714ZM12.3312 7.81934L10.4131 8.93547L8.70813 8.15747L10.2148 7.08084L12.3312 7.81934Z" fill="url(#paint0_linear_1416_3738)"/>
<defs>
<linearGradient id="paint0_linear_1416_3738" x1="2.70722" y1="-1.60418" x2="12.5437" y2="-2.9865" gradientUnits="userSpaceOnUse">
<stop stop-color="#FCE7A7"/>
<stop offset="0.550108" stop-color="#F6B748"/>
<stop offset="1" stop-color="#F7B645"/>
</linearGradient>
</defs>
</svg>
