<svg width="18" height="20" viewBox="0 0 18 20" fill="none" xmlns="http://www.w3.org/2000/svg">
<path d="M16.8636 4.6364C16.8171 4.56896 16.7531 4.51543 16.6786 4.48153C16.604 4.44763 16.5216 4.43463 16.4403 4.44394C16.3587 4.44884 16.2804 4.47771 16.2151 4.52692L14.3436 5.86021L14.3321 3.82452C14.3307 3.70285 14.2816 3.58661 14.1953 3.50081C14.1091 3.41501 13.9926 3.3665 13.8709 3.36576C13.7563 3.37613 13.6497 3.42875 13.5717 3.51333C13.4937 3.59792 13.4498 3.70841 13.4487 3.82348L13.4625 6.52162L12.0821 7.4764L12.1039 4.38223C12.0969 4.30928 11.9985 4.30645 11.9695 4.26016C11.9405 4.21386 12.0308 4.1316 11.952 4.07782C11.9126 4.03611 11.865 4.00302 11.8121 3.98064C11.7593 3.95827 11.7024 3.9471 11.6451 3.94782C11.5451 3.95563 11.4501 3.99479 11.3737 4.05977L9.05466 6.09862L8.89819 4.46949L10.8857 2.68335C10.9603 2.61896 11.0124 2.53253 11.0345 2.43656C11.0567 2.34059 11.0477 2.24004 11.009 2.14949C10.9702 2.05894 10.9037 1.98307 10.819 1.93285C10.7343 1.88264 10.6358 1.8607 10.5377 1.87018C10.4415 1.87765 10.3504 1.91656 10.2785 1.98096L8.74215 3.35561L8.52263 1.06999C8.51681 1.00932 8.49909 0.95037 8.47049 0.896549C8.4419 0.842728 8.40298 0.795078 8.35597 0.7563C8.30896 0.717522 8.25477 0.688397 8.1965 0.670566C8.13823 0.652735 8.07702 0.646567 8.01636 0.652397C7.9557 0.658228 7.89679 0.675942 7.84298 0.704546C7.78917 0.73315 7.74152 0.772018 7.70275 0.819041C7.66398 0.866064 7.63484 0.920317 7.61701 0.9786C7.59918 1.03688 7.59301 1.09809 7.59883 1.15876L7.81835 3.44443L6.04846 2.38756C5.96561 2.33803 5.86877 2.31715 5.77287 2.32814C5.67484 2.33751 5.58233 2.37782 5.50872 2.44325C5.43511 2.50868 5.38422 2.59584 5.36341 2.69211C5.34261 2.78839 5.35297 2.88878 5.39299 2.97877C5.433 3.06877 5.50061 3.14372 5.58602 3.19274L7.92226 4.52649L8.07873 6.15563L5.41409 4.59577C5.3267 4.54654 5.22599 4.52614 5.12634 4.53752C5.06989 4.54775 5.01617 4.56958 4.96858 4.60161C4.92098 4.63364 4.88053 4.67524 4.84979 4.72368C4.84979 4.72368 4.8603 4.83307 4.8673 4.90602C4.87431 4.97897 4.75159 4.97852 4.7586 5.05147L5.32376 8.12597L3.82336 7.44806L3.32338 4.79673C3.30038 4.68397 3.23632 4.58379 3.14364 4.51561C3.05095 4.44743 2.93624 4.41613 2.82177 4.42777C2.70249 4.45167 2.59737 4.52149 2.52902 4.62215C2.46068 4.72281 2.43459 4.84624 2.45637 4.96595L2.83252 6.96663L0.741456 6.01423C0.668044 5.97834 0.585669 5.96493 0.504662 5.97566C0.423005 5.98202 0.344612 6.01043 0.277865 6.05791C0.211118 6.10539 0.15853 6.17014 0.125724 6.2452C0.0776657 6.35786 0.0748465 6.48468 0.117843 6.59937C0.16084 6.71405 0.246346 6.80777 0.356613 6.86104L2.45984 7.81226L0.693974 8.84088C0.640133 8.86966 0.592873 8.90933 0.555209 8.95738C0.517544 9.00544 0.490296 9.06086 0.475205 9.12003C0.460114 9.17919 0.45751 9.24088 0.467556 9.3011C0.477602 9.36133 0.500081 9.41877 0.533558 9.46983C0.59462 9.57583 0.695058 9.65345 0.813028 9.68577C0.930998 9.71809 1.05696 9.70251 1.16351 9.64242L3.48714 8.29019L4.97539 8.96927L2.28428 10.4549C2.28428 10.4549 2.29129 10.5278 2.29362 10.5522C2.29596 10.5765 2.14776 10.5662 2.12414 10.7035C2.10052 10.8407 2.19542 10.8071 2.21458 10.8788C2.23374 10.9506 2.11686 11.0109 2.16033 11.0803C2.20381 11.1498 2.26973 11.0699 2.33634 11.1248C2.40295 11.1798 2.34919 11.2585 2.41347 11.2892L5.3381 12.2351L4.00632 13.1851L1.46667 12.2882C1.40125 12.2827 1.33538 12.289 1.27219 12.3068C1.18423 12.3132 1.10023 12.3459 1.03111 12.4007C0.961991 12.4555 0.910943 12.5298 0.884598 12.614C0.861451 12.6705 0.850322 12.7312 0.851922 12.7922C0.853522 12.8533 0.867816 12.9133 0.893891 12.9686C0.919967 13.0238 0.957253 13.0729 1.00337 13.1129C1.0495 13.1529 1.10344 13.1829 1.16177 13.2009L3.09228 13.8865L1.20857 15.2209C1.11046 15.2942 1.04434 15.4025 1.02396 15.5233C1.00358 15.6441 1.03049 15.7681 1.09911 15.8695C1.17239 15.9677 1.28064 16.0338 1.40139 16.0542C1.52214 16.0746 1.64611 16.0476 1.74753 15.979L3.61792 14.6335L3.62942 16.6692C3.63366 16.7913 3.68348 16.9074 3.76906 16.9946C3.85464 17.0817 3.96977 17.1337 4.09174 17.1401C4.21562 17.1354 4.33307 17.0838 4.42028 16.9956C4.50749 16.9075 4.55794 16.7895 4.56139 16.6656L4.54879 13.9796L5.8794 13.0174L5.85878 16.1236C5.86462 16.1844 5.96303 16.1873 5.99318 16.2457C6.02333 16.3042 5.93192 16.3743 6.01069 16.4281C6.08946 16.4819 6.13224 16.4164 6.20517 16.4094C6.27811 16.4024 6.21918 16.5553 6.34074 16.5436C6.46229 16.532 6.41765 16.4504 6.47609 16.4202C6.53453 16.39 6.60465 16.4815 6.65842 16.4027L8.97745 14.3638L9.13391 15.9929L7.09425 17.7473C7.04812 17.7871 7.0103 17.8357 6.98294 17.8902C6.95559 17.9447 6.93924 18.004 6.93483 18.0648C6.93041 18.1257 6.93802 18.1868 6.95723 18.2447C6.97643 18.3026 7.00684 18.3561 7.04673 18.4022C7.08562 18.4498 7.1338 18.4889 7.18832 18.5172C7.24285 18.5456 7.30259 18.5624 7.36388 18.5669C7.42516 18.5713 7.48671 18.5632 7.54476 18.543C7.6028 18.5229 7.65613 18.4911 7.70147 18.4497L9.23783 17.075L9.45851 19.3728C9.47028 19.4953 9.53023 19.6081 9.62518 19.6865C9.72012 19.7648 9.84228 19.8022 9.96478 19.7904C10.0873 19.7786 10.2001 19.7187 10.2784 19.6237C10.3567 19.5288 10.3941 19.4065 10.3823 19.284L10.1616 16.9862L11.9315 18.0431C11.9839 18.0751 12.0423 18.0962 12.1031 18.1049C12.164 18.1137 12.2259 18.1099 12.2853 18.0939C12.3446 18.0778 12.4 18.0499 12.4481 18.0117C12.4963 17.9735 12.5361 17.9258 12.5652 17.8717C12.5956 17.8188 12.6153 17.7605 12.6231 17.7001C12.631 17.6396 12.6268 17.5782 12.6109 17.5193C12.595 17.4604 12.5677 17.4053 12.5304 17.357C12.4932 17.3087 12.4468 17.2683 12.394 17.2379L10.0577 15.9041L9.90125 14.275L12.474 16.0278C12.474 16.0278 12.5956 16.016 12.6563 16.0102C12.7171 16.0043 12.741 16.1247 12.8127 16.1056C12.8845 16.0864 12.801 15.984 12.9203 15.948C13.0395 15.912 13.0783 15.9328 13.1147 15.9293C13.1512 15.9258 13.1031 15.8077 13.0972 15.7469C13.0914 15.6861 13.2118 15.6623 13.2059 15.6015L12.5945 12.556L14.0839 13.2472L14.5827 15.8864C14.5941 15.9465 14.6173 16.0038 14.6508 16.055C14.6844 16.1062 14.7277 16.1503 14.7783 16.1847C14.8288 16.2192 14.8857 16.2433 14.9456 16.2557C15.0055 16.2682 15.0673 16.2687 15.1274 16.2573C15.1876 16.2459 15.2448 16.2228 15.296 16.1892C15.3472 16.1557 15.3913 16.1123 15.4257 16.0617C15.4602 16.0111 15.4843 15.9543 15.4968 15.8944C15.5092 15.8344 15.5098 15.7727 15.4983 15.7125L15.1222 13.7118L17.2144 14.6764C17.3267 14.7274 17.4546 14.7318 17.5701 14.6885C17.6856 14.6451 17.7791 14.5577 17.8302 14.4454C17.8812 14.3331 17.8855 14.2052 17.8422 14.0897C17.7989 13.9742 17.7115 13.8806 17.5993 13.8296L15.496 12.8783L17.2607 11.8375C17.3486 11.7827 17.4156 11.7 17.4511 11.6026C17.4865 11.5053 17.4883 11.3988 17.4563 11.3003C17.4243 11.2018 17.3602 11.1168 17.2743 11.0589C17.1883 11.001 17.0855 10.9735 16.9822 10.9809C16.9168 10.9754 16.8509 10.9818 16.7877 10.9996L14.4652 12.3639L12.977 11.6848L15.6681 10.1992C15.7289 10.1934 15.6564 10.0776 15.7125 10.0231C15.7686 9.96866 15.8462 10.0103 15.8769 9.94599C15.9075 9.8817 15.8652 9.8244 15.7852 9.75846C15.7053 9.69253 15.8841 9.63856 15.8407 9.56911C15.7972 9.49967 15.7109 9.49573 15.6455 9.45294C15.58 9.41015 15.6373 9.36783 15.6361 9.35567L12.7115 8.40977L14.0433 7.45966L16.5818 8.34446C16.6978 8.38316 16.8244 8.3745 16.9341 8.32031C17.0438 8.26611 17.1276 8.17081 17.1674 8.05511C17.1905 7.99861 17.2016 7.93791 17.2 7.87687C17.1984 7.81583 17.1841 7.75577 17.1581 7.70056C17.132 7.64535 17.0947 7.59617 17.0486 7.55617C17.0025 7.51617 16.9485 7.48618 16.8902 7.46818L14.9608 6.7948L16.8446 5.46035C16.9177 5.42015 16.979 5.36138 17.0223 5.29004C17.0656 5.2187 17.0894 5.13727 17.0913 5.05383C17.0933 4.97039 17.0732 4.88793 17.0333 4.81467C16.9933 4.74141 16.9348 4.67992 16.8636 4.6364ZM3.60029 10.7456L5.92392 9.39342L7.96404 10.3261L6.19673 11.7231L3.60029 10.7456ZM8.75431 13.3177L6.69384 15.1109L6.75534 12.4301L8.5806 11.1259L8.75431 13.3177ZM8.38534 9.4759L6.38753 8.60039L5.84757 5.91608L8.2128 7.29607L8.38534 9.4759ZM9.09546 7.16224L11.1548 5.35689L11.1356 8.09496L9.30914 9.38708L9.09546 7.16224ZM9.67928 13.2411L9.46794 11.0406L11.5081 11.9733L12.0468 14.6454L9.67928 13.2411ZM14.2495 9.7343L11.9259 11.0865L9.86026 10.1439L11.6855 8.83963L14.2495 9.7343Z" fill="url(#paint0_linear_1416_3741)"/>
<defs>
<linearGradient id="paint0_linear_1416_3741" x1="2.59026" y1="-1.68212" x2="14.507" y2="-3.35678" gradientUnits="userSpaceOnUse">
<stop stop-color="#FCE7A7"/>
<stop offset="0.550108" stop-color="#F6B748"/>
<stop offset="1" stop-color="#F7B645"/>
</linearGradient>
</defs>
</svg>
