<svg width="32" height="34" viewBox="0 0 32 34" fill="none" xmlns="http://www.w3.org/2000/svg">
<path d="M30.1447 7.08359C30.0636 6.96601 29.9521 6.87267 29.8221 6.81357C29.6921 6.75447 29.5485 6.73179 29.4066 6.74803C29.2644 6.75658 29.1279 6.80691 29.0142 6.89271L25.7511 9.2173L25.731 5.66807C25.7286 5.45594 25.643 5.25328 25.4926 5.10369C25.3422 4.95409 25.1391 4.86951 24.927 4.86822C24.7272 4.8863 24.5413 4.97804 24.4053 5.12552C24.2692 5.27299 24.1929 5.46563 24.1909 5.66626L24.2149 10.3705L21.8082 12.0351L21.8462 6.64044C21.834 6.51326 21.6624 6.50832 21.6119 6.4276C21.5613 6.34689 21.7187 6.20346 21.5813 6.10969C21.5126 6.03699 21.4296 5.97929 21.3375 5.94027C21.2454 5.90126 21.1462 5.8818 21.0462 5.88304C20.8719 5.89665 20.7063 5.96493 20.5731 6.07822L16.5298 9.63297L16.257 6.79257L19.7223 3.67844C19.8522 3.56618 19.9431 3.41548 19.9817 3.24815C20.0204 3.08082 20.0048 2.90552 19.9372 2.74764C19.8696 2.58977 19.7536 2.45749 19.6059 2.36994C19.4582 2.28238 19.2865 2.24414 19.1156 2.26067C18.9478 2.27369 18.789 2.34154 18.6636 2.45382L15.985 4.85053L15.6022 0.865535C15.5921 0.759756 15.5612 0.656974 15.5113 0.563137C15.4615 0.4693 15.3936 0.386222 15.3117 0.318612C15.2297 0.251003 15.1352 0.200224 15.0336 0.169135C14.932 0.138047 14.8253 0.127293 14.7195 0.137458C14.6138 0.147623 14.5111 0.178508 14.4173 0.228379C14.3234 0.278251 14.2404 0.346017 14.1728 0.428002C14.1052 0.509987 14.0544 0.604578 14.0233 0.706195C13.9922 0.807812 13.9814 0.914517 13.9916 1.0203L14.3743 5.00539L11.2885 3.16272C11.1441 3.07637 10.9752 3.03996 10.808 3.05913C10.6371 3.07545 10.4758 3.14574 10.3475 3.25982C10.2191 3.3739 10.1304 3.52586 10.0941 3.69371C10.0578 3.86157 10.0759 4.0366 10.1457 4.19351C10.2155 4.35042 10.3333 4.48109 10.4822 4.56656L14.5555 6.89196L14.8283 9.73236L10.1825 7.01275C10.0301 6.92691 9.85453 6.89135 9.68078 6.9112C9.58236 6.92903 9.4887 6.96709 9.40572 7.02293C9.32273 7.07878 9.25221 7.1513 9.19861 7.23576C9.19861 7.23576 9.21693 7.42649 9.22915 7.55367C9.24136 7.68085 9.0274 7.68008 9.03962 7.80726L10.025 13.1677L7.40903 11.9857L6.5373 7.36312C6.49721 7.16653 6.38553 6.99186 6.22393 6.87299C6.06232 6.75412 5.86233 6.69954 5.66276 6.71984C5.45479 6.76151 5.2715 6.88323 5.15234 7.05873C5.03319 7.23423 4.9877 7.44944 5.02567 7.65815L5.68149 11.1464L2.03571 9.48584C1.90772 9.42327 1.7641 9.39989 1.62286 9.41859C1.48049 9.42968 1.34381 9.47921 1.22744 9.56199C1.11107 9.64477 1.01938 9.75766 0.962181 9.88854C0.878392 10.085 0.873476 10.3061 0.948441 10.506C1.02341 10.706 1.17249 10.8694 1.36474 10.9623L5.03172 12.6207L1.95293 14.4141C1.85906 14.4643 1.77666 14.5335 1.71099 14.6172C1.64532 14.701 1.59781 14.7977 1.5715 14.9008C1.54519 15.004 1.54065 15.1115 1.55817 15.2165C1.57568 15.3215 1.61488 15.4217 1.67324 15.5107C1.7797 15.6955 1.95482 15.8308 2.1605 15.8872C2.36618 15.9435 2.58579 15.9164 2.77156 15.8116L6.82284 13.454L9.4176 14.638L4.72563 17.2283C4.72563 17.2283 4.73785 17.3553 4.74192 17.3977C4.74599 17.4401 4.48761 17.4222 4.44643 17.6615C4.40524 17.9008 4.5707 17.8422 4.60411 17.9673C4.63752 18.0925 4.43374 18.1975 4.50954 18.3186C4.58533 18.4397 4.70026 18.3004 4.8164 18.3962C4.93254 18.492 4.8388 18.6293 4.95088 18.6827L10.05 20.3319L7.72802 21.9883L3.30013 20.4245C3.18606 20.415 3.07123 20.4259 2.96105 20.457C2.8077 20.4681 2.66124 20.5252 2.54073 20.6207C2.42022 20.7162 2.33122 20.8458 2.28528 20.9926C2.24493 21.0911 2.22552 21.1969 2.22831 21.3033C2.2311 21.4098 2.25602 21.5145 2.30149 21.6107C2.34695 21.707 2.41196 21.7927 2.49237 21.8625C2.57278 21.9322 2.66683 21.9844 2.76854 22.0158L6.13439 23.2111L2.85013 25.5377C2.67907 25.6655 2.5638 25.8544 2.52826 26.065C2.49272 26.2756 2.53965 26.4917 2.65929 26.6686C2.78705 26.8397 2.97579 26.955 3.18632 26.9905C3.39685 27.0261 3.61298 26.9791 3.78982 26.8594L7.05085 24.5136L7.07089 28.0629C7.07828 28.2757 7.16514 28.4782 7.31435 28.6301C7.46356 28.7821 7.66429 28.8726 7.87696 28.8839C8.09294 28.8756 8.29771 28.7856 8.44976 28.632C8.60182 28.4783 8.68977 28.2726 8.69579 28.0565L8.67381 23.3736L10.9937 21.6959L10.9578 27.1117C10.968 27.2176 11.1396 27.2226 11.1921 27.3245C11.2447 27.4264 11.0853 27.5487 11.2226 27.6425C11.36 27.7363 11.4346 27.6221 11.5617 27.6099C11.6889 27.5977 11.5862 27.8643 11.7981 27.8439C12.01 27.8235 11.9322 27.6813 12.0341 27.6287C12.136 27.5761 12.2582 27.7355 12.352 27.5981L16.3952 24.0434L16.668 26.8838L13.1118 29.9424C13.0314 30.012 12.9655 30.0966 12.9178 30.1916C12.8701 30.2867 12.8416 30.3901 12.8339 30.4962C12.8262 30.6022 12.8395 30.7088 12.8729 30.8097C12.9064 30.9106 12.9594 31.0039 13.029 31.0843C13.0968 31.1673 13.1808 31.2355 13.2759 31.2849C13.3709 31.3343 13.4751 31.3637 13.5819 31.3714C13.6888 31.3792 13.7961 31.365 13.8973 31.3299C13.9985 31.2947 14.0915 31.2394 14.1705 31.1671L16.8492 28.7704L17.2339 32.7765C17.2545 32.9901 17.359 33.1869 17.5245 33.3234C17.6901 33.46 17.903 33.5252 18.1166 33.5047C18.3302 33.4842 18.5269 33.3796 18.6634 33.2141C18.7999 33.0485 18.8651 32.8354 18.8446 32.6218L18.4598 28.6155L21.5456 30.4582C21.637 30.5141 21.7388 30.5508 21.8449 30.5661C21.9509 30.5813 22.059 30.5747 22.1624 30.5467C22.2658 30.5188 22.3624 30.47 22.4464 30.4034C22.5303 30.3368 22.5998 30.2538 22.6505 30.1594C22.7035 30.0672 22.7378 29.9656 22.7515 29.8602C22.7651 29.7547 22.7579 29.6476 22.7302 29.545C22.7024 29.4424 22.6547 29.3462 22.5898 29.262C22.5249 29.1779 22.4441 29.1073 22.3519 29.0544L18.2787 26.7289L18.0059 23.8885L22.4915 26.9445C22.4915 26.9445 22.7034 26.924 22.8094 26.9138C22.9153 26.9036 22.9569 27.1135 23.082 27.0801C23.2071 27.0467 23.0617 26.8682 23.2695 26.8055C23.4774 26.7427 23.545 26.779 23.6086 26.7729C23.6722 26.7668 23.5882 26.5608 23.5781 26.4549C23.5679 26.3489 23.7778 26.3074 23.7676 26.2014L22.7015 20.8914L25.2983 22.0965L26.168 26.698C26.1879 26.8029 26.2283 26.9028 26.2868 26.992C26.3453 27.0813 26.4208 27.1581 26.509 27.2181C26.5971 27.2782 26.6963 27.3202 26.8008 27.342C26.9052 27.3637 27.0129 27.3646 27.1178 27.3447C27.2226 27.3248 27.3225 27.2845 27.4117 27.226C27.5009 27.1675 27.5777 27.0919 27.6378 27.0037C27.6978 26.9155 27.7399 26.8164 27.7616 26.7119C27.7834 26.6074 27.7843 26.4997 27.7644 26.3949L27.1086 22.9067L30.7564 24.5883C30.9522 24.6773 31.1752 24.6849 31.3766 24.6094C31.5779 24.5339 31.741 24.3814 31.8299 24.1856C31.9189 23.9899 31.9265 23.7668 31.851 23.5654C31.7755 23.364 31.6231 23.2009 31.4274 23.1119L27.7604 21.4535L30.8372 19.6388C30.9904 19.5431 31.1072 19.399 31.169 19.2293C31.2308 19.0595 31.234 18.8739 31.1781 18.7021C31.1223 18.5303 31.0105 18.3822 30.8607 18.2813C30.7109 18.1804 30.5317 18.1324 30.3515 18.1452C30.2374 18.1357 30.1226 18.1467 30.0124 18.1778L25.9632 20.5566L23.3684 19.3726L28.0604 16.7824C28.1663 16.7722 28.04 16.5704 28.1378 16.4754C28.2357 16.3804 28.371 16.453 28.4244 16.3409C28.4778 16.2288 28.404 16.1289 28.2646 16.0139C28.1253 15.899 28.4371 15.8049 28.3613 15.6838C28.2855 15.5627 28.1351 15.5559 28.021 15.4813C27.9069 15.4066 28.0067 15.3329 28.0047 15.3117L22.9056 13.6625L25.2275 12.006L29.6534 13.5486C29.8557 13.6161 30.0765 13.601 30.2677 13.5065C30.4589 13.412 30.605 13.2458 30.6743 13.0441C30.7147 12.9456 30.7341 12.8398 30.7313 12.7334C30.7285 12.6269 30.7036 12.5222 30.6581 12.426C30.6127 12.3297 30.5477 12.244 30.4673 12.1742C30.3869 12.1045 30.2928 12.0522 30.1911 12.0208L26.8273 10.8468L30.1115 8.52015C30.239 8.45007 30.3459 8.3476 30.4214 8.22321C30.4969 8.09883 30.5384 7.95686 30.5418 7.81138C30.5452 7.6659 30.5102 7.52213 30.4405 7.3944C30.3709 7.26667 30.2688 7.15947 30.1447 7.08359ZM7.0201 17.735L11.0714 15.3775L14.6283 17.0037L11.547 19.4392L7.0201 17.735ZM16.0062 22.2195L12.4137 25.3459L12.5209 20.6719L15.7033 18.398L16.0062 22.2195ZM15.3629 15.5213L11.8797 13.9948L10.9383 9.31471L15.062 11.7207L15.3629 15.5213ZM16.601 11.4874L20.1914 8.33976L20.1579 13.1136L16.9735 15.3664L16.601 11.4874ZM17.6189 22.0859L17.2504 18.2493L20.8073 19.8755L21.7467 24.5344L17.6189 22.0859ZM25.587 15.9718L21.5358 18.3293L17.9344 16.686L21.1168 14.4119L25.587 15.9718Z" fill="url(#paint0_linear_1416_3736)"/>
<defs>
<linearGradient id="paint0_linear_1416_3736" x1="5.25912" y1="-3.93279" x2="26.0359" y2="-6.85256" gradientUnits="userSpaceOnUse">
<stop stop-color="#FCE7A7"/>
<stop offset="0.550108" stop-color="#F6B748"/>
<stop offset="1" stop-color="#F7B645"/>
</linearGradient>
</defs>
</svg>
