<svg width="13" height="14" viewBox="0 0 13 14" fill="none" xmlns="http://www.w3.org/2000/svg">
<path d="M11.9441 3.01729C11.911 2.96932 11.8655 2.93124 11.8125 2.90713C11.7594 2.88301 11.7009 2.87376 11.643 2.88039C11.585 2.88387 11.5293 2.90441 11.4828 2.93941L10.1516 3.88777L10.1434 2.4398C10.1424 2.35325 10.1075 2.27057 10.0462 2.20954C9.9848 2.14851 9.90194 2.11401 9.81542 2.11348C9.73391 2.12086 9.65805 2.15828 9.60256 2.21845C9.54706 2.27862 9.5159 2.3572 9.51511 2.43906L9.5249 4.35824L8.54302 5.03737L8.55853 2.83649C8.55354 2.78461 8.48354 2.78259 8.46293 2.74966C8.44232 2.71673 8.5065 2.65822 8.45047 2.61997C8.42245 2.5903 8.38858 2.56676 8.35101 2.55085C8.31343 2.53493 8.27297 2.52699 8.23217 2.5275C8.16104 2.53305 8.09348 2.56091 8.03913 2.60713L6.38961 4.05736L6.27831 2.89856L7.69205 1.62809C7.74505 1.58229 7.78212 1.52081 7.79788 1.45254C7.81364 1.38428 7.80728 1.31276 7.77972 1.24835C7.75216 1.18394 7.70482 1.12997 7.64457 1.09425C7.58431 1.05854 7.51425 1.04294 7.44453 1.04968C7.37608 1.05499 7.31128 1.08267 7.26013 1.12848L6.16732 2.10626L6.01118 0.480504C6.00703 0.43735 5.99443 0.395418 5.97409 0.357135C5.95375 0.318852 5.92607 0.284959 5.89263 0.257376C5.85919 0.229794 5.82065 0.209077 5.7792 0.196394C5.73775 0.183711 5.69421 0.179323 5.65107 0.18347C5.60792 0.187618 5.56602 0.200218 5.52774 0.220564C5.48947 0.24091 5.45557 0.268557 5.428 0.302004C5.40042 0.335451 5.37969 0.374041 5.36701 0.415498C5.35433 0.456955 5.34994 0.500487 5.35408 0.543642L5.51022 2.16944L4.25131 1.41769C4.19238 1.38246 4.12349 1.3676 4.05528 1.37543C3.98555 1.38209 3.91975 1.41076 3.86739 1.4573C3.81503 1.50384 3.77883 1.56584 3.76403 1.63432C3.74923 1.7028 3.7566 1.7742 3.78507 1.83822C3.81353 1.90223 3.86162 1.95554 3.92237 1.99041L5.58414 2.93911L5.69543 4.09791L3.80008 2.98838C3.73792 2.95336 3.66629 2.93886 3.5954 2.94695C3.55525 2.95423 3.51704 2.96976 3.48319 2.99254C3.44933 3.01532 3.42056 3.04491 3.39869 3.07937C3.39869 3.07937 3.40617 3.15718 3.41115 3.20906C3.41613 3.26095 3.32884 3.26063 3.33383 3.31252L3.73583 5.49941L2.66859 5.01721L2.31296 3.13133C2.2966 3.05112 2.25104 2.97986 2.18511 2.93137C2.11918 2.88287 2.03759 2.86061 1.95617 2.86889C1.87133 2.88589 1.79655 2.93555 1.74793 3.00715C1.69932 3.07874 1.68077 3.16654 1.69626 3.25169L1.96381 4.67477L0.476442 3.99733C0.424224 3.97181 0.365631 3.96227 0.308011 3.9699C0.249928 3.97442 0.194168 3.99463 0.146691 4.0284C0.0992141 4.06217 0.0618078 4.10823 0.0384729 4.16162C0.00428937 4.24175 0.00228406 4.33196 0.0328674 4.41354C0.0634508 4.49511 0.124271 4.56177 0.202704 4.59966L1.69873 5.27627L0.442668 6.00792C0.404371 6.02839 0.370756 6.05661 0.343965 6.09079C0.317174 6.12497 0.297792 6.1644 0.287058 6.20648C0.276324 6.24856 0.274472 6.29244 0.281618 6.33528C0.288764 6.37812 0.304753 6.41897 0.328565 6.45529C0.371998 6.53069 0.44344 6.58591 0.527351 6.60889C0.611263 6.63188 0.700857 6.6208 0.776646 6.57806L2.42945 5.61622L3.48803 6.09925L1.57385 7.15601C1.57385 7.15601 1.57883 7.20786 1.5805 7.22515C1.58216 7.24245 1.47674 7.23515 1.45994 7.33277C1.44314 7.43039 1.51064 7.40646 1.52427 7.45752C1.5379 7.50857 1.45477 7.55145 1.48569 7.60084C1.51661 7.65023 1.5635 7.59339 1.61088 7.63248C1.65826 7.67156 1.62002 7.72759 1.66574 7.74938L3.74603 8.4222L2.79874 9.09797L0.992286 8.45997C0.94575 8.4561 0.8989 8.46057 0.853952 8.47323C0.791389 8.47779 0.73164 8.50107 0.682474 8.54003C0.633308 8.579 0.596998 8.63186 0.578259 8.69174C0.561794 8.73193 0.553878 8.7751 0.555017 8.81852C0.556155 8.86194 0.566322 8.90466 0.584869 8.94393C0.603416 8.9832 0.629938 9.01818 0.662744 9.04664C0.69555 9.07509 0.733921 9.09638 0.775413 9.10918L2.14858 9.59684L0.8087 10.546C0.738913 10.5982 0.691885 10.6752 0.677386 10.7611C0.662888 10.847 0.682033 10.9352 0.730843 11.0074C0.782967 11.0772 0.859966 11.1242 0.945855 11.1387C1.03174 11.1532 1.11992 11.134 1.19206 11.0852L2.52247 10.1282L2.53065 11.5762C2.53366 11.6631 2.5691 11.7456 2.62997 11.8076C2.69084 11.8696 2.77274 11.9066 2.8595 11.9112C2.94761 11.9078 3.03115 11.8711 3.09318 11.8084C3.15522 11.7457 3.1911 11.6618 3.19356 11.5736L3.18459 9.66312L4.13105 8.97867L4.11639 11.1881C4.12054 11.2314 4.19054 11.2334 4.21198 11.275C4.23343 11.3166 4.16841 11.3665 4.22444 11.4047C4.28047 11.443 4.3109 11.3964 4.36278 11.3914C4.41465 11.3864 4.37274 11.4952 4.4592 11.4869C4.54566 11.4786 4.51391 11.4205 4.55548 11.3991C4.59705 11.3776 4.64692 11.4427 4.68517 11.3866L6.33469 9.93637L6.44598 11.0952L4.99517 12.343C4.96236 12.3714 4.93546 12.4059 4.916 12.4447C4.89654 12.4834 4.88491 12.5257 4.88177 12.5689C4.87864 12.6122 4.88405 12.6557 4.89771 12.6968C4.91137 12.738 4.933 12.7761 4.96138 12.8089C4.98903 12.8427 5.0233 12.8706 5.06209 12.8907C5.10088 12.9109 5.14337 12.9228 5.18696 12.926C5.23055 12.9292 5.27433 12.9234 5.31562 12.909C5.35691 12.8947 5.39484 12.8721 5.42709 12.8426L6.5199 11.8648L6.67687 13.4992C6.68524 13.5864 6.72788 13.6667 6.79542 13.7224C6.86295 13.7781 6.94984 13.8047 7.03698 13.7963C7.12411 13.7879 7.20436 13.7453 7.26005 13.6777C7.31575 13.6102 7.34234 13.5233 7.33397 13.4361L7.177 11.8017L8.43591 12.5534C8.47319 12.5762 8.51473 12.5912 8.55799 12.5974C8.60125 12.6037 8.64533 12.601 8.68752 12.5896C8.72972 12.5781 8.76914 12.5582 8.80338 12.5311C8.83762 12.5039 8.86597 12.47 8.88668 12.4315C8.90829 12.3939 8.92228 12.3525 8.92786 12.3095C8.93343 12.2664 8.93048 12.2227 8.91916 12.1809C8.90785 12.139 8.8884 12.0998 8.86192 12.0654C8.83544 12.0311 8.80245 12.0023 8.76484 11.9807L7.10308 11.032L6.99179 9.8732L8.82179 11.1199C8.82179 11.1199 8.90825 11.1116 8.95148 11.1074C8.99471 11.1033 9.01166 11.1889 9.06271 11.1753C9.11375 11.1616 9.0544 11.0888 9.1392 11.0632C9.224 11.0376 9.2516 11.0524 9.27754 11.0499C9.30347 11.0474 9.26923 10.9634 9.26508 10.9202C9.26093 10.8769 9.34655 10.86 9.3424 10.8168L8.90748 8.65048L9.9669 9.14211L10.3217 11.0194C10.3298 11.0622 10.3463 11.1029 10.3701 11.1393C10.394 11.1757 10.4248 11.2071 10.4608 11.2316C10.4968 11.2561 10.5372 11.2732 10.5798 11.2821C10.6225 11.291 10.6664 11.2913 10.7092 11.2832C10.7519 11.2751 10.7927 11.2587 10.8291 11.2348C10.8655 11.2109 10.8968 11.1801 10.9213 11.1441C10.9458 11.1081 10.963 11.0677 10.9719 11.0251C10.9807 10.9824 10.9811 10.9385 10.973 10.8957L10.7054 9.47263L12.1936 10.1587C12.2735 10.195 12.3645 10.1981 12.4466 10.1673C12.5288 10.1365 12.5953 10.0743 12.6316 9.99442C12.6679 9.91454 12.671 9.82353 12.6402 9.74138C12.6094 9.65923 12.5472 9.59268 12.4674 9.55637L10.9714 8.87977L12.2266 8.13943C12.2891 8.10041 12.3367 8.04162 12.362 7.97236C12.3872 7.90311 12.3885 7.82739 12.3657 7.7573C12.3429 7.68721 12.2973 7.62678 12.2362 7.58561C12.1751 7.54444 12.1019 7.52486 12.0284 7.53008C11.9819 7.52621 11.9351 7.53072 11.8901 7.54338L10.2381 8.51386L9.17955 8.03083L11.0937 6.97412C11.137 6.96996 11.0854 6.88761 11.1253 6.84886C11.1652 6.81011 11.2204 6.83972 11.2422 6.79399C11.264 6.74826 11.2339 6.7075 11.1771 6.6606C11.1202 6.6137 11.2474 6.57531 11.2165 6.52591C11.1856 6.47652 11.1242 6.47372 11.0777 6.44328C11.0311 6.41285 11.0718 6.38274 11.071 6.37409L8.99072 5.70127L9.93802 5.02546L11.7436 5.65482C11.8262 5.68234 11.9162 5.67619 11.9942 5.63764C12.0722 5.59909 12.1319 5.5313 12.1602 5.44901C12.1766 5.40882 12.1845 5.36564 12.1834 5.32223C12.1823 5.27881 12.1721 5.23609 12.1535 5.19682C12.135 5.15755 12.1085 5.12257 12.0757 5.09411C12.0429 5.06566 12.0045 5.04433 11.963 5.03153L10.5907 4.55255L11.9305 3.60336C11.9826 3.57477 12.0262 3.53296 12.057 3.48222C12.0878 3.43147 12.1047 3.37355 12.1061 3.3142C12.1074 3.25485 12.0932 3.1962 12.0648 3.14409C12.0363 3.09198 11.9947 3.04824 11.9441 3.01729ZM2.50992 7.36275L4.16272 6.40095L5.61385 7.06439L4.35677 8.05802L2.50992 7.36275ZM6.17597 9.1923L4.71036 10.4678L4.7541 8.56091L6.05241 7.63323L6.17597 9.1923ZM5.91352 6.45961L4.49248 5.83686L4.10841 3.92752L5.7908 4.9091L5.91352 6.45961ZM6.41863 4.81391L7.88341 3.52977L7.86976 5.47735L6.57062 6.39643L6.41863 4.81391ZM6.8339 9.1378L6.68358 7.57255L8.1347 8.23599L8.51794 10.1367L6.8339 9.1378ZM10.0847 6.64341L8.43188 7.60521L6.96263 6.93479L8.26094 6.00703L10.0847 6.64341Z" fill="url(#paint0_linear_1416_3739)"/>
<defs>
<linearGradient id="paint0_linear_1416_3739" x1="1.79149" y1="-1.47707" x2="10.2678" y2="-2.66825" gradientUnits="userSpaceOnUse">
<stop stop-color="#FCE7A7"/>
<stop offset="0.550108" stop-color="#F6B748"/>
<stop offset="1" stop-color="#F7B645"/>
</linearGradient>
</defs>
</svg>
