<svg width="30" height="31" viewBox="0 0 30 31" fill="none" xmlns="http://www.w3.org/2000/svg">
<path d="M27.6928 6.44717C27.6181 6.33884 27.5154 6.25285 27.3957 6.19841C27.2759 6.14396 27.1436 6.12307 27.0129 6.13803C26.8819 6.1459 26.7561 6.19227 26.6513 6.27132L23.6451 8.41289L23.6267 5.14309C23.6244 4.94767 23.5455 4.76096 23.407 4.62314C23.2685 4.48533 23.0813 4.4074 22.8859 4.40621C22.7019 4.42287 22.5306 4.50739 22.4053 4.64325C22.28 4.77912 22.2096 4.95659 22.2078 5.14142L22.2299 9.47527L20.0127 11.0089L20.0477 6.03891C20.0364 5.92174 19.8783 5.91719 19.8318 5.84283C19.7852 5.76847 19.9302 5.63633 19.8037 5.54995C19.7404 5.48296 19.6639 5.42981 19.579 5.39386C19.4942 5.35792 19.4028 5.33999 19.3107 5.34114C19.1501 5.35368 18.9975 5.41658 18.8748 5.52095L15.1499 8.79584L14.8985 6.17906L18.091 3.31011C18.2107 3.20668 18.2944 3.06785 18.33 2.9137C18.3656 2.75954 18.3512 2.59804 18.289 2.45259C18.2267 2.30715 18.1199 2.18528 17.9838 2.10462C17.8477 2.02396 17.6895 1.98873 17.5321 2.00396C17.3775 2.01596 17.2312 2.07846 17.1157 2.1819L14.6479 4.38991L14.2953 0.718662C14.2859 0.621211 14.2575 0.526521 14.2116 0.440071C14.1656 0.353622 14.1031 0.277084 14.0276 0.214798C13.9521 0.152512 13.865 0.10573 13.7715 0.0770894C13.6779 0.0484484 13.5795 0.0385413 13.4821 0.047906C13.3847 0.0572708 13.29 0.0857243 13.2036 0.131669C13.1172 0.177614 13.0406 0.240045 12.9784 0.315576C12.9161 0.391106 12.8693 0.478249 12.8407 0.571866C12.812 0.665483 12.8021 0.763787 12.8115 0.861238L13.164 4.53258L10.3212 2.83499C10.1881 2.75544 10.0326 2.72189 9.87853 2.73955C9.72107 2.75459 9.57247 2.81934 9.45423 2.92444C9.336 3.02955 9.25426 3.16954 9.22084 3.32418C9.18742 3.47882 9.20406 3.64007 9.26834 3.78462C9.33262 3.92918 9.44121 4.04957 9.5784 4.1283L13.331 6.27063L13.5823 8.8874L9.30223 6.3819C9.16186 6.30282 9.00011 6.27007 8.84004 6.28835C8.74937 6.30477 8.66309 6.33984 8.58663 6.39129C8.51018 6.44273 8.44521 6.50955 8.39583 6.58736C8.39583 6.58736 8.41271 6.76307 8.42397 6.88024C8.43522 6.99741 8.2381 6.99669 8.24936 7.11386L9.15714 12.0522L6.74714 10.9634L5.94405 6.70469C5.90711 6.52358 5.80422 6.36266 5.65535 6.25315C5.50647 6.14364 5.32222 6.09335 5.13836 6.11206C4.94677 6.15044 4.7779 6.26259 4.66813 6.42427C4.55835 6.58595 4.51645 6.78422 4.55143 6.97649L5.15562 10.1901L1.79687 8.66029C1.67895 8.60264 1.54664 8.58111 1.41652 8.59833C1.28536 8.60855 1.15944 8.65418 1.05223 8.73045C0.945022 8.80671 0.860552 8.91071 0.807858 9.03128C0.730665 9.21224 0.726137 9.41595 0.7952 9.60016C0.864262 9.78437 1.00161 9.9349 1.17872 10.0205L4.557 11.5484L1.7206 13.2006C1.63412 13.2468 1.55821 13.3105 1.49771 13.3877C1.43722 13.4649 1.39345 13.5539 1.36921 13.6489C1.34497 13.744 1.34079 13.8431 1.35692 13.9398C1.37306 14.0365 1.40917 14.1288 1.46294 14.2108C1.56102 14.3811 1.72235 14.5058 1.91183 14.5577C2.10132 14.6096 2.30364 14.5845 2.47479 14.488L6.2071 12.316L8.59758 13.4068L4.27501 15.7931C4.27501 15.7931 4.28627 15.9102 4.29002 15.9493C4.29377 15.9883 4.05573 15.9719 4.01779 16.1923C3.97985 16.4127 4.13228 16.3587 4.16306 16.474C4.19384 16.5893 4.0061 16.6861 4.07593 16.7977C4.14575 16.9092 4.25164 16.7808 4.35864 16.8691C4.46563 16.9574 4.37927 17.0839 4.48252 17.1331L9.18019 18.6524L7.04102 20.1784L2.96174 18.7377C2.85665 18.729 2.75086 18.7391 2.64936 18.7677C2.50808 18.778 2.37315 18.8305 2.26213 18.9185C2.1511 19.0065 2.06911 19.1259 2.02679 19.2611C1.98961 19.3519 1.97174 19.4494 1.97431 19.5474C1.97688 19.6454 1.99984 19.7419 2.04172 19.8306C2.0836 19.9193 2.14349 19.9983 2.21757 20.0625C2.29166 20.1268 2.3783 20.1748 2.472 20.2038L5.57286 21.305L2.54717 23.4484C2.38958 23.5662 2.28338 23.7402 2.25064 23.9341C2.2179 24.1281 2.26113 24.3273 2.37135 24.4903C2.48906 24.6479 2.66294 24.7541 2.85689 24.7868C3.05084 24.8196 3.24996 24.7763 3.41287 24.666L6.41717 22.5049L6.43563 25.7747C6.44244 25.9709 6.52246 26.1573 6.65992 26.2974C6.79738 26.4374 6.98231 26.5207 7.17823 26.5311C7.37721 26.5235 7.56586 26.4406 7.70594 26.299C7.84602 26.1575 7.92705 25.968 7.9326 25.7689L7.91235 21.4546L10.0496 19.909L10.0165 24.8984C10.0259 24.9961 10.184 25.0006 10.2324 25.0945C10.2808 25.1884 10.134 25.3011 10.2605 25.3875C10.387 25.4739 10.4558 25.3687 10.5729 25.3574C10.6901 25.3462 10.5954 25.5918 10.7907 25.573C10.9859 25.5543 10.9142 25.4232 11.0081 25.3748C11.1019 25.3263 11.2146 25.4732 11.3009 25.3466L15.0258 22.0717L15.2772 24.6885L12.001 27.5063C11.9269 27.5704 11.8661 27.6484 11.8222 27.7359C11.7783 27.8234 11.752 27.9188 11.7449 28.0165C11.7378 28.1141 11.75 28.2123 11.7809 28.3053C11.8117 28.3983 11.8606 28.4842 11.9247 28.5583C11.9871 28.6347 12.0645 28.6976 12.1521 28.7431C12.2397 28.7886 12.3356 28.8157 12.4341 28.8228C12.5325 28.8299 12.6314 28.8169 12.7246 28.7845C12.8178 28.7521 12.9035 28.7012 12.9763 28.6345L15.4441 26.4265L15.7985 30.1173C15.8175 30.3141 15.9137 30.4954 16.0662 30.6212C16.2188 30.7469 16.415 30.8071 16.6117 30.7881C16.8085 30.7692 16.9897 30.6729 17.1155 30.5204C17.2413 30.3678 17.3013 30.1715 17.2824 29.9747L16.9279 26.2839L19.7708 27.9815C19.855 28.033 19.9488 28.0668 20.0465 28.0809C20.1442 28.0949 20.2437 28.0888 20.339 28.0631C20.4342 28.0373 20.5233 27.9924 20.6006 27.931C20.6779 27.8697 20.7419 27.7931 20.7887 27.7062C20.8375 27.6213 20.8691 27.5277 20.8817 27.4305C20.8943 27.3334 20.8876 27.2347 20.862 27.1402C20.8365 27.0456 20.7926 26.9571 20.7328 26.8795C20.673 26.802 20.5985 26.737 20.5136 26.6882L16.761 24.5458L16.5097 21.929L20.6422 24.7444C20.6422 24.7444 20.8374 24.7255 20.935 24.7162C21.0326 24.7068 21.0709 24.9002 21.1862 24.8694C21.3015 24.8386 21.1674 24.6742 21.3589 24.6163C21.5504 24.5585 21.6127 24.5919 21.6713 24.5863C21.7299 24.5807 21.6526 24.391 21.6432 24.2933C21.6338 24.1957 21.8272 24.1574 21.8178 24.0598L20.8357 19.1679L23.228 20.2781L24.0292 24.5174C24.0476 24.614 24.0847 24.706 24.1386 24.7882C24.1925 24.8704 24.2621 24.9412 24.3433 24.9965C24.4246 25.0518 24.5159 25.0906 24.6122 25.1106C24.7084 25.1306 24.8076 25.1315 24.9042 25.1131C25.0008 25.0948 25.0928 25.0577 25.175 25.0038C25.2572 24.9499 25.328 24.8802 25.3833 24.799C25.4386 24.7177 25.4774 24.6264 25.4974 24.5301C25.5174 24.4339 25.5183 24.3346 25.5 24.2381L24.8958 21.0245L28.2564 22.5738C28.4367 22.6557 28.6422 22.6628 28.8277 22.5932C29.0132 22.5236 29.1634 22.3831 29.2454 22.2028C29.3274 22.0224 29.3343 21.8169 29.2648 21.6314C29.1952 21.4459 29.0549 21.2956 28.8745 21.2136L25.4963 19.6857L28.3308 18.0139C28.4719 17.9258 28.5796 17.793 28.6365 17.6366C28.6934 17.4802 28.6964 17.3092 28.6449 17.151C28.5934 16.9927 28.4905 16.8562 28.3525 16.7633C28.2145 16.6703 28.0493 16.6261 27.8834 16.6379C27.7783 16.6291 27.6725 16.6393 27.571 16.6679L23.8405 18.8594L21.4501 17.7687L25.7726 15.3824C25.8702 15.373 25.7539 15.187 25.844 15.0995C25.9341 15.012 26.0588 15.0789 26.1079 14.9756C26.1571 14.8724 26.0892 14.7803 25.9608 14.6744C25.8324 14.5685 26.1196 14.4818 26.0498 14.3703C25.98 14.2587 25.8414 14.2524 25.7363 14.1837C25.6312 14.115 25.7232 14.047 25.7213 14.0274L21.0236 12.5081L23.1628 10.982L27.2402 12.4032C27.4266 12.4653 27.63 12.4515 27.8061 12.3644C27.9823 12.2773 28.1169 12.1243 28.1808 11.9384C28.218 11.8477 28.2358 11.7502 28.2333 11.6521C28.2307 11.5541 28.2077 11.4576 28.1659 11.3689C28.124 11.2803 28.0641 11.2013 27.99 11.137C27.9159 11.0728 27.8293 11.0246 27.7356 10.9957L24.6366 9.91407L27.6623 7.77062C27.7798 7.70606 27.8782 7.61166 27.9478 7.49707C28.0173 7.38248 28.0556 7.25168 28.0587 7.11766C28.0618 6.98364 28.0296 6.85118 27.9654 6.7335C27.9012 6.61583 27.8072 6.51707 27.6928 6.44717ZM6.38884 16.26L10.1211 14.0881L13.3981 15.5863L10.5593 17.83L6.38884 16.26ZM14.6674 20.3914L11.3578 23.2717L11.4566 18.9657L14.3884 16.8708L14.6674 20.3914ZM14.0748 14.2206L10.8658 12.8143L9.99851 8.50263L13.7976 10.7192L14.0748 14.2206ZM15.2154 10.5043L18.5231 7.60444L18.4923 12.0024L15.5586 14.0779L15.2154 10.5043ZM16.1532 20.2684L15.8137 16.7338L19.0906 18.2319L19.956 22.5241L16.1532 20.2684ZM23.494 14.6356L19.7617 16.8075L16.4438 15.2936L19.3757 13.1986L23.494 14.6356Z" fill="url(#paint0_linear_1416_3737)"/>
<defs>
<linearGradient id="paint0_linear_1416_3737" x1="4.76649" y1="-3.70189" x2="23.9075" y2="-6.39178" gradientUnits="userSpaceOnUse">
<stop stop-color="#FCE7A7"/>
<stop offset="0.550108" stop-color="#F6B748"/>
<stop offset="1" stop-color="#F7B645"/>
</linearGradient>
</defs>
</svg>
