<svg width="142" height="63" viewBox="0 0 142 63" fill="none" xmlns="http://www.w3.org/2000/svg">
<g clip-path="url(#clip0_1358_4752)">
<path d="M93.0438 48.4959H98.098C98.2385 48.4965 98.3765 48.4594 98.4978 48.3884C98.6191 48.3174 98.7191 48.215 98.7875 48.0921C98.8593 47.9697 98.8971 47.8303 98.8971 47.6883C98.8971 47.5463 98.8593 47.4069 98.7875 47.2845L89.936 32.5945H94.0144C94.1563 32.5949 94.2958 32.5573 94.4184 32.4856C94.5409 32.4138 94.6421 32.3105 94.7113 32.1864C94.7806 32.0622 94.8155 31.9218 94.8123 31.7796C94.8091 31.6374 94.768 31.4987 94.6932 31.3778L83.715 13.6063C83.6659 13.5282 83.603 13.4598 83.5294 13.4044L82.8665 9.51535L86.0486 6.41795C86.1551 6.31423 86.2305 6.18271 86.2662 6.03828C86.302 5.89385 86.2966 5.74228 86.2508 5.60073C86.205 5.45918 86.1205 5.33331 86.007 5.23737C85.8935 5.14142 85.7554 5.07924 85.6084 5.05786L81.2224 4.42031L79.2442 0.440972C79.1774 0.308229 79.075 0.196698 78.9486 0.118832C78.8222 0.0409666 78.6767 -0.000172035 78.5283 3.06489e-06C78.3805 -0.000408766 78.2356 0.0406906 78.1099 0.118638C77.9843 0.196585 77.883 0.308258 77.8176 0.440972L75.8553 4.42031L71.4747 5.05786C71.3284 5.07806 71.1906 5.13837 71.0764 5.23213C70.9622 5.32589 70.8761 5.44944 70.8276 5.58914C70.7834 5.73095 70.7788 5.88219 70.8143 6.02644C70.8498 6.17069 70.9241 6.30242 71.0292 6.40732L74.2112 9.50473L73.4794 13.7231L62.5808 31.3778C62.5105 31.5007 62.4736 31.6399 62.4736 31.7816C62.4736 31.9232 62.5105 32.0624 62.5808 32.1854C62.6493 32.3097 62.7499 32.4133 62.8722 32.4853C62.9944 32.5573 63.1337 32.595 63.2755 32.5945H67.3539L58.5024 47.2845C58.4306 47.4069 58.3927 47.5463 58.3927 47.6883C58.3927 47.8303 58.4306 47.9697 58.5024 48.0921C58.5707 48.215 58.6708 48.3174 58.7921 48.3884C58.9133 48.4594 59.0514 48.4965 59.1919 48.4959H64.2461L55.9249 61.7781C55.8504 61.8986 55.8093 62.0368 55.8059 62.1785C55.8025 62.3202 55.8369 62.4603 55.9055 62.5843C55.9741 62.7082 56.0745 62.8116 56.1963 62.8838C56.3181 62.9559 56.4569 62.9942 56.5985 62.9947H78.5548H78.6609H78.7616H100.718C100.859 62.9942 100.998 62.9559 101.12 62.8838C101.242 62.8116 101.342 62.7082 101.411 62.5843C101.48 62.4603 101.514 62.3202 101.511 62.1785C101.507 62.0368 101.466 61.8986 101.391 61.7781L93.0438 48.4959ZM73.2991 6.40201L76.4811 5.93979C76.6088 5.92129 76.73 5.87196 76.8344 5.79607C76.9389 5.72017 77.0233 5.61999 77.0804 5.50414L78.5123 2.598L79.9443 5.50414C80.0014 5.61999 80.0859 5.72017 80.1903 5.79607C80.2947 5.87196 80.4159 5.92129 80.5436 5.93979L83.7256 6.40201L81.408 8.66529C81.3145 8.75486 81.2446 8.86635 81.2048 8.98971C81.165 9.11307 81.1565 9.24442 81.18 9.3719L81.7103 12.5596L78.8465 11.0508C78.7316 10.9916 78.6043 10.9607 78.4752 10.9607C78.3461 10.9607 78.2188 10.9916 78.104 11.0508L75.2401 12.5596L75.7705 9.3719C75.794 9.24442 75.7854 9.11307 75.7456 8.98971C75.7058 8.86635 75.636 8.75486 75.5424 8.66529L73.2991 6.40201ZM78.7563 61.4008H78.6555H78.5495H58.0092L66.097 48.4959H71.1459C71.3568 48.4959 71.5592 48.4119 71.7084 48.2625C71.8575 48.113 71.9414 47.9103 71.9414 47.6989C71.9414 47.4876 71.8575 47.2849 71.7084 47.1354C71.5592 46.986 71.3568 46.902 71.1459 46.902H60.576L69.4328 32.2119C69.5021 32.0887 69.5384 31.9496 69.5384 31.8081C69.5384 31.6667 69.5021 31.5276 69.4328 31.4044C69.3628 31.2817 69.2617 31.1798 69.1396 31.1089C69.0177 31.038 68.8791 31.0007 68.7381 31.0006H64.6756L74.7893 14.6263L78.5018 12.6659L82.421 14.7273L82.5217 14.7645L92.5506 31.0006H88.5147C88.3736 31.0007 88.2351 31.038 88.1131 31.1089C87.9911 31.1798 87.89 31.2817 87.8199 31.4044C87.7497 31.5273 87.7127 31.6665 87.7127 31.8081C87.7127 31.9498 87.7497 32.089 87.8199 32.2119L96.6714 46.902H86.1175C85.9065 46.902 85.7042 46.986 85.555 47.1354C85.4058 47.2849 85.322 47.4876 85.322 47.6989C85.322 47.9103 85.4058 48.113 85.555 48.2625C85.7042 48.4119 85.9065 48.4959 86.1175 48.4959H91.1664L99.2542 61.4008H78.7563ZM79.1116 23.9504C78.8068 23.4652 78.3654 23.0814 77.843 22.8474C77.3206 22.6134 76.7406 22.5397 76.1764 22.6356C75.6123 22.7315 75.0891 22.9927 74.673 23.3862C74.2569 23.7798 73.9665 24.288 73.8385 24.8468C73.7106 25.4055 73.7507 25.9897 73.9539 26.5257C74.1572 27.0616 74.5144 27.5251 74.9804 27.8578C75.4464 28.1905 76.0004 28.3774 76.5724 28.395C77.1443 28.4125 77.7087 28.2599 78.1941 27.9563C78.8415 27.5426 79.2991 26.8891 79.467 26.1386C79.6349 25.388 79.4996 24.6013 79.0904 23.9504H79.1116ZM77.3456 26.6069C77.0525 26.7846 76.7013 26.8397 76.368 26.7602C76.0346 26.6808 75.7459 26.4731 75.5641 26.1822C75.3823 25.8912 75.3221 25.5403 75.3964 25.2052C75.4708 24.8701 75.6737 24.5778 75.9614 24.3914C76.1667 24.2583 76.4063 24.1882 76.6508 24.1895C76.935 24.188 77.2119 24.2796 77.4394 24.4502C77.6669 24.6209 77.8326 24.8613 77.9112 25.1348C77.9899 25.4084 77.9771 25.7003 77.875 25.966C77.7729 26.2317 77.5871 26.4567 77.3456 26.6069ZM86.6691 42.4126C86.7827 41.9332 86.8001 41.4358 86.7202 40.9495C86.6403 40.4633 86.4648 39.9978 86.2037 39.58C85.9427 39.1623 85.6014 38.8008 85.1996 38.5163C84.7979 38.2319 84.3437 38.0303 83.8635 37.9233C83.3849 37.8094 82.8885 37.792 82.403 37.872C81.9176 37.952 81.4529 38.1279 81.0359 38.3894C80.619 38.6509 80.2581 38.9928 79.9742 39.3953C79.6902 39.7978 79.489 40.2527 79.3821 40.7338C79.2685 41.2133 79.2511 41.7106 79.331 42.1969C79.4109 42.6831 79.5864 43.1487 79.8475 43.5664C80.1085 43.9841 80.4498 44.3457 80.8515 44.6301C81.2533 44.9145 81.7074 45.1161 82.1876 45.2231C82.4643 45.2864 82.7471 45.3185 83.0309 45.3188C83.8754 45.3156 84.6941 45.0269 85.3544 44.4995C86.0147 43.972 86.4779 43.2367 86.6691 42.4126ZM85.1205 42.0567C85.0582 42.3322 84.9416 42.5925 84.7777 42.8224C84.6138 43.0523 84.4058 43.2471 84.1658 43.3955C83.927 43.5467 83.6604 43.6485 83.3817 43.695C83.103 43.7415 82.8179 43.7318 82.543 43.6665C82.2644 43.6351 81.9947 43.549 81.7493 43.4132C81.5039 43.2774 81.2877 43.0945 81.1128 42.875C80.7597 42.4316 80.597 41.8659 80.6603 41.3022C80.6916 41.0232 80.7775 40.753 80.9131 40.5072C81.0486 40.2614 81.2312 40.0447 81.4503 39.8696C81.8929 39.5159 82.4576 39.3528 83.0203 39.4162C83.1844 39.4155 83.3481 39.4333 83.5082 39.4693C84.0587 39.6043 84.534 39.9507 84.8317 40.4338C85.1294 40.9169 85.2255 41.4979 85.0993 42.0514L85.1205 42.0567ZM72.2543 51.7686C71.6291 52.163 71.1344 52.7338 70.8324 53.4092C70.5303 54.0847 70.4346 54.8345 70.557 55.5644C70.6795 56.2942 71.0147 56.9715 71.5206 57.5109C72.0265 58.0503 72.6803 58.4277 73.3998 58.5956C73.6782 58.6592 73.9628 58.6913 74.2484 58.6913C74.8291 58.6931 75.4022 58.5593 75.9223 58.3006C76.4425 58.0419 76.8953 57.6655 77.245 57.201C77.5946 56.7365 77.8315 56.1969 77.9367 55.6248C78.042 55.0527 78.0128 54.4639 77.8515 53.905C77.6901 53.3462 77.4011 52.8327 77.0072 52.4052C76.6133 51.9778 76.1255 51.6481 75.5823 51.4423C75.0392 51.2365 74.4556 51.1603 73.878 51.2197C73.3003 51.2791 72.7444 51.4725 72.2543 51.7845V51.7686ZM75.378 56.768C75.0179 56.9945 74.5989 57.1088 74.1739 57.0965C73.7489 57.0842 73.3371 56.9459 72.9907 56.699C72.6442 56.4521 72.3788 56.1077 72.2279 55.7095C72.0769 55.3113 72.0474 54.8772 72.1429 54.4622C72.2475 53.9863 72.5121 53.5608 72.8926 53.2571C73.273 52.9534 73.746 52.7899 74.2324 52.794C74.7097 52.7705 75.1809 52.9091 75.5697 53.1873C75.9585 53.4655 76.2421 53.8671 76.3747 54.327C76.5072 54.7869 76.4809 55.2781 76.3001 55.7211C76.1192 56.1641 75.7943 56.533 75.378 56.768ZM51.5125 46.5992H47.6356C48.2274 46.0015 48.5591 45.1936 48.5584 44.3518V44.2349C48.5514 43.3852 48.2088 42.5729 47.6056 41.9755C47.0023 41.3781 46.1875 41.0444 45.3392 41.0472C44.8641 41.048 44.3947 41.152 43.9635 41.3519C43.5323 41.5518 43.1494 41.843 42.8413 42.2054C42.5298 41.8417 42.1432 41.5498 41.7084 41.3499C41.2735 41.15 40.8006 41.0467 40.3222 41.0472C39.8711 41.0444 39.4245 41.1377 39.0122 41.3208C38.5998 41.504 38.231 41.773 37.9303 42.1098V36.0956H38.0364C38.2473 36.0956 38.4497 36.0117 38.5989 35.8622C38.7481 35.7128 38.8319 35.5101 38.8319 35.2987V29.0614C38.8319 28.85 38.7481 28.6473 38.5989 28.4979C38.4497 28.3484 38.2473 28.2645 38.0364 28.2645H28.6705C29.0771 27.9092 29.4031 27.4707 29.6263 26.9785C29.8495 26.4864 29.9648 25.952 29.9645 25.4115V25.2627C29.9631 24.7643 29.8636 24.2712 29.6716 23.8114C29.4796 23.3517 29.199 22.9344 28.8457 22.5835C28.4925 22.2325 28.0736 21.9549 27.6131 21.7665C27.1526 21.578 26.6594 21.4825 26.162 21.4852C25.5617 21.4863 24.9697 21.6264 24.4324 21.8946C23.8951 22.1628 23.427 22.5518 23.0647 23.0313C22.6972 22.5496 22.2236 22.1595 21.6809 21.8913C21.1381 21.6232 20.5409 21.4842 19.9357 21.4852C18.9361 21.4867 17.9777 21.8851 17.2709 22.5932C16.564 23.3013 16.1663 24.2613 16.1649 25.2627V25.4115C16.1662 25.9489 16.2818 26.4799 16.5041 26.9691C16.7263 27.4583 17.05 27.8945 17.4537 28.2485H8.08777C7.87678 28.2485 7.67444 28.3325 7.52525 28.4819C7.37606 28.6314 7.29225 28.8341 7.29225 29.0455V35.2828C7.29225 35.4941 7.37606 35.6968 7.52525 35.8463C7.67444 35.9957 7.87678 36.0797 8.08777 36.0797H8.18854V52.3371H0.795518C0.584534 52.3371 0.382186 52.421 0.232997 52.5705C0.0838086 52.7199 0 52.9226 0 53.134V62.1659C0 62.3772 0.0838086 62.5799 0.232997 62.7294C0.382186 62.8789 0.584534 62.9628 0.795518 62.9628H51.5125C51.7234 62.9628 51.9258 62.8789 52.075 62.7294C52.2242 62.5799 52.308 62.3772 52.308 62.1659V47.4014C52.308 47.1901 52.2242 46.9874 52.075 46.8379C51.9258 46.6885 51.7234 46.6045 51.5125 46.6045V46.5992ZM45.3445 42.6305C45.7665 42.6305 46.1712 42.7984 46.4696 43.0973C46.768 43.3962 46.9356 43.8016 46.9356 44.2243V44.3412C46.9356 44.7639 46.768 45.1693 46.4696 45.4682C46.1712 45.7672 45.7665 45.9351 45.3445 45.9351H43.6209V44.304C43.6307 43.854 43.8171 43.426 44.1397 43.1127C44.4623 42.7994 44.8952 42.6262 45.3445 42.6305ZM38.6993 44.2243C38.6992 44.0119 38.7416 43.8015 38.8239 43.6057C38.9062 43.4098 39.0267 43.2324 39.1784 43.0839C39.3301 42.9354 39.5099 42.8188 39.7072 42.7409C39.9045 42.6631 40.1154 42.6255 40.3275 42.6305C40.779 42.6305 41.212 42.8101 41.5313 43.13C41.8505 43.4498 42.0299 43.8836 42.0299 44.3359V45.9669H40.3063C39.8843 45.9669 39.4796 45.799 39.1812 45.5001C38.8828 45.2012 38.7152 44.7958 38.7152 44.3731L38.6993 44.2243ZM38.0311 46.5886H37.9197V46.461L38.0311 46.5886ZM36.3234 46.5886H33.8255C33.6145 46.5886 33.4121 46.6725 33.2629 46.822C33.1137 46.9714 33.0299 47.1741 33.0299 47.3855V52.3371H26.6658V36.0797H36.3287L36.3234 46.5886ZM33.0299 61.3849H20.5615V53.9469H33.0458L33.0299 61.3849ZM18.9545 53.9469V61.3849H15.3535V53.9469H18.9545ZM25.0748 36.0956V52.353H21.479V36.0956H25.0748ZM26.1725 23.095C26.7502 23.0964 27.3038 23.327 27.7123 23.7362C28.1208 24.1454 28.3509 24.6999 28.3523 25.2786V25.4115C28.3509 25.9916 28.1202 26.5475 27.7107 26.9577C27.3013 27.3679 26.7463 27.599 26.1673 27.6004H23.839V25.4115C23.839 25.1041 23.9 24.7998 24.0185 24.5163C24.137 24.2328 24.3107 23.9758 24.5294 23.7602C24.748 23.5446 25.0073 23.3748 25.2922 23.2606C25.577 23.1464 25.8817 23.0901 26.1885 23.095H26.1725ZM17.7666 25.2786C17.768 24.9896 17.8263 24.7037 17.9384 24.4373C18.0504 24.1709 18.2138 23.9293 18.4193 23.7264C18.6248 23.5235 18.8683 23.3633 19.1358 23.2549C19.4033 23.1466 19.6896 23.0922 19.9781 23.095C20.5881 23.0964 21.1728 23.3398 21.6041 23.7719C22.0354 24.2041 22.2784 24.7897 22.2798 25.4008V27.6163H19.9516C19.6635 27.6156 19.3784 27.558 19.1126 27.4467C18.8467 27.3355 18.6054 27.1728 18.4025 26.968C18.1995 26.7632 18.0389 26.5203 17.9298 26.2532C17.8206 25.9861 17.7652 25.7001 17.7666 25.4115V25.2786ZM8.89921 29.8583H37.2568V34.5018H8.88329L8.89921 29.8583ZM9.79547 36.0956H19.872V52.353H9.79547V36.0956ZM1.60696 53.9469H13.8049V61.3849H1.60696V53.9469ZM34.6528 53.1499V48.1984H41.8973V61.4008H34.6369L34.6528 53.1499ZM50.7328 61.4008H43.4724V48.1984H50.7169L50.7328 61.4008ZM128.476 44.7503H113.096L125.787 37.2698C125.961 37.1627 126.088 36.9926 126.14 36.7948C126.192 36.597 126.167 36.3866 126.068 36.2072L122.886 30.8306C122.778 30.6488 122.603 30.5171 122.398 30.4644C122.193 30.4116 121.976 30.4421 121.794 30.549L116.49 33.6889C116.659 33.1789 116.716 32.6388 116.66 32.1047C116.603 31.5706 116.433 31.0547 116.162 30.5915L116.087 30.464C115.834 30.0352 115.499 29.6606 115.101 29.3617C114.703 29.0628 114.251 28.8455 113.769 28.7221C113.287 28.5987 112.786 28.5717 112.294 28.6427C111.801 28.7137 111.328 28.8813 110.901 29.1358C110.458 29.3943 110.071 29.7383 109.763 30.1478C109.454 30.5573 109.23 31.0242 109.103 31.5213C109.059 31.6958 109.029 31.8734 109.013 32.0525C108.453 31.8227 107.847 31.7256 107.244 31.7689C106.64 31.8122 106.055 31.9948 105.533 32.3022C105.106 32.5539 104.733 32.8875 104.434 33.2838C104.136 33.6801 103.919 34.1315 103.795 34.6121C103.67 35.0927 103.642 35.5931 103.711 36.0847C103.78 36.5763 103.945 37.0494 104.197 37.477L104.271 37.6045C104.544 38.0686 104.912 38.4687 105.352 38.7776C105.792 39.0865 106.294 39.2971 106.822 39.3949L101.487 42.5348C101.397 42.5882 101.318 42.6588 101.255 42.7427C101.193 42.8266 101.147 42.922 101.121 43.0236C101.069 43.2288 101.099 43.4463 101.206 43.6293L104.388 49.0006C104.495 49.1749 104.664 49.3017 104.861 49.355C105.059 49.4083 105.269 49.3842 105.449 49.2875L106.748 48.5171V62.2296C106.748 62.441 106.832 62.6437 106.981 62.7932C107.13 62.9426 107.332 63.0266 107.543 63.0266H128.45C128.661 63.0266 128.863 62.9426 129.012 62.7932C129.161 62.6437 129.245 62.441 129.245 62.2296V45.5472C129.245 45.3404 129.165 45.1416 129.022 44.9929C128.878 44.8442 128.683 44.7572 128.476 44.7503ZM110.667 31.8932C110.741 31.5973 110.873 31.3192 111.055 31.0748C111.237 30.8304 111.466 30.6246 111.728 30.4693C112.062 30.2703 112.443 30.1657 112.831 30.1665C113.21 30.1644 113.583 30.2612 113.913 30.4476C114.243 30.6339 114.519 30.9033 114.714 31.229L114.793 31.3566C115.084 31.8567 115.166 32.4516 115.021 33.0118C114.876 33.5721 114.516 34.0522 114.019 34.3477L112.009 35.5325L110.89 33.6252C110.59 33.1 110.51 32.4773 110.667 31.8932ZM105.666 36.7651L105.587 36.6376C105.441 36.3876 105.346 36.1114 105.308 35.8247C105.27 35.5381 105.288 35.2466 105.363 34.9672C105.437 34.6877 105.566 34.4257 105.742 34.1963C105.918 33.9669 106.137 33.7746 106.387 33.6305C106.911 33.3269 107.533 33.2419 108.118 33.394C108.704 33.5462 109.206 33.9231 109.516 34.4433L110.635 36.3507L108.631 37.5354C108.135 37.8233 107.545 37.9039 106.991 37.7598C106.436 37.6156 105.96 37.2582 105.666 36.7651ZM105.353 47.4758L103.004 43.4752L121.958 32.3182L124.308 36.3241L105.353 47.4758ZM127.681 61.4008H108.366V47.5502L110.614 46.222C110.739 46.3029 110.885 46.3454 111.033 46.3442H127.681V61.4008ZM135.896 41.4616C135.896 41.673 135.812 41.8757 135.663 42.0252C135.514 42.1746 135.311 42.2586 135.1 42.2586H133.61V43.7462C133.61 43.9575 133.526 44.1602 133.377 44.3097C133.228 44.4591 133.025 44.5431 132.814 44.5431C132.603 44.5431 132.401 44.4591 132.252 44.3097C132.103 44.1602 132.019 43.9575 132.019 43.7462V42.2586H130.534C130.323 42.2586 130.121 42.1746 129.971 42.0252C129.822 41.8757 129.738 41.673 129.738 41.4616C129.738 41.2503 129.822 41.0476 129.971 40.8981C130.121 40.7487 130.323 40.6647 130.534 40.6647H132.019V39.1718C132.019 38.9604 132.103 38.7577 132.252 38.6083C132.401 38.4588 132.603 38.3749 132.814 38.3749C133.025 38.3749 133.228 38.4588 133.377 38.6083C133.526 38.7577 133.61 38.9604 133.61 39.1718V40.6647H135.1C135.311 40.6647 135.514 40.7487 135.663 40.8981C135.812 41.0476 135.896 41.2503 135.896 41.4616ZM121.014 23.2863C121.014 23.075 121.098 22.8723 121.247 22.7228C121.396 22.5733 121.599 22.4894 121.81 22.4894H122.154V22.1387C122.154 21.9274 122.238 21.7247 122.387 21.5752C122.537 21.4258 122.739 21.3418 122.95 21.3418C123.161 21.3418 123.363 21.4258 123.513 21.5752C123.662 21.7247 123.746 21.9274 123.746 22.1387V22.4894H124.096C124.307 22.4894 124.509 22.5733 124.658 22.7228C124.807 22.8723 124.891 23.075 124.891 23.2863C124.891 23.4977 124.807 23.7004 124.658 23.8498C124.509 23.9993 124.307 24.0832 124.096 24.0832H123.746V24.4286C123.746 24.6399 123.662 24.8426 123.513 24.9921C123.363 25.1415 123.161 25.2255 122.95 25.2255C122.739 25.2255 122.537 25.1415 122.387 24.9921C122.238 24.8426 122.154 24.6399 122.154 24.4286V24.0832H121.81C121.599 24.0832 121.396 23.9993 121.247 23.8498C121.098 23.7004 121.014 23.4977 121.014 23.2863ZM56.1848 34.7887C55.9738 34.7887 55.7715 34.7047 55.6223 34.5553C55.4731 34.4058 55.3893 34.2031 55.3893 33.9917C55.3893 33.7804 55.4731 33.5777 55.6223 33.4282C55.7715 33.2788 55.9738 33.1948 56.1848 33.1948H56.5295V32.8495C56.5295 32.6381 56.6133 32.4354 56.7625 32.286C56.9117 32.1365 57.1141 32.0525 57.3251 32.0525C57.536 32.0525 57.7384 32.1365 57.8875 32.286C58.0367 32.4354 58.1206 32.6381 58.1206 32.8495V33.1948H58.4706C58.6816 33.1948 58.8839 33.2788 59.0331 33.4282C59.1823 33.5777 59.2661 33.7804 59.2661 33.9917C59.2661 34.2031 59.1823 34.4058 59.0331 34.5553C58.8839 34.7047 58.6816 34.7887 58.4706 34.7887H58.1206V35.134C58.1206 35.3454 58.0367 35.5481 57.8875 35.6975C57.7384 35.847 57.536 35.9309 57.3251 35.9309C57.1141 35.9309 56.9117 35.847 56.7625 35.6975C56.6133 35.5481 56.5295 35.3454 56.5295 35.134V34.7887H56.1848ZM130.868 33.758C132.236 33.758 132.236 35.8831 130.868 35.8831C129.5 35.8831 129.505 33.758 130.868 33.758ZM126.376 40.3619C127.744 40.3619 127.744 42.487 126.376 42.487C125.008 42.487 125.013 40.3619 126.376 40.3619ZM103.842 9.24971C105.21 9.24971 105.205 11.3749 103.842 11.3749C102.479 11.3749 102.473 9.24971 103.842 9.24971ZM140.435 50.5095C139.072 50.5095 139.072 48.3843 140.435 48.3843C141.798 48.3843 141.82 50.5095 140.451 50.5095H140.435ZM140.966 31.2344C139.598 31.2344 139.603 29.1092 140.966 29.1092C142.329 29.1092 142.345 31.2556 140.976 31.2556L140.966 31.2344ZM103.842 26.4103C105.21 26.4103 105.205 28.5354 103.842 28.5354C102.479 28.5354 102.473 26.4103 103.842 26.4103ZM48.1978 19.036C49.5661 19.036 49.5608 21.1612 48.1978 21.1612C46.8348 21.1612 46.8348 19.036 48.1978 19.036Z" fill="#571C0A"/>
</g>
<defs>
<clipPath id="clip0_1358_4752">
<rect width="142" height="63" fill="white"/>
</clipPath>
</defs>
</svg>
