<svg width="38" height="41" viewBox="0 0 38 41" fill="none" xmlns="http://www.w3.org/2000/svg">
<path d="M35.0703 8.62153C34.9738 8.48158 34.8411 8.37048 34.6864 8.30014C34.5316 8.22979 34.3607 8.2028 34.1918 8.22213C34.0226 8.2323 33.8601 8.2922 33.7247 8.39434L29.8408 11.1612L29.8169 6.9367C29.814 6.68422 29.7121 6.44299 29.5331 6.26494C29.3541 6.08689 29.1124 5.98621 28.8599 5.98467C28.6221 6.0062 28.4008 6.11539 28.2389 6.29092C28.077 6.46646 27.9861 6.69574 27.9838 6.93455L28.0123 12.5338L25.1477 14.5151L25.193 8.09407C25.1784 7.94269 24.9742 7.93681 24.914 7.84074C24.8539 7.74467 25.0412 7.57395 24.8777 7.46235C24.7959 7.37581 24.6971 7.30713 24.5875 7.26069C24.4779 7.21425 24.3598 7.19109 24.2408 7.19257C24.0333 7.20877 23.8362 7.29004 23.6776 7.42488L18.8651 11.6559L18.5404 8.27515L22.665 4.56854C22.8196 4.43491 22.9278 4.25555 22.9738 4.05638C23.0197 3.85722 23.0012 3.64856 22.9208 3.46065C22.8404 3.27274 22.7023 3.11529 22.5265 3.01108C22.3507 2.90687 22.1463 2.86136 21.9428 2.88103C21.7431 2.89653 21.5541 2.97728 21.4049 3.11092L18.2166 5.96361L17.7611 1.22046C17.749 1.09456 17.7122 0.972221 17.6529 0.860531C17.5935 0.748841 17.5128 0.649957 17.4152 0.569485C17.3176 0.489012 17.2052 0.428572 17.0843 0.391569C16.9633 0.354566 16.8363 0.341766 16.7104 0.353865C16.5846 0.365964 16.4623 0.402725 16.3506 0.462084C16.239 0.521443 16.1401 0.602103 16.0596 0.699686C15.9792 0.797269 15.9187 0.909856 15.8817 1.03081C15.8447 1.15176 15.8319 1.27876 15.844 1.40467L16.2995 6.14794L12.6266 3.9547C12.4547 3.85192 12.2537 3.80858 12.0547 3.8314C11.8513 3.85083 11.6593 3.93448 11.5065 4.07027C11.3538 4.20606 11.2482 4.38692 11.205 4.58671C11.1618 4.78651 11.1833 4.99483 11.2664 5.1816C11.3494 5.36836 11.4897 5.5239 11.667 5.62562L16.5152 8.39345L16.8399 11.7742L11.3102 8.53721C11.1288 8.43504 10.9198 8.39272 10.713 8.41634C10.5959 8.43756 10.4844 8.48287 10.3856 8.54933C10.2868 8.6158 10.2029 8.70212 10.1391 8.80265C10.1391 8.80265 10.1609 9.02966 10.1755 9.18104C10.19 9.33242 9.93533 9.3315 9.94987 9.48288L11.1227 15.8631L8.00905 14.4563L6.97148 8.95425C6.92376 8.72025 6.79083 8.51235 6.59848 8.37087C6.40614 8.22938 6.16809 8.16441 5.93055 8.18858C5.68302 8.23817 5.46485 8.38305 5.32303 8.59194C5.1812 8.80084 5.12706 9.05699 5.17226 9.3054L5.95285 13.4573L1.61344 11.4808C1.4611 11.4063 1.29015 11.3785 1.12204 11.4008C0.952588 11.414 0.789907 11.4729 0.651393 11.5715C0.512879 11.67 0.403746 11.8044 0.335667 11.9601C0.235936 12.1939 0.230086 12.4571 0.319313 12.6951C0.40854 12.9331 0.585984 13.1276 0.814812 13.2381L5.17946 15.2121L1.51491 17.3467C1.40318 17.4065 1.3051 17.4888 1.22694 17.5885C1.14878 17.6882 1.09223 17.8032 1.06092 17.926C1.0296 18.0488 1.02419 18.1768 1.04504 18.3018C1.06589 18.4268 1.11254 18.546 1.18201 18.6519C1.30873 18.8719 1.51716 19.033 1.76197 19.1001C2.00678 19.1671 2.26817 19.1348 2.48929 19.0101L7.31134 16.2039L10.3998 17.6132L4.81513 20.6963C4.81513 20.6963 4.82967 20.8475 4.83452 20.898C4.83937 20.9485 4.53182 20.9272 4.4828 21.212C4.43378 21.4968 4.63073 21.427 4.67049 21.5759C4.71026 21.7249 4.46771 21.85 4.55792 21.9941C4.64813 22.1382 4.78493 21.9723 4.92317 22.0864C5.06141 22.2004 4.94984 22.3639 5.08323 22.4274L11.1525 24.3904L8.38874 26.3619L3.11842 24.5006C2.98265 24.4893 2.84597 24.5023 2.71483 24.5393C2.5323 24.5526 2.35798 24.6205 2.21454 24.7342C2.0711 24.8479 1.96517 25.0021 1.91049 25.1768C1.86246 25.294 1.83936 25.42 1.84268 25.5467C1.84601 25.6733 1.87567 25.798 1.92978 25.9125C1.98389 26.0271 2.06127 26.1292 2.15698 26.2122C2.25269 26.2952 2.36464 26.3573 2.48569 26.3947L6.49191 27.8174L2.58281 30.5867C2.3792 30.7388 2.242 30.9636 2.1997 31.2142C2.1574 31.4648 2.21326 31.7222 2.35566 31.9327C2.50773 32.1363 2.73238 32.2736 2.98296 32.3158C3.23354 32.3581 3.49079 32.3022 3.70127 32.1598L7.58273 29.3677L7.60659 33.5922C7.61538 33.8456 7.71877 34.0865 7.89636 34.2674C8.07396 34.4483 8.31289 34.556 8.56601 34.5694C8.82309 34.5596 9.06681 34.4525 9.2478 34.2696C9.42878 34.0867 9.53346 33.8419 9.54063 33.5846L9.51447 28.0108L12.2758 26.0139L12.233 32.46C12.2451 32.5862 12.4493 32.5921 12.5119 32.7134C12.5745 32.8347 12.3848 32.9803 12.5482 33.0919C12.7117 33.2035 12.8005 33.0676 12.9518 33.0531C13.1032 33.0385 12.9809 33.3558 13.2332 33.3316C13.4854 33.3074 13.3928 33.138 13.514 33.0754C13.6353 33.0129 13.7808 33.2026 13.8924 33.0391L18.7049 28.808L19.0296 32.1888L14.7969 35.8294C14.7011 35.9121 14.6226 36.0129 14.5659 36.126C14.5091 36.2391 14.4752 36.3622 14.466 36.4884C14.4569 36.6147 14.4727 36.7415 14.5125 36.8616C14.5523 36.9817 14.6155 37.0928 14.6982 37.1885C14.7789 37.2872 14.8789 37.3685 14.9921 37.4273C15.1052 37.486 15.2292 37.521 15.3564 37.5302C15.4836 37.5394 15.6113 37.5226 15.7318 37.4808C15.8522 37.4389 15.9629 37.3731 16.057 37.287L19.2452 34.4343L19.7032 39.2027C19.7276 39.4569 19.852 39.6911 20.0491 39.8536C20.2461 40.0162 20.4996 40.0938 20.7538 40.0694C21.008 40.0449 21.2422 39.9205 21.4046 39.7234C21.5671 39.5264 21.6447 39.2727 21.6203 39.0185L21.1623 34.25L24.8352 36.4432C24.944 36.5098 25.0652 36.5535 25.1914 36.5717C25.3176 36.5898 25.4462 36.5819 25.5693 36.5486C25.6924 36.5154 25.8074 36.4573 25.9073 36.3781C26.0072 36.2988 26.0899 36.1999 26.1503 36.0876C26.2134 35.9779 26.2542 35.8569 26.2705 35.7315C26.2867 35.606 26.2781 35.4785 26.2451 35.3563C26.2121 35.2342 26.1553 35.1198 26.0781 35.0195C26.0008 34.9193 25.9046 34.8354 25.7949 34.7724L20.9467 32.0045L20.622 28.6237L25.961 32.261C25.961 32.261 26.2133 32.2367 26.3394 32.2245C26.4655 32.2124 26.515 32.4623 26.6639 32.4225C26.8128 32.3827 26.6397 32.1703 26.8871 32.0956C27.1345 32.0209 27.215 32.064 27.2907 32.0568C27.3663 32.0495 27.2664 31.8044 27.2543 31.6783C27.2422 31.5521 27.492 31.5027 27.4799 31.3765L26.211 25.0564L29.3019 26.4907L30.337 31.9677C30.3607 32.0925 30.4087 32.2114 30.4784 32.3176C30.548 32.4238 30.6379 32.5153 30.7428 32.5868C30.8478 32.6582 30.9658 32.7083 31.0902 32.7342C31.2145 32.76 31.3427 32.7611 31.4675 32.7374C31.5922 32.7137 31.7111 32.6658 31.8173 32.5962C31.9235 32.5265 32.015 32.4365 32.0864 32.3315C32.1579 32.2265 32.208 32.1086 32.2339 31.9842C32.2597 31.8599 32.2608 31.7316 32.2372 31.6069L31.4565 27.455L35.7984 29.4566C36.0314 29.5626 36.2969 29.5716 36.5365 29.4817C36.7761 29.3918 36.9703 29.2104 37.0762 28.9773C37.1821 28.7443 37.1911 28.4788 37.1012 28.2391C37.0114 27.9994 36.83 27.8053 36.597 27.6993L32.2324 25.7253L35.8945 23.5654C36.0769 23.4515 36.2159 23.28 36.2895 23.078C36.363 22.8759 36.3668 22.655 36.3003 22.4505C36.2339 22.2461 36.1009 22.0698 35.9226 21.9496C35.7442 21.8295 35.5309 21.7724 35.3164 21.7876C35.1807 21.7763 35.044 21.7895 34.9128 21.8264L30.0932 24.6578L27.0048 23.2486L32.5894 20.1656C32.7155 20.1535 32.5652 19.9132 32.6816 19.8002C32.7981 19.6871 32.9591 19.7735 33.0227 19.6401C33.0862 19.5066 32.9984 19.3877 32.8325 19.2509C32.6667 19.1141 33.0378 19.0021 32.9475 18.858C32.8573 18.7139 32.6783 18.7057 32.5425 18.6169C32.4067 18.5281 32.5255 18.4403 32.5231 18.415L26.4539 16.4521L29.2176 14.4804L34.4855 16.3166C34.7263 16.3968 34.9891 16.3789 35.2166 16.2664C35.4442 16.1539 35.6182 15.9562 35.7007 15.7161C35.7487 15.5988 35.7718 15.4729 35.7685 15.3462C35.7652 15.2195 35.7355 15.0949 35.6814 14.9803C35.6273 14.8657 35.5499 14.7637 35.4542 14.6807C35.3585 14.5977 35.2466 14.5354 35.1255 14.4981L31.1217 13.1007L35.0308 10.3314C35.1826 10.248 35.3098 10.126 35.3997 9.97797C35.4895 9.82992 35.5389 9.66094 35.5429 9.48779C35.5469 9.31463 35.5054 9.1435 35.4224 8.99147C35.3395 8.83944 35.218 8.71185 35.0703 8.62153ZM7.54613 21.2994L12.3682 18.4934L16.6019 20.429L12.9343 23.3279L7.54613 21.2994ZM18.2418 26.6371L13.9659 30.3583L14.0935 24.7951L17.8814 22.0886L18.2418 26.6371ZM17.4761 18.6645L13.3303 16.8477L12.2097 11.2771L17.1181 14.1409L17.4761 18.6645ZM18.9498 13.8632L23.2233 10.1167L23.1835 15.7988L19.3932 18.4802L18.9498 13.8632ZM20.1614 26.4781L19.7228 21.9115L23.9564 23.8471L25.0745 29.3924L20.1614 26.4781ZM29.6455 19.2008L24.8235 22.0068L20.5369 20.0509L24.3247 17.3441L29.6455 19.2008Z" fill="white" fill-opacity="0.5"/>
</svg>
