<svg width="62" height="66" viewBox="0 0 62 66" fill="none" xmlns="http://www.w3.org/2000/svg">
<path d="M58.1728 13.8773C58.0136 13.6464 57.7946 13.4631 57.5393 13.347C57.2839 13.2309 57.0019 13.1864 56.7232 13.2182C56.4439 13.235 56.1757 13.3339 55.9523 13.5024L49.5432 18.0682L49.5038 11.097C49.499 10.6804 49.3308 10.2823 49.0355 9.98852C48.7401 9.69469 48.3412 9.52856 47.9246 9.52602C47.5322 9.56154 47.167 9.74173 46.8998 10.0314C46.6326 10.3211 46.4826 10.6994 46.4788 11.0935L46.5259 20.3332L41.7987 23.6029L41.8734 13.0069C41.8494 12.7571 41.5124 12.7474 41.4131 12.5889C41.3139 12.4303 41.6229 12.1486 41.3532 11.9645C41.2182 11.8217 41.0552 11.7083 40.8743 11.6317C40.6934 11.5551 40.4986 11.5168 40.3022 11.5193C39.9597 11.546 39.6345 11.6801 39.3728 11.9026L31.4313 18.8847L30.8955 13.3057L37.7018 7.18913C37.957 6.96862 38.1354 6.67264 38.2113 6.34398C38.2872 6.01532 38.2566 5.671 38.1239 5.36091C37.9912 5.05082 37.7633 4.791 37.4732 4.61904C37.1831 4.44707 36.8458 4.37196 36.5101 4.40443C36.1806 4.43 35.8686 4.56325 35.6223 4.78379L30.3611 9.49127L29.6094 1.66418C29.5894 1.45641 29.5287 1.25454 29.4308 1.07023C29.3329 0.885917 29.1996 0.722739 29.0386 0.589944C28.8776 0.45715 28.6921 0.357413 28.4925 0.29635C28.293 0.235288 28.0834 0.214166 27.8756 0.234131C27.6679 0.254097 27.4662 0.314759 27.2819 0.412714C27.0976 0.510668 26.9344 0.643772 26.8017 0.804802C26.6689 0.965831 26.5691 1.15162 26.5081 1.35121C26.447 1.5508 26.4259 1.76039 26.4458 1.96815L27.1975 9.79544L21.1366 6.17618C20.8529 6.00658 20.5212 5.93505 20.1928 5.97271C19.8571 6.00478 19.5403 6.14282 19.2882 6.3669C19.0362 6.59098 18.8619 6.88943 18.7906 7.21913C18.7194 7.54882 18.7549 7.8926 18.8919 8.20079C19.0289 8.50899 19.2605 8.76565 19.553 8.93352L27.5534 13.501L28.0892 19.0799L18.9642 13.7382C18.6649 13.5696 18.32 13.4998 17.9788 13.5387C17.7855 13.5737 17.6015 13.6485 17.4385 13.7582C17.2755 13.8679 17.137 14.0103 17.0317 14.1762C17.0317 14.1762 17.0677 14.5508 17.0917 14.8006C17.1157 15.0504 16.6954 15.0489 16.7194 15.2987L18.6548 25.8273L13.5167 23.5058L11.8045 14.4264C11.7258 14.0402 11.5064 13.6972 11.189 13.4637C10.8716 13.2302 10.4788 13.123 10.0868 13.1629C9.67833 13.2447 9.31832 13.4838 9.08428 13.8285C8.85024 14.1732 8.7609 14.5959 8.83548 15.0059L10.1236 21.8572L2.96277 18.5957C2.71137 18.4728 2.42928 18.4269 2.15187 18.4636C1.87223 18.4854 1.60378 18.5827 1.3752 18.7453C1.14663 18.9079 0.96654 19.1296 0.854196 19.3866C0.689621 19.7724 0.679967 20.2068 0.827208 20.5995C0.97445 20.9922 1.26727 21.3132 1.64488 21.4956L8.84736 24.7531L2.80016 28.2755C2.61579 28.3741 2.45395 28.5099 2.32497 28.6745C2.19598 28.8391 2.10267 29.0289 2.05099 29.2315C1.99931 29.4341 1.9904 29.6453 2.0248 29.8516C2.0592 30.0578 2.13618 30.2545 2.25082 30.4294C2.45993 30.7924 2.80388 31.0582 3.20787 31.1689C3.61185 31.2796 4.0432 31.2262 4.40808 31.0204L12.3654 26.3897L17.4618 28.7152L8.24616 33.8029C8.24616 33.8029 8.27015 34.0525 8.27815 34.1358C8.28615 34.2191 7.77864 34.1839 7.69775 34.6539C7.61686 35.1239 7.94186 35.0087 8.00747 35.2545C8.07309 35.5003 7.67284 35.7067 7.82171 35.9445C7.97058 36.1823 8.19632 35.9087 8.42444 36.0968C8.65256 36.285 8.46844 36.5548 8.68857 36.6597L18.704 39.8989L14.1433 43.1523L5.44626 40.0807C5.22221 40.0621 4.99666 40.0836 4.78026 40.1446C4.47905 40.1665 4.1914 40.2786 3.95469 40.4662C3.71799 40.6538 3.54318 40.9083 3.45296 41.1966C3.37369 41.3901 3.33558 41.5979 3.34106 41.807C3.34654 42.016 3.39549 42.2217 3.48478 42.4107C3.57408 42.5998 3.70176 42.7682 3.8597 42.9052C4.01765 43.0422 4.20238 43.1447 4.40214 43.2063L11.0132 45.5541L4.5624 50.1239C4.22641 50.3749 4 50.7459 3.9302 51.1595C3.8604 51.5731 3.95257 51.9977 4.18756 52.3451C4.43851 52.6812 4.80921 52.9076 5.22272 52.9774C5.63623 53.0472 6.06074 52.9549 6.40808 52.7198L12.8132 48.1124L12.8526 55.0836C12.8671 55.5018 13.0377 55.8993 13.3308 56.1978C13.6238 56.4964 14.0181 56.6741 14.4358 56.6962C14.86 56.68 15.2622 56.5032 15.5609 56.2014C15.8595 55.8997 16.0323 55.4956 16.0441 55.0712L16.001 45.8732L20.5576 42.578L20.487 53.2153C20.507 53.4235 20.844 53.4332 20.9473 53.6334C21.0505 53.8336 20.7375 54.0738 21.0072 54.258C21.277 54.4422 21.4235 54.218 21.6732 54.194C21.923 54.17 21.7212 54.6936 22.1375 54.6536C22.5537 54.6136 22.4009 54.3341 22.601 54.2309C22.8011 54.1276 23.0412 54.4407 23.2254 54.1708L31.1669 47.1888L31.7027 52.7677L24.7179 58.7754C24.5599 58.9119 24.4304 59.0782 24.3367 59.2649C24.243 59.4515 24.187 59.6547 24.1719 59.863C24.1568 60.0712 24.1829 60.2806 24.2486 60.4788C24.3144 60.677 24.4186 60.8603 24.5552 61.0182C24.6883 61.1811 24.8533 61.3152 25.04 61.4122C25.2268 61.5092 25.4313 61.5669 25.6412 61.5821C25.8511 61.5973 26.0618 61.5695 26.2606 61.5005C26.4594 61.4315 26.642 61.3228 26.7973 61.1807L32.0585 56.4733L32.8143 64.3419C32.8546 64.7615 33.0599 65.148 33.385 65.4162C33.7102 65.6844 34.1285 65.8125 34.548 65.7722C34.9675 65.7319 35.3538 65.5265 35.622 65.2013C35.8901 64.8761 36.0181 64.4576 35.9778 64.038L35.2221 56.1691L41.2831 59.7883C41.4625 59.8982 41.6625 59.9704 41.8708 60.0003C42.0791 60.0302 42.2913 60.0172 42.4944 59.9623C42.6976 59.9074 42.8874 59.8116 43.0522 59.6808C43.2171 59.55 43.3536 59.3869 43.4533 59.2015C43.5573 59.0205 43.6247 58.8209 43.6515 58.6138C43.6783 58.4067 43.6641 58.1964 43.6096 57.9948C43.5552 57.7932 43.4615 57.6044 43.334 57.439C43.2066 57.2737 43.0477 57.1352 42.8667 57.0312L34.8662 52.4636L34.3304 46.8846L43.1408 52.887C43.1408 52.887 43.5571 52.8467 43.7652 52.8267C43.9734 52.8067 44.055 53.219 44.3007 53.1534C44.5465 53.0878 44.2607 52.7372 44.669 52.6139C45.0773 52.4906 45.2101 52.5619 45.335 52.5499C45.4599 52.5379 45.295 52.1334 45.275 51.9253C45.255 51.7171 45.6673 51.6356 45.6473 51.4274L43.5534 40.9979L48.6539 43.3649L50.3621 52.4029C50.4012 52.6088 50.4804 52.805 50.5953 52.9803C50.7102 53.1556 50.8585 53.3065 51.0317 53.4245C51.2049 53.5424 51.3997 53.625 51.6049 53.6677C51.81 53.7104 52.0216 53.7122 52.2275 53.6731C52.4334 53.634 52.6296 53.5549 52.8048 53.44C52.9801 53.325 53.131 53.1766 53.2489 53.0033C53.3669 52.83 53.4495 52.6354 53.4922 52.4301C53.5349 52.2249 53.5367 52.0134 53.4976 51.8074L52.2095 44.9561L59.3744 48.2592C59.7588 48.434 60.197 48.4489 60.5924 48.3006C60.9878 48.1522 61.3082 47.8528 61.4829 47.4682C61.6577 47.0837 61.6725 46.6455 61.5243 46.25C61.376 45.8545 61.0767 45.5341 60.6922 45.3593L53.4898 42.1018L59.533 38.5375C59.8339 38.3496 60.0633 38.0666 60.1847 37.7332C60.3061 37.3998 60.3124 37.0352 60.2027 36.6978C60.093 36.3604 59.8735 36.0694 59.5793 35.8712C59.285 35.673 58.9329 35.5787 58.5791 35.6039C58.355 35.5852 58.1294 35.6069 57.913 35.6679L49.9598 40.3402L44.8633 38.0147L54.0789 32.9272C54.2871 32.9072 54.039 32.5107 54.2311 32.3242C54.4232 32.1376 54.689 32.2802 54.7939 32.06C54.8988 31.8398 54.7539 31.6436 54.4801 31.4178C54.2064 31.192 54.8188 31.0072 54.6699 30.7694C54.5211 30.5316 54.2257 30.5181 54.0015 30.3715C53.7774 30.225 53.9736 30.0801 53.9696 30.0384L43.9542 26.7992L48.5149 23.5456L57.2079 26.5756C57.6052 26.7081 58.0388 26.6784 58.4144 26.4928C58.7899 26.3072 59.077 25.9809 59.2132 25.5847C59.2924 25.3912 59.3305 25.1833 59.3251 24.9743C59.3196 24.7653 59.2706 24.5596 59.1813 24.3705C59.092 24.1815 58.9644 24.013 58.8064 23.8761C58.6485 23.7391 58.4637 23.6364 58.264 23.5747L51.657 21.2687L58.1077 16.6989C58.3582 16.5613 58.5681 16.36 58.7164 16.1157C58.8647 15.8714 58.9462 15.5926 58.9528 15.3068C58.9594 15.0211 58.8908 14.7387 58.7539 14.4878C58.617 14.2369 58.4167 14.0264 58.1728 13.8773ZM12.7528 34.7983L20.7101 30.1677L27.6965 33.3618L21.6443 38.1456L12.7528 34.7983ZM30.4027 43.6065L23.3467 49.7471L23.5573 40.5667L29.8079 36.1005L30.4027 43.6065ZM29.1392 30.4502L22.2977 27.452L20.4486 18.2596L28.5483 22.9853L29.1392 30.4502ZM31.571 22.527L38.6231 16.3446L38.5574 25.7211L32.3028 30.146L31.571 22.527ZM33.5703 43.3441L32.8466 35.8083L39.8329 39.0024L41.678 48.1533L33.5703 43.3441ZM49.221 31.3351L41.2637 35.9656L34.1901 32.7379L40.4407 28.2713L49.221 31.3351Z" fill="white" fill-opacity="0.5"/>
</svg>
