<svg width="62" height="66" viewBox="0 0 62 66" fill="none" xmlns="http://www.w3.org/2000/svg">
<path d="M58.1726 13.8773C58.0134 13.6464 57.7944 13.4631 57.5391 13.347C57.2838 13.2309 57.0017 13.1864 56.723 13.2182C56.4437 13.235 56.1755 13.3339 55.9521 13.5024L49.543 18.0682L49.5036 11.097C49.4988 10.6804 49.3306 10.2823 49.0353 9.98852C48.7399 9.69469 48.341 9.52856 47.9244 9.52602C47.532 9.56154 47.1668 9.74173 46.8996 10.0314C46.6324 10.3211 46.4824 10.6994 46.4786 11.0935L46.5257 20.3332L41.7986 23.6029L41.8732 13.0069C41.8492 12.7571 41.5122 12.7474 41.413 12.5889C41.3137 12.4303 41.6227 12.1486 41.353 11.9645C41.2181 11.8217 41.055 11.7083 40.8741 11.6317C40.6932 11.5551 40.4984 11.5168 40.302 11.5193C39.9595 11.546 39.6343 11.6801 39.3726 11.9026L31.4311 18.8847L30.8953 13.3057L37.7016 7.18913C37.9568 6.96862 38.1352 6.67264 38.2111 6.34398C38.287 6.01532 38.2564 5.671 38.1237 5.36091C37.991 5.05082 37.7631 4.791 37.473 4.61904C37.1829 4.44707 36.8456 4.37196 36.5099 4.40443C36.1804 4.43 35.8684 4.56325 35.6222 4.78379L30.3609 9.49127L29.6092 1.66418C29.5892 1.45641 29.5286 1.25454 29.4306 1.07023C29.3327 0.885917 29.1994 0.722739 29.0384 0.589944C28.8775 0.45715 28.6919 0.357413 28.4923 0.29635C28.2928 0.235288 28.0832 0.214166 27.8754 0.234131C27.6677 0.254097 27.466 0.314759 27.2817 0.412714C27.0974 0.510668 26.9343 0.643772 26.8015 0.804802C26.6687 0.965831 26.5689 1.15162 26.5079 1.35121C26.4468 1.5508 26.4257 1.76039 26.4456 1.96815L27.1974 9.79544L21.1364 6.17618C20.8527 6.00658 20.521 5.93505 20.1926 5.97271C19.8569 6.00478 19.5401 6.14282 19.2881 6.3669C19.036 6.59098 18.8617 6.88943 18.7905 7.21913C18.7192 7.54882 18.7547 7.8926 18.8917 8.20079C19.0288 8.50899 19.2603 8.76565 19.5528 8.93352L27.5532 13.501L28.089 19.0799L18.964 13.7382C18.6647 13.5696 18.3199 13.4998 17.9786 13.5387C17.7853 13.5737 17.6013 13.6485 17.4383 13.7582C17.2753 13.8679 17.1368 14.0103 17.0315 14.1762C17.0315 14.1762 17.0675 14.5508 17.0915 14.8006C17.1155 15.0504 16.6953 15.0489 16.7193 15.2987L18.6547 25.8273L13.5165 23.5058L11.8044 14.4264C11.7256 14.0402 11.5062 13.6972 11.1888 13.4637C10.8714 13.2302 10.4786 13.123 10.0866 13.1629C9.67815 13.2447 9.31813 13.4838 9.08409 13.8285C8.85005 14.1732 8.76072 14.5959 8.8353 15.0059L10.1234 21.8572L2.96258 18.5957C2.71118 18.4728 2.42909 18.4269 2.15168 18.4636C1.87205 18.4854 1.60359 18.5827 1.37502 18.7453C1.14645 18.9079 0.966357 19.1296 0.854012 19.3866C0.689438 19.7724 0.679784 20.2068 0.827025 20.5995C0.974267 20.9922 1.26708 21.3132 1.64469 21.4956L8.84718 24.7531L2.79998 28.2755C2.6156 28.3741 2.45376 28.5099 2.32478 28.6745C2.1958 28.8391 2.10249 29.0289 2.05081 29.2315C1.99913 29.4341 1.99021 29.6453 2.02462 29.8516C2.05902 30.0578 2.136 30.2545 2.25064 30.4294C2.45974 30.7924 2.8037 31.0582 3.20768 31.1689C3.61167 31.2796 4.04301 31.2262 4.4079 31.0204L12.3652 26.3897L17.4617 28.7152L8.24597 33.8029C8.24597 33.8029 8.26997 34.0525 8.27797 34.1358C8.28596 34.2191 7.77846 34.1839 7.69757 34.6539C7.61668 35.1239 7.94167 35.0087 8.00729 35.2545C8.07291 35.5003 7.67266 35.7067 7.82153 35.9445C7.9704 36.1823 8.19613 35.9087 8.42426 36.0968C8.65238 36.285 8.46826 36.5548 8.68838 36.6597L18.7038 39.8989L14.1431 43.1523L5.44608 40.0807C5.22203 40.0621 4.99648 40.0836 4.78008 40.1446C4.47887 40.1665 4.19122 40.2786 3.95451 40.4662C3.71781 40.6538 3.54299 40.9083 3.45277 41.1966C3.37351 41.3901 3.3354 41.5979 3.34088 41.807C3.34636 42.016 3.3953 42.2217 3.4846 42.4107C3.57389 42.5998 3.70158 42.7682 3.85952 42.9052C4.01746 43.0422 4.2022 43.1447 4.40196 43.2063L11.013 45.5541L4.56221 50.1239C4.22623 50.3749 3.99982 50.7459 3.93002 51.1595C3.86021 51.5731 3.95239 51.9977 4.18738 52.3451C4.43832 52.6812 4.80903 52.9076 5.22254 52.9774C5.63604 53.0472 6.06056 52.9549 6.40789 52.7198L12.813 48.1124L12.8524 55.0836C12.8669 55.5018 13.0375 55.8993 13.3306 56.1978C13.6237 56.4964 14.0179 56.6741 14.4356 56.6962C14.8598 56.68 15.262 56.5032 15.5607 56.2014C15.8594 55.8997 16.0321 55.4956 16.0439 55.0712L16.0008 45.8732L20.5575 42.578L20.4868 53.2153C20.5068 53.4235 20.8438 53.4332 20.9471 53.6334C21.0503 53.8336 20.7373 54.0738 21.007 54.258C21.2768 54.4422 21.4233 54.218 21.6731 54.194C21.9228 54.17 21.721 54.6936 22.1373 54.6536C22.5535 54.6136 22.4007 54.3341 22.6008 54.2309C22.8009 54.1276 23.0411 54.4407 23.2252 54.1708L31.1667 47.1888L31.7025 52.7677L24.7177 58.7754C24.5597 58.9119 24.4302 59.0782 24.3365 59.2649C24.2428 59.4515 24.1869 59.6547 24.1717 59.863C24.1566 60.0712 24.1827 60.2806 24.2485 60.4788C24.3142 60.677 24.4184 60.8603 24.555 61.0182C24.6881 61.1811 24.8531 61.3152 25.0399 61.4122C25.2266 61.5092 25.4312 61.5669 25.641 61.5821C25.8509 61.5973 26.0617 61.5695 26.2604 61.5005C26.4592 61.4315 26.6418 61.3228 26.7971 61.1807L32.0584 56.4733L32.8141 64.3419C32.8544 64.7615 33.0597 65.148 33.3848 65.4162C33.71 65.6844 34.1283 65.8125 34.5478 65.7722C34.9673 65.7319 35.3536 65.5265 35.6218 65.2013C35.8899 64.8761 36.0179 64.4576 35.9776 64.038L35.2219 56.1691L41.2829 59.7883C41.4624 59.8982 41.6623 59.9704 41.8706 60.0003C42.0789 60.0302 42.2911 60.0172 42.4942 59.9623C42.6974 59.9074 42.8872 59.8116 43.052 59.6808C43.2169 59.55 43.3534 59.3869 43.4531 59.2015C43.5571 59.0205 43.6245 58.8209 43.6513 58.6138C43.6782 58.4067 43.6639 58.1964 43.6095 57.9948C43.555 57.7932 43.4613 57.6044 43.3338 57.439C43.2064 57.2737 43.0476 57.1352 42.8665 57.0312L34.8661 52.4636L34.3302 46.8846L43.1406 52.887C43.1406 52.887 43.5569 52.8467 43.765 52.8267C43.9732 52.8067 44.0548 53.219 44.3005 53.1534C44.5463 53.0878 44.2606 52.7372 44.6688 52.6139C45.0771 52.4906 45.2099 52.5619 45.3348 52.5499C45.4597 52.5379 45.2949 52.1334 45.2749 51.9253C45.2549 51.7171 45.6671 51.6356 45.6471 51.4274L43.5532 40.9979L48.6537 43.3649L50.3619 52.4029C50.401 52.6088 50.4802 52.805 50.5951 52.9803C50.71 53.1556 50.8583 53.3065 51.0315 53.4245C51.2048 53.5424 51.3995 53.625 51.6047 53.6677C51.8099 53.7104 52.0214 53.7122 52.2273 53.6731C52.4332 53.634 52.6294 53.5549 52.8046 53.44C52.9799 53.325 53.1308 53.1766 53.2487 53.0033C53.3667 52.83 53.4493 52.6354 53.492 52.4301C53.5347 52.2249 53.5366 52.0134 53.4975 51.8074L52.2093 44.9561L59.3742 48.2592C59.7586 48.434 60.1968 48.4489 60.5922 48.3006C60.9876 48.1522 61.308 47.8528 61.4827 47.4682C61.6575 47.0837 61.6724 46.6455 61.5241 46.25C61.3758 45.8545 61.0765 45.5341 60.692 45.3593L53.4896 42.1018L59.5328 38.5375C59.8337 38.3496 60.0632 38.0666 60.1845 37.7332C60.3059 37.3998 60.3122 37.0352 60.2025 36.6978C60.0928 36.3604 59.8733 36.0694 59.5791 35.8712C59.2848 35.673 58.9327 35.5787 58.5789 35.6039C58.3548 35.5852 58.1293 35.6069 57.9129 35.6679L49.9596 40.3402L44.8631 38.0147L54.0788 32.9272C54.2869 32.9072 54.0388 32.5107 54.2309 32.3242C54.4231 32.1376 54.6888 32.2802 54.7937 32.06C54.8986 31.8398 54.7537 31.6436 54.48 31.4178C54.2062 31.192 54.8186 31.0072 54.6697 30.7694C54.5209 30.5316 54.2255 30.5181 54.0014 30.3715C53.7772 30.225 53.9734 30.0801 53.9694 30.0384L43.954 26.7992L48.5147 23.5456L57.2077 26.5756C57.6051 26.7081 58.0386 26.6784 58.4142 26.4928C58.7897 26.3072 59.0768 25.9809 59.213 25.5847C59.2922 25.3912 59.3304 25.1833 59.3249 24.9743C59.3194 24.7653 59.2704 24.5596 59.1811 24.3705C59.0919 24.1815 58.9642 24.013 58.8062 23.8761C58.6483 23.7391 58.4636 23.6364 58.2638 23.5747L51.6568 21.2687L58.1075 16.6989C58.358 16.5613 58.5679 16.36 58.7162 16.1157C58.8645 15.8714 58.946 15.5926 58.9526 15.3068C58.9592 15.0211 58.8906 14.7387 58.7538 14.4878C58.6169 14.2369 58.4165 14.0264 58.1726 13.8773ZM12.7526 34.7983L20.7099 30.1677L27.6963 33.3618L21.6441 38.1456L12.7526 34.7983ZM30.4026 43.6065L23.3465 49.7471L23.5571 40.5667L29.8077 36.1005L30.4026 43.6065ZM29.139 30.4502L22.2975 27.452L20.4485 18.2596L28.5482 22.9853L29.139 30.4502ZM31.5708 22.527L38.6229 16.3446L38.5572 25.7211L32.3026 30.146L31.5708 22.527ZM33.5701 43.3441L32.8464 35.8083L39.8327 39.0024L41.6778 48.1533L33.5701 43.3441ZM49.2208 31.3351L41.2635 35.9656L34.1899 32.7379L40.4405 28.2713L49.2208 31.3351Z" fill="white" fill-opacity="0.5"/>
</svg>
