<svg width="26" height="28" viewBox="0 0 26 28" fill="none" xmlns="http://www.w3.org/2000/svg">
<path d="M24.4957 6.13311C24.4294 6.03692 24.3382 5.96057 24.2319 5.91222C24.1255 5.86388 24.008 5.84533 23.892 5.85861C23.7757 5.8656 23.664 5.90677 23.5709 5.97697L20.9016 7.87854L20.8852 4.97517C20.8832 4.80165 20.8132 4.63586 20.6902 4.51349C20.5672 4.39112 20.401 4.32193 20.2275 4.32087C20.0641 4.33567 19.912 4.41071 19.8007 4.53135C19.6895 4.65199 19.627 4.80957 19.6254 4.97369L19.645 8.82187L17.6762 10.1836L17.7073 5.7706C17.6973 5.66656 17.557 5.66252 17.5156 5.59649C17.4743 5.53047 17.603 5.41314 17.4907 5.33644C17.4345 5.27696 17.3666 5.22976 17.2912 5.19784C17.2159 5.16593 17.1347 5.15001 17.0529 5.15102C16.9103 5.16216 16.7749 5.21801 16.6659 5.31069L13.3584 8.21858L13.1352 5.89505L15.9699 3.3476C16.0762 3.25577 16.1505 3.13249 16.1821 2.99561C16.2137 2.85873 16.201 2.71533 16.1457 2.58618C16.0905 2.45704 15.9956 2.34883 15.8747 2.27721C15.7539 2.20559 15.6134 2.17431 15.4736 2.18783C15.3364 2.19848 15.2064 2.25398 15.1039 2.34583L12.9127 4.3064L12.5996 1.04657C12.5913 0.960037 12.566 0.875959 12.5252 0.799197C12.4845 0.722436 12.4289 0.654476 12.3619 0.599169C12.2948 0.543863 12.2176 0.502324 12.1345 0.476893C12.0513 0.451462 11.964 0.442665 11.8775 0.45098C11.791 0.459295 11.707 0.48456 11.6302 0.525356C11.5535 0.566152 11.4855 0.621587 11.4302 0.688653C11.3749 0.755719 11.3334 0.833097 11.308 0.916222C11.2825 0.999348 11.2737 1.08664 11.282 1.17317L11.5951 4.43308L9.07085 2.92573C8.95268 2.85509 8.81456 2.8253 8.67779 2.84099C8.53798 2.85434 8.40603 2.91184 8.30105 3.00516C8.19606 3.09848 8.12348 3.22278 8.09381 3.3601C8.06413 3.49741 8.07891 3.64058 8.13598 3.76894C8.19306 3.8973 8.28948 4.00419 8.4113 4.07411L11.7433 5.97635L11.9665 8.29988L8.16608 6.07516C8.04144 6.00494 7.89781 5.97585 7.75568 5.99209C7.67518 6.00667 7.59856 6.03781 7.53067 6.08349C7.46279 6.12917 7.4051 6.1885 7.36126 6.25759C7.36126 6.25759 7.37625 6.41361 7.38624 6.51765C7.39623 6.62169 7.2212 6.62105 7.23119 6.72509L8.03725 11.1101L5.89733 10.1432L5.18423 6.36177C5.15144 6.20096 5.06008 6.05807 4.92788 5.96083C4.79569 5.86359 4.63209 5.81895 4.46883 5.83555C4.29871 5.86964 4.14877 5.96921 4.0513 6.11278C3.95382 6.25634 3.91662 6.43238 3.94768 6.60312L4.48416 9.45656L1.50181 8.09822C1.3971 8.04703 1.27962 8.02791 1.16408 8.0432C1.04762 8.05227 0.935814 8.09279 0.840617 8.16051C0.745421 8.22823 0.670417 8.32057 0.623628 8.42763C0.555086 8.58831 0.551065 8.76919 0.612388 8.93276C0.673711 9.09632 0.795664 9.22998 0.952931 9.30596L3.95263 10.6626L1.43409 12.1297C1.3573 12.1707 1.28989 12.2273 1.23617 12.2958C1.18246 12.3644 1.14359 12.4434 1.12207 12.5278C1.10055 12.6122 1.09683 12.7002 1.11116 12.7861C1.12549 12.872 1.15755 12.9539 1.2053 13.0267C1.29238 13.1779 1.43563 13.2886 1.60389 13.3347C1.77214 13.3808 1.95178 13.3586 2.10375 13.2729L5.4178 11.3443L7.54039 12.3128L3.70224 14.4317C3.70224 14.4317 3.71223 14.5357 3.71556 14.5704C3.71889 14.6051 3.50753 14.5904 3.47384 14.7861C3.44015 14.9819 3.5755 14.9339 3.60283 15.0363C3.63016 15.1387 3.46346 15.2246 3.52546 15.3237C3.58746 15.4227 3.68148 15.3087 3.77649 15.3871C3.8715 15.4655 3.79481 15.5778 3.88649 15.6215L8.05771 16.9706L6.15827 18.3256L2.53613 17.0463C2.44282 17.0386 2.34888 17.0475 2.25876 17.0729C2.13331 17.082 2.01351 17.1287 1.91492 17.2069C1.81634 17.285 1.74354 17.391 1.70596 17.511C1.67295 17.5916 1.65708 17.6782 1.65936 17.7653C1.66164 17.8523 1.68203 17.938 1.71922 18.0167C1.75641 18.0955 1.80958 18.1656 1.87536 18.2227C1.94114 18.2797 2.01808 18.3224 2.10128 18.3481L4.85464 19.3259L2.16802 21.2291C2.02809 21.3337 1.93379 21.4882 1.90472 21.6604C1.87565 21.8327 1.91404 22.0095 2.01191 22.1542C2.11642 22.2942 2.27082 22.3885 2.44303 22.4175C2.61525 22.4466 2.79205 22.4082 2.93671 22.3103L5.60433 20.3914L5.62072 23.2947C5.62677 23.4689 5.69782 23.6345 5.81988 23.7588C5.94193 23.8831 6.10614 23.9571 6.28011 23.9663C6.45679 23.9596 6.6243 23.886 6.74868 23.7603C6.87306 23.6346 6.94501 23.4663 6.94994 23.2895L6.93196 19.4588L8.82973 18.0864L8.80032 22.5166C8.80864 22.6033 8.949 22.6074 8.992 22.6907C9.035 22.7741 8.90463 22.8742 9.01697 22.9509C9.12932 23.0276 9.19034 22.9342 9.29436 22.9242C9.39837 22.9142 9.31434 23.1323 9.4877 23.1156C9.66106 23.099 9.5974 22.9826 9.68075 22.9396C9.7641 22.8966 9.86411 23.0269 9.94079 22.9146L13.2483 20.0067L13.4714 22.3302L10.5624 24.8323C10.4966 24.8891 10.4427 24.9584 10.4036 25.0361C10.3646 25.1139 10.3413 25.1985 10.335 25.2852C10.3287 25.372 10.3396 25.4592 10.367 25.5417C10.3943 25.6243 10.4377 25.7006 10.4946 25.7664C10.5501 25.8342 10.6188 25.8901 10.6966 25.9305C10.7743 25.9709 10.8595 25.9949 10.9469 26.0012C11.0343 26.0076 11.1221 25.996 11.2049 25.9672C11.2877 25.9385 11.3638 25.8932 11.4284 25.8341L13.6196 23.8735L13.9344 27.1506C13.9512 27.3254 14.0367 27.4863 14.1721 27.598C14.3075 27.7097 14.4817 27.7631 14.6564 27.7463C14.8312 27.7295 14.9921 27.644 15.1037 27.5086C15.2154 27.3731 15.2687 27.1988 15.2519 27.024L14.9372 23.7468L17.4615 25.2542C17.5362 25.2999 17.6195 25.33 17.7063 25.3424C17.793 25.3549 17.8814 25.3495 17.966 25.3266C18.0506 25.3037 18.1296 25.2638 18.1983 25.2094C18.2669 25.1549 18.3238 25.087 18.3653 25.0098C18.4086 24.9344 18.4367 24.8512 18.4479 24.765C18.4591 24.6787 18.4531 24.5911 18.4304 24.5072C18.4078 24.4232 18.3687 24.3446 18.3157 24.2757C18.2626 24.2068 18.1964 24.1492 18.121 24.1059L14.789 22.2035L14.5658 19.88L18.2352 22.3799C18.2352 22.3799 18.4086 22.3631 18.4952 22.3548C18.5819 22.3464 18.6159 22.5182 18.7183 22.4908C18.8206 22.4635 18.7016 22.3175 18.8716 22.2661C19.0417 22.2148 19.097 22.2445 19.149 22.2395C19.201 22.2345 19.1324 22.066 19.124 21.9793C19.1157 21.8926 19.2874 21.8587 19.2791 21.772L18.407 17.4283L20.5313 18.4141L21.2427 22.1783C21.259 22.264 21.292 22.3457 21.3398 22.4188C21.3877 22.4918 21.4495 22.5546 21.5216 22.6037C21.5937 22.6528 21.6749 22.6873 21.7603 22.705C21.8458 22.7228 21.9339 22.7236 22.0196 22.7073C22.1054 22.691 22.1871 22.658 22.2601 22.6102C22.333 22.5623 22.3959 22.5005 22.445 22.4283C22.4941 22.3562 22.5286 22.2751 22.5463 22.1896C22.5641 22.1041 22.5649 22.016 22.5486 21.9303L22.0121 19.0768L24.9961 20.4525C25.1563 20.5253 25.3387 20.5315 25.5034 20.4697C25.6681 20.4079 25.8015 20.2832 25.8743 20.1231C25.9471 19.9629 25.9533 19.7804 25.8915 19.6157C25.8298 19.451 25.7051 19.3175 25.545 19.2447L22.5453 17.8881L25.0622 16.4036C25.1875 16.3254 25.2831 16.2075 25.3336 16.0686C25.3842 15.9297 25.3868 15.7779 25.3411 15.6374C25.2954 15.4969 25.204 15.3757 25.0815 15.2931C24.9589 15.2106 24.8123 15.1713 24.6649 15.1818C24.5716 15.174 24.4777 15.1831 24.3875 15.2085L21.0751 17.1544L18.9526 16.1859L22.7907 14.067C22.8774 14.0587 22.7741 13.8935 22.8541 13.8159C22.9341 13.7382 23.0448 13.7975 23.0885 13.7058C23.1321 13.6141 23.0718 13.5324 22.9578 13.4384C22.8438 13.3443 23.0988 13.2674 23.0368 13.1683C22.9748 13.0693 22.8518 13.0637 22.7585 13.0026C22.6651 12.9416 22.7468 12.8812 22.7451 12.8639L18.5739 11.5148L20.4734 10.1597L24.0938 11.4217C24.2593 11.4769 24.4399 11.4645 24.5963 11.3872C24.7527 11.3099 24.8723 11.174 24.929 11.009C24.962 10.9284 24.9779 10.8418 24.9756 10.7548C24.9733 10.6677 24.9529 10.5821 24.9157 10.5033C24.8786 10.4246 24.8254 10.3544 24.7596 10.2974C24.6938 10.2403 24.6169 10.1976 24.5337 10.1719L21.782 9.21149L24.4686 7.30825C24.5729 7.25092 24.6603 7.1671 24.7221 7.06535C24.7839 6.9636 24.8178 6.84747 24.8206 6.72846C24.8233 6.60946 24.7948 6.49184 24.7377 6.38736C24.6807 6.28287 24.5973 6.19518 24.4957 6.13311ZM5.57917 14.8463L8.89322 12.9177L11.8029 14.248L9.28231 16.2404L5.57917 14.8463ZM12.93 18.5147L9.99131 21.0722L10.079 17.2487L12.6823 15.3886L12.93 18.5147ZM12.4038 13.0354L9.55444 11.7867L8.78433 7.95822L12.1577 9.92642L12.4038 13.0354ZM13.4166 9.73554L16.3536 7.16069L16.3263 11.0658L13.7213 12.9087L13.4166 9.73554ZM14.2493 18.4054L13.9478 15.2669L16.8575 16.5972L17.6259 20.4084L14.2493 18.4054ZM20.7674 13.4039L17.4534 15.3324L14.5074 13.9882L17.1106 12.1279L20.7674 13.4039Z" fill="white" fill-opacity="0.5"/>
</svg>
