<svg width="38" height="41" viewBox="0 0 38 41" fill="none" xmlns="http://www.w3.org/2000/svg">
<path d="M35.2939 8.62153C35.1974 8.48158 35.0647 8.37048 34.91 8.30014C34.7553 8.22979 34.5843 8.2028 34.4155 8.22213C34.2462 8.2323 34.0837 8.2922 33.9483 8.39434L30.0644 11.1612L30.0406 6.9367C30.0376 6.68422 29.9357 6.44299 29.7567 6.26494C29.5777 6.08689 29.336 5.98621 29.0836 5.98467C28.8458 6.0062 28.6244 6.11539 28.4625 6.29092C28.3006 6.46646 28.2097 6.69574 28.2074 6.93455L28.236 12.5338L25.3713 14.5151L25.4166 8.09407C25.402 7.94269 25.1978 7.93681 25.1377 7.84074C25.0775 7.74467 25.2648 7.57395 25.1013 7.46235C25.0196 7.37581 24.9208 7.30713 24.8111 7.26069C24.7015 7.21425 24.5835 7.19109 24.4644 7.19257C24.2569 7.20877 24.0598 7.29004 23.9012 7.42488L19.0888 11.6559L18.764 8.27515L22.8886 4.56854C23.0433 4.43491 23.1514 4.25555 23.1974 4.05638C23.2434 3.85722 23.2248 3.64856 23.1444 3.46065C23.064 3.27274 22.9259 3.11529 22.7501 3.01108C22.5743 2.90687 22.3699 2.86136 22.1665 2.88103C21.9668 2.89653 21.7777 2.97728 21.6285 3.11092L18.4402 5.96361L17.9847 1.22046C17.9726 1.09456 17.9358 0.972221 17.8765 0.860531C17.8171 0.748841 17.7364 0.649957 17.6388 0.569485C17.5413 0.489012 17.4288 0.428572 17.3079 0.391569C17.187 0.354566 17.0599 0.341766 16.9341 0.353865C16.8082 0.365964 16.6859 0.402725 16.5743 0.462084C16.4626 0.521443 16.3637 0.602103 16.2832 0.699686C16.2028 0.797269 16.1423 0.909856 16.1053 1.03081C16.0683 1.15176 16.0555 1.27876 16.0676 1.40467L16.5231 6.14794L12.8503 3.9547C12.6783 3.85192 12.4773 3.80858 12.2783 3.8314C12.0749 3.85083 11.8829 3.93448 11.7302 4.07027C11.5774 4.20606 11.4718 4.38692 11.4286 4.58671C11.3855 4.78651 11.407 4.99483 11.49 5.1816C11.573 5.36836 11.7133 5.5239 11.8906 5.62562L16.7388 8.39345L17.0635 11.7742L11.5338 8.53721C11.3524 8.43504 11.1435 8.39272 10.9367 8.41634C10.8195 8.43756 10.708 8.48287 10.6093 8.54933C10.5105 8.6158 10.4265 8.70212 10.3627 8.80265C10.3627 8.80265 10.3846 9.02966 10.3991 9.18104C10.4136 9.33242 10.159 9.3315 10.1735 9.48288L11.3463 15.8631L8.23269 14.4563L7.19511 8.95425C7.14739 8.72025 7.01446 8.51235 6.82211 8.37087C6.62977 8.22938 6.39173 8.16441 6.15418 8.18858C5.90665 8.23817 5.68849 8.38305 5.54666 8.59194C5.40483 8.80084 5.3507 9.05699 5.39589 9.3054L6.17648 13.4573L1.83708 11.4808C1.68473 11.4063 1.51378 11.3785 1.34568 11.4008C1.17622 11.414 1.01354 11.4729 0.875026 11.5715C0.736512 11.67 0.627379 11.8044 0.559299 11.9601C0.459569 12.1939 0.453718 12.4571 0.542945 12.6951C0.632173 12.9331 0.809617 13.1276 1.03845 13.2381L5.40309 15.2121L1.73854 17.3467C1.62681 17.4065 1.52874 17.4888 1.45057 17.5885C1.37241 17.6882 1.31586 17.8032 1.28455 17.926C1.25323 18.0488 1.24783 18.1768 1.26868 18.3018C1.28952 18.4268 1.33617 18.546 1.40564 18.6519C1.53236 18.8719 1.74079 19.033 1.9856 19.1001C2.23042 19.1671 2.49181 19.1348 2.71292 19.0101L7.53497 16.2039L10.6234 17.6132L5.03877 20.6963C5.03877 20.6963 5.05331 20.8475 5.05815 20.898C5.063 20.9485 4.75546 20.9272 4.70644 21.212C4.65742 21.4968 4.85436 21.427 4.89412 21.5759C4.93389 21.7249 4.69134 21.85 4.78155 21.9941C4.87177 22.1382 5.00856 21.9723 5.1468 22.0864C5.28504 22.2004 5.17347 22.3639 5.30686 22.4274L11.3761 24.3904L8.61237 26.3619L3.34205 24.5006C3.20628 24.4893 3.0696 24.5023 2.93846 24.5393C2.75593 24.5526 2.58162 24.6205 2.43818 24.7342C2.29473 24.8479 2.1888 25.0021 2.13413 25.1768C2.08609 25.294 2.063 25.42 2.06632 25.5467C2.06964 25.6733 2.0993 25.798 2.15341 25.9125C2.20752 26.0271 2.2849 26.1292 2.38061 26.2122C2.47632 26.2952 2.58827 26.3573 2.70932 26.3947L6.71554 27.8174L2.80644 30.5867C2.60284 30.7388 2.46563 30.9636 2.42333 31.2142C2.38103 31.4648 2.43689 31.7222 2.57929 31.9327C2.73136 32.1363 2.95601 32.2736 3.20659 32.3158C3.45717 32.3581 3.71442 32.3022 3.9249 32.1598L7.80637 29.3677L7.83022 33.5922C7.83901 33.8456 7.9424 34.0865 8.12 34.2674C8.29759 34.4483 8.53652 34.556 8.78964 34.5694C9.04672 34.5596 9.29045 34.4525 9.47143 34.2696C9.65241 34.0867 9.75709 33.8419 9.76427 33.5846L9.73811 28.0108L12.4994 26.0139L12.4566 32.46C12.4687 32.5862 12.673 32.5921 12.7355 32.7134C12.7981 32.8347 12.6084 32.9803 12.7719 33.0919C12.9353 33.2035 13.0241 33.0676 13.1755 33.0531C13.3268 33.0385 13.2045 33.3558 13.4568 33.3316C13.709 33.3074 13.6164 33.138 13.7377 33.0754C13.859 33.0129 14.0045 33.2026 14.1161 33.0391L18.9285 28.808L19.2532 32.1888L15.0205 35.8294C14.9248 35.9121 14.8463 36.0129 14.7895 36.126C14.7327 36.2391 14.6988 36.3622 14.6896 36.4884C14.6805 36.6147 14.6963 36.7415 14.7361 36.8616C14.776 36.9817 14.8391 37.0928 14.9219 37.1885C15.0026 37.2872 15.1026 37.3685 15.2157 37.4273C15.3289 37.486 15.4528 37.521 15.58 37.5302C15.7072 37.5394 15.8349 37.5226 15.9554 37.4808C16.0758 37.4389 16.1865 37.3731 16.2806 37.287L19.4689 34.4343L19.9268 39.2027C19.9513 39.4569 20.0757 39.6911 20.2727 39.8536C20.4697 40.0162 20.7232 40.0938 20.9775 40.0694C21.2317 40.0449 21.4658 39.9205 21.6283 39.7234C21.7908 39.5264 21.8683 39.2727 21.8439 39.0185L21.386 34.25L25.0589 36.4432C25.1676 36.5098 25.2888 36.5535 25.415 36.5717C25.5412 36.5898 25.6698 36.5819 25.7929 36.5486C25.916 36.5154 26.031 36.4573 26.1309 36.3781C26.2308 36.2988 26.3136 36.1999 26.374 36.0876C26.437 35.9779 26.4778 35.8569 26.4941 35.7315C26.5104 35.606 26.5017 35.4785 26.4687 35.3563C26.4357 35.2342 26.379 35.1198 26.3017 35.0195C26.2245 34.9193 26.1282 34.8354 26.0185 34.7724L21.1703 32.0045L20.8456 28.6237L26.1846 32.261C26.1846 32.261 26.4369 32.2367 26.563 32.2245C26.6892 32.2124 26.7386 32.4623 26.8875 32.4225C27.0365 32.3827 26.8633 32.1703 27.1107 32.0956C27.3581 32.0209 27.4386 32.064 27.5143 32.0568C27.59 32.0495 27.4901 31.8044 27.478 31.6783C27.4658 31.5521 27.7157 31.5027 27.7035 31.3765L26.4347 25.0564L29.5255 26.4907L30.5607 31.9677C30.5843 32.0925 30.6324 32.2114 30.702 32.3176C30.7716 32.4238 30.8615 32.5153 30.9665 32.5868C31.0714 32.6582 31.1895 32.7083 31.3138 32.7342C31.4381 32.76 31.5663 32.7611 31.6911 32.7374C31.8158 32.7137 31.9347 32.6658 32.0409 32.5962C32.1471 32.5265 32.2386 32.4365 32.3101 32.3315C32.3815 32.2265 32.4316 32.1086 32.4575 31.9842C32.4833 31.8599 32.4845 31.7316 32.4608 31.6069L31.6802 27.455L36.022 29.4566C36.255 29.5626 36.5205 29.5716 36.7601 29.4817C36.9998 29.3918 37.1939 29.2104 37.2998 28.9773C37.4057 28.7443 37.4147 28.4788 37.3248 28.2391C37.235 27.9994 37.0536 27.8053 36.8206 27.6993L32.456 25.7253L36.1181 23.5654C36.3005 23.4515 36.4395 23.28 36.5131 23.078C36.5866 22.8759 36.5905 22.655 36.524 22.4505C36.4575 22.2461 36.3245 22.0698 36.1462 21.9496C35.9679 21.8295 35.7545 21.7724 35.5401 21.7876C35.4043 21.7763 35.2676 21.7895 35.1365 21.8264L30.3169 24.6578L27.2284 23.2486L32.8131 20.1656C32.9392 20.1535 32.7888 19.9132 32.9053 19.8002C33.0217 19.6871 33.1827 19.7735 33.2463 19.6401C33.3099 19.5066 33.2221 19.3877 33.0562 19.2509C32.8903 19.1141 33.2614 19.0021 33.1712 18.858C33.081 18.7139 32.902 18.7057 32.7661 18.6169C32.6303 18.5281 32.7492 18.4403 32.7468 18.415L26.6775 16.4521L29.4413 14.4804L34.7091 16.3166C34.95 16.3968 35.2127 16.3789 35.4403 16.2664C35.6678 16.1539 35.8418 15.9562 35.9243 15.7161C35.9724 15.5988 35.9955 15.4729 35.9922 15.3462C35.9888 15.2195 35.9592 15.0949 35.9051 14.9803C35.8509 14.8657 35.7736 14.7637 35.6779 14.6807C35.5822 14.5977 35.4702 14.5354 35.3491 14.4981L31.3454 13.1007L35.2545 10.3314C35.4062 10.248 35.5334 10.126 35.6233 9.97797C35.7132 9.82992 35.7626 9.66094 35.7666 9.48779C35.7706 9.31463 35.729 9.1435 35.6461 8.99147C35.5631 8.83944 35.4417 8.71185 35.2939 8.62153ZM7.76976 21.2994L12.5918 18.4934L16.8255 20.429L13.1579 23.3279L7.76976 21.2994ZM18.4655 26.6371L14.1895 30.3583L14.3172 24.7951L18.105 22.0886L18.4655 26.6371ZM17.6998 18.6645L13.5539 16.8477L12.4334 11.2771L17.3417 14.1409L17.6998 18.6645ZM19.1734 13.8632L23.4469 10.1167L23.4071 15.7988L19.6169 18.4802L19.1734 13.8632ZM20.385 26.4781L19.9464 21.9115L24.1801 23.8471L25.2982 29.3924L20.385 26.4781ZM29.8692 19.2008L25.0471 22.0068L20.7606 20.0509L24.5484 17.3441L29.8692 19.2008Z" fill="white" fill-opacity="0.5"/>
</svg>
