<svg width="26" height="29" viewBox="0 0 26 29" fill="none" xmlns="http://www.w3.org/2000/svg">
<path d="M24.4772 6.6126C24.4109 6.51641 24.3197 6.44006 24.2133 6.39172C24.107 6.34337 23.9895 6.32482 23.8734 6.3381C23.7571 6.3451 23.6454 6.38626 23.5524 6.45646L20.8831 8.35803L20.8667 5.45466C20.8647 5.28114 20.7946 5.11536 20.6716 4.99298C20.5486 4.87061 20.3825 4.80142 20.209 4.80037C20.0456 4.81516 19.8934 4.8902 19.7822 5.01084C19.6709 5.13148 19.6084 5.28906 19.6068 5.45319L19.6265 9.30136L17.6577 10.6631L17.6888 6.25009C17.6788 6.14605 17.5384 6.14201 17.4971 6.07598C17.4558 6.00996 17.5844 5.89263 17.4721 5.81593C17.4159 5.75645 17.348 5.70925 17.2727 5.67733C17.1973 5.64542 17.1162 5.6295 17.0344 5.63052C16.8918 5.64165 16.7563 5.6975 16.6473 5.79018L13.3398 8.69807L13.1167 6.37454L15.9514 3.8271C16.0577 3.73526 16.132 3.61199 16.1636 3.47511C16.1952 3.33823 16.1824 3.19482 16.1272 3.06568C16.0719 2.93653 15.977 2.82832 15.8562 2.7567C15.7353 2.68508 15.5949 2.6538 15.4551 2.66732C15.3178 2.67797 15.1879 2.73347 15.0853 2.82532L12.8941 4.78589L12.581 1.52606C12.5727 1.43953 12.5475 1.35545 12.5067 1.27869C12.4659 1.20193 12.4104 1.13397 12.3433 1.07866C12.2763 1.02336 12.199 0.981817 12.1159 0.956385C12.0328 0.930954 11.9455 0.922157 11.859 0.930472C11.7725 0.938788 11.6884 0.964052 11.6117 1.00485C11.5349 1.04564 11.467 1.10108 11.4117 1.16815C11.3564 1.23521 11.3148 1.31259 11.2894 1.39571C11.264 1.47884 11.2552 1.56613 11.2635 1.65266L11.5766 4.91257L9.05229 3.40522C8.93413 3.33459 8.796 3.3048 8.65924 3.32048C8.51942 3.33384 8.38748 3.39133 8.28249 3.48465C8.17751 3.57798 8.10493 3.70228 8.07525 3.83959C8.04558 3.9769 8.06035 4.12008 8.11743 4.24843C8.1745 4.37679 8.27092 4.48369 8.39275 4.5536L11.7248 6.45585L11.9479 8.77937L8.14752 6.55465C8.02288 6.48443 7.87926 6.45535 7.73713 6.47158C7.65662 6.48616 7.58001 6.5173 7.51212 6.56298C7.44423 6.60866 7.38655 6.66799 7.3427 6.73708C7.3427 6.73708 7.35769 6.8931 7.36768 6.99714C7.37767 7.10118 7.20265 7.10054 7.21264 7.20458L8.0187 11.5895L5.87877 10.6227L5.16568 6.84127C5.13288 6.68045 5.04152 6.53757 4.90933 6.44033C4.77713 6.34309 4.61353 6.29844 4.45028 6.31504C4.28016 6.34913 4.13022 6.4487 4.03274 6.59227C3.93527 6.73583 3.89806 6.91188 3.92912 7.08261L4.4656 9.93605L1.48325 8.57771C1.37855 8.52652 1.26106 8.5074 1.14553 8.5227C1.02907 8.53176 0.917259 8.57229 0.822063 8.64C0.726866 8.70772 0.651862 8.80007 0.605073 8.90712C0.536531 9.0678 0.53251 9.24868 0.593833 9.41225C0.655157 9.57582 0.777109 9.70948 0.934376 9.78545L3.93407 11.1421L1.41553 12.6092C1.33874 12.6502 1.27134 12.7068 1.21762 12.7753C1.1639 12.8439 1.12504 12.9229 1.10352 13.0073C1.08199 13.0917 1.07828 13.1797 1.09261 13.2656C1.10693 13.3515 1.139 13.4334 1.18674 13.5062C1.27383 13.6574 1.41708 13.7681 1.58533 13.8142C1.75358 13.8603 1.93323 13.8381 2.0852 13.7524L5.39925 11.8238L7.52184 12.7923L3.68368 14.9112C3.68368 14.9112 3.69368 15.0152 3.69701 15.0499C3.70034 15.0845 3.48897 15.0699 3.45528 15.2656C3.42159 15.4614 3.55695 15.4134 3.58427 15.5158C3.6116 15.6182 3.44491 15.7041 3.50691 15.8032C3.56891 15.9022 3.66292 15.7882 3.75793 15.8666C3.85294 15.945 3.77626 16.0573 3.86794 16.101L8.03915 17.4501L6.13972 18.8051L2.51758 17.5258C2.42427 17.5181 2.33033 17.527 2.2402 17.5524C2.11476 17.5615 1.99495 17.6082 1.89637 17.6864C1.79779 17.7645 1.72498 17.8705 1.68741 17.9905C1.65439 18.0711 1.63852 18.1577 1.6408 18.2447C1.64309 18.3318 1.66347 18.4175 1.70066 18.4962C1.73785 18.575 1.79103 18.6451 1.85681 18.7021C1.92259 18.7592 1.99953 18.8019 2.08272 18.8276L4.83608 19.8054L2.14947 21.7086C2.00954 21.8131 1.91524 21.9676 1.88617 22.1399C1.8571 22.3122 1.89549 22.489 1.99335 22.6337C2.09787 22.7736 2.25226 22.868 2.42448 22.897C2.5967 22.9261 2.7735 22.8876 2.91816 22.7897L5.58577 20.8709L5.60217 23.7742C5.60821 23.9484 5.67927 24.1139 5.80132 24.2383C5.92338 24.3626 6.08759 24.4366 6.26155 24.4458C6.43823 24.4391 6.60574 24.3655 6.73012 24.2398C6.85451 24.1141 6.92645 23.9458 6.93138 23.769L6.9134 19.9383L8.81117 18.5659L8.78176 22.9961C8.79009 23.0828 8.93045 23.0869 8.97345 23.1702C9.01644 23.2536 8.88608 23.3537 8.99842 23.4304C9.11076 23.5071 9.17178 23.4137 9.2758 23.4037C9.37982 23.3937 9.29578 23.6118 9.46915 23.5951C9.64251 23.5785 9.57884 23.4621 9.66219 23.4191C9.74555 23.3761 9.84555 23.5064 9.92224 23.3941L13.2297 20.4862L13.4529 22.8097L10.5438 25.3118C10.478 25.3686 10.4241 25.4379 10.3851 25.5156C10.3461 25.5933 10.3227 25.678 10.3165 25.7647C10.3102 25.8515 10.321 25.9387 10.3484 26.0212C10.3758 26.1037 10.4192 26.1801 10.4761 26.2458C10.5315 26.3137 10.6002 26.3696 10.678 26.41C10.7558 26.4504 10.841 26.4744 10.9284 26.4807C11.0158 26.487 11.1036 26.4755 11.1864 26.4467C11.2691 26.418 11.3452 26.3727 11.4099 26.3135L13.6011 24.353L13.9158 27.6301C13.9326 27.8049 14.0181 27.9658 14.1535 28.0775C14.2889 28.1892 14.4632 28.2426 14.6379 28.2258C14.8126 28.209 14.9735 28.1235 15.0852 27.988C15.1969 27.8526 15.2502 27.6783 15.2334 27.5035L14.9186 24.2263L17.4429 25.7336C17.5177 25.7794 17.601 25.8095 17.6877 25.8219C17.7744 25.8344 17.8628 25.829 17.9474 25.8061C18.032 25.7832 18.1111 25.7433 18.1797 25.6889C18.2484 25.6344 18.3052 25.5664 18.3468 25.4893C18.3901 25.4139 18.4181 25.3307 18.4293 25.2445C18.4405 25.1582 18.4346 25.0706 18.4119 24.9867C18.3892 24.9027 18.3502 24.8241 18.2971 24.7552C18.244 24.6863 18.1779 24.6286 18.1025 24.5854L14.7704 22.683L14.5473 20.3595L18.2166 22.8594C18.2166 22.8594 18.39 22.8426 18.4767 22.8343C18.5634 22.8259 18.5974 22.9977 18.6997 22.9703C18.8021 22.943 18.6831 22.797 18.8531 22.7456C19.0231 22.6943 19.0785 22.724 19.1305 22.719C19.1825 22.714 19.1138 22.5455 19.1055 22.4588C19.0972 22.3721 19.2689 22.3382 19.2605 22.2515L18.3885 17.9078L20.5127 18.8936L21.2241 22.6578C21.2404 22.7435 21.2734 22.8252 21.3213 22.8982C21.3691 22.9712 21.4309 23.0341 21.503 23.0832C21.5752 23.1323 21.6563 23.1667 21.7417 23.1845C21.8272 23.2023 21.9153 23.2031 22.0011 23.1868C22.0868 23.1705 22.1685 23.1375 22.2415 23.0897C22.3145 23.0418 22.3773 22.98 22.4265 22.9078C22.4756 22.8356 22.51 22.7546 22.5278 22.6691C22.5456 22.5836 22.5463 22.4955 22.53 22.4098L21.9936 19.5563L24.9776 20.932C25.1377 21.0048 25.3202 21.011 25.4849 20.9492C25.6496 20.8874 25.783 20.7627 25.8558 20.6026C25.9285 20.4424 25.9347 20.2599 25.873 20.0952C25.8112 19.9305 25.6866 19.797 25.5264 19.7242L22.5268 18.3676L25.0436 16.8831C25.169 16.8048 25.2645 16.687 25.3151 16.5481C25.3656 16.4092 25.3683 16.2574 25.3226 16.1169C25.2769 15.9763 25.1855 15.8552 25.0629 15.7726C24.9404 15.6901 24.7937 15.6508 24.6464 15.6613C24.553 15.6535 24.4591 15.6626 24.369 15.688L21.0566 17.6339L18.934 16.6653L22.7721 14.5465C22.8588 14.5382 22.7555 14.373 22.8355 14.2953C22.9155 14.2177 23.0262 14.277 23.0699 14.1853C23.1136 14.0936 23.0533 14.0119 22.9392 13.9179C22.8252 13.8238 23.0803 13.7468 23.0183 13.6478C22.9563 13.5488 22.8333 13.5431 22.7399 13.4821C22.6466 13.4211 22.7283 13.3607 22.7266 13.3434L18.5554 11.9943L20.4548 10.6392L24.0753 11.9012C24.2408 11.9564 24.4214 11.944 24.5778 11.8667C24.7342 11.7894 24.8537 11.6535 24.9104 11.4885C24.9435 11.4079 24.9593 11.3213 24.9571 11.2343C24.9548 11.1472 24.9344 11.0616 24.8972 10.9828C24.86 10.9041 24.8068 10.8339 24.7411 10.7769C24.6753 10.7198 24.5983 10.6771 24.5151 10.6514L21.7634 9.69098L24.4501 7.78774C24.5544 7.73042 24.6418 7.64659 24.7035 7.54484C24.7653 7.44309 24.7993 7.32696 24.802 7.20795C24.8048 7.08895 24.7762 6.97134 24.7192 6.86685C24.6622 6.76236 24.5787 6.67467 24.4772 6.6126ZM5.56062 15.3258L8.87467 13.3972L11.7844 14.7275L9.26375 16.7198L5.56062 15.3258ZM12.9115 18.9942L9.97275 21.5517L10.0605 17.7282L12.6637 15.8681L12.9115 18.9942ZM12.3852 13.5149L9.53588 12.2662L8.76578 8.43772L12.1391 10.4059L12.3852 13.5149ZM13.398 10.215L16.3351 7.64018L16.3077 11.5453L13.7028 13.3882L13.398 10.215ZM14.2307 18.8849L13.9293 15.7464L16.839 17.0767L17.6074 20.8879L14.2307 18.8849ZM20.7489 13.8834L17.4348 15.8119L14.4888 14.4677L17.0921 12.6074L20.7489 13.8834Z" fill="white" fill-opacity="0.5"/>
</svg>
