<svg width="95" height="43" viewBox="0 0 95 43" fill="none" xmlns="http://www.w3.org/2000/svg">
<g clip-path="url(#clip0_1173_4639)">
<path d="M86.7085 17.3005C86.5589 15.8327 86.9979 14.3654 87.9291 13.221C88.8604 12.0765 90.2078 11.3485 91.6754 11.1967L91.4064 8.55744C91.1868 6.40338 90.1204 4.42479 88.442 3.05692C86.7636 1.68906 84.6105 1.04396 82.4564 1.26357L8.27251 8.82677C7.20115 8.92947 6.16067 9.24302 5.21093 9.74933C4.26119 10.2556 3.42093 10.9447 2.73849 11.777C2.05606 12.6092 1.54492 13.5682 1.23449 14.5988C0.924052 15.6293 0.820441 16.711 0.929623 17.7817L1.1987 20.421C2.66797 20.2712 4.13657 20.7112 5.28142 21.6442C6.42628 22.5772 7.1536 23.9268 7.30339 25.396C7.45319 26.8653 7.01319 28.3339 6.08018 29.4788C5.14717 30.6236 3.79758 31.351 2.32831 31.5008L2.59738 34.1399C2.70652 35.2107 3.0263 36.2493 3.53832 37.1959C4.05033 38.1426 4.74448 38.9787 5.58083 39.6561C6.41717 40.3335 7.37921 40.8389 8.41159 41.1431C9.44397 41.4473 10.5263 41.5444 11.5964 41.4288L85.7803 33.8656C87.9343 33.646 89.9129 32.5797 91.2808 30.9012C92.6486 29.2228 93.2937 27.0697 93.0741 24.9157L92.805 22.2765C91.337 22.424 89.8704 21.9828 88.7273 21.0498C87.5842 20.1168 86.8582 18.7684 86.7085 17.3005Z" fill="#8C3CFF"/>
</g>
<path d="M28.735 27.9008C28.7549 28.0958 28.8816 28.0969 28.9513 28.0898L31.2354 27.857C31.4443 27.8357 31.4512 27.7646 31.4441 27.695L30.5026 18.4608L30.4984 18.419C30.4913 18.3494 30.4702 18.2812 30.2613 18.3025L27.9911 18.5339C27.8936 18.5439 27.7822 18.5552 27.8049 18.7781L28.1968 22.6222C27.9603 22.787 27.6903 22.899 27.356 22.933C26.9382 22.9756 26.4337 22.8582 26.3414 21.9529L26.0318 18.9166C26.0133 18.7356 25.888 18.7483 25.8323 18.754L23.5063 18.9912C23.4367 18.9983 23.3114 19.011 23.3341 19.2339L23.6862 22.688C23.753 23.3426 23.8532 24.0501 24.5982 24.5933C25.2832 25.1005 26.1413 25.0974 26.7123 25.0392C27.3948 24.9696 27.8987 24.8056 28.3885 24.5024L28.735 27.9008ZM37.9888 17.8524C37.9956 17.7813 38.0024 17.7103 37.9982 17.6685C37.9868 17.5571 37.9268 17.521 37.7179 17.5423L32.2861 18.096C32.0215 18.123 31.9979 18.1677 32.022 18.4044L32.9379 27.3879C32.9649 27.6525 32.9956 27.6775 33.2602 27.6505L38.5806 27.1081C38.8452 27.0811 38.8563 27.0518 38.8293 26.7872L38.6646 25.1716C38.6405 24.9348 38.6223 24.8945 38.3577 24.9214L35.4468 25.2182L35.2806 23.5887L37.523 23.36C37.7598 23.3359 37.8112 23.2884 37.7871 23.0517L37.6238 21.45C37.5968 21.1853 37.5383 21.1632 37.3015 21.1873L35.0591 21.4159L34.9171 20.0231L37.633 19.7462C37.8141 19.7278 37.9087 19.69 37.9167 19.4922L37.9888 17.8524ZM42.4522 22.759L42.9257 22.7107C43.4689 22.6553 43.8191 22.9152 43.9566 23.4359L44.3257 24.8477C44.7664 26.5478 46.2459 26.5658 47.179 26.4707C47.4297 26.4451 47.4477 26.3448 47.4781 26.2291L47.819 24.6042C47.8301 24.5749 47.8287 24.561 47.8259 24.5331C47.8131 24.4078 47.6835 24.3788 47.5971 24.3594L47.3114 24.3182C47.0243 24.263 46.7415 24.2496 46.5312 23.5674L46.2971 22.7892C46.1036 22.1334 45.6415 21.6036 44.8652 21.4435L44.861 21.4017C45.55 21.1203 45.7842 20.5195 45.8377 20.0778L45.9199 19.3658C45.9635 18.8266 46.1482 18.5685 46.474 18.4509L46.8262 18.3164C46.8665 18.2983 46.9737 18.2451 46.9609 18.1198C46.9581 18.0919 46.9552 18.064 46.9385 18.0376L46.3562 16.6053C46.3016 16.4842 46.1985 16.4384 45.9756 16.4611C44.9867 16.562 43.7761 17.2483 43.6577 18.7098L43.5883 19.5472C43.5465 20.241 43.3048 20.6315 42.692 20.694L42.2463 20.7395L41.8942 17.2854C41.8828 17.1739 41.8214 17.1239 41.71 17.1353L39.398 17.371C39.2448 17.3866 39.1794 17.4355 39.1964 17.6026L40.1251 26.7114C40.1393 26.8507 40.1631 26.9468 40.3721 26.9255L42.698 26.6883C42.7676 26.6812 42.847 26.6309 42.8342 26.5056L42.4522 22.759ZM50.5975 18.4245L53.5084 18.1277C53.6199 18.1163 53.7842 18.0715 53.8061 17.8722L53.9435 16.1836C53.9392 16.1418 53.9614 16.0832 53.9557 16.0275C53.9486 15.9579 53.8997 15.8925 53.7326 15.9095L48.0361 16.4903C47.9108 16.5031 47.7604 16.5466 47.786 16.7973L48.7033 25.7946C48.7161 25.92 48.7595 26.0703 49.0102 26.0448L52.0604 25.7338C53.3139 25.606 55.5754 25.1503 55.2885 22.3369C55.2246 21.7101 55.0098 20.8454 54.2774 20.2869C53.485 19.6922 52.4333 19.729 51.7926 19.7943L50.748 19.9008L50.5975 18.4245ZM50.9355 21.7393L51.5622 21.6754C52.1193 21.6186 52.6742 21.8153 52.7523 22.5814C52.846 23.5006 52.1749 23.6816 51.576 23.7427L51.1442 23.7867L50.9355 21.7393ZM55.6814 24.3514C55.6717 24.3946 55.662 24.4378 55.6663 24.4796C55.6975 24.786 56.403 25.08 56.7947 25.1948C57.3898 25.3734 58.0223 25.3652 58.4819 25.3184C59.2897 25.236 60.2937 25.007 61.033 24.1154C62.0212 22.9029 61.973 21.0503 61.848 19.8246C61.7344 18.7104 61.4595 16.9793 60.187 15.9551C59.375 15.3061 58.4762 15.1867 57.5849 15.2776C56.5124 15.3869 54.8967 16.2412 54.9493 16.7565C54.9535 16.7983 54.9578 16.8401 54.9899 16.879L55.7723 18.0658C55.7905 18.1061 55.8505 18.1422 55.9201 18.1351C55.9898 18.128 56.6765 17.4107 57.4565 17.3312C58.6961 17.2048 58.9802 18.6112 59.0313 19.1126L56.9003 19.3299C56.7889 19.3412 56.6971 19.4069 56.7142 19.574L56.8703 21.1061C56.8817 21.2175 56.9127 21.3832 57.0937 21.3648L59.2247 21.1475C59.3198 22.0807 59.0699 23.2179 57.9835 23.3286C57.6492 23.3627 57.2118 23.351 56.6581 23.0275L56.4489 22.9081C56.3597 22.8609 56.3165 22.8513 56.2747 22.8555C56.219 22.8612 56.1954 22.9058 56.1829 22.9212L55.6814 24.3514ZM65.9146 20.3669L66.3881 20.3187C66.9313 20.2633 67.2815 20.5231 67.419 21.0439L67.7881 22.4557C68.2288 24.1558 69.7082 24.1738 70.6414 24.0787C70.8921 24.0531 70.91 23.9528 70.9404 23.8371L71.2814 22.2121C71.2925 22.1829 71.2911 22.1689 71.2882 22.1411C71.2754 22.0157 71.1458 21.9867 71.0594 21.9674L70.7738 21.9261C70.4867 21.871 70.2039 21.8576 69.9936 21.1754L69.7595 20.3971C69.5659 19.7414 69.1038 19.2115 68.3276 19.0514L68.3233 19.0096C69.0123 18.7283 69.2466 18.1274 69.3001 17.6857L69.3823 16.9737C69.4258 16.4345 69.6106 16.1765 69.9363 16.0588L70.2885 15.9244C70.3289 15.9062 70.4361 15.8531 70.4233 15.7277C70.4204 15.6999 70.4176 15.672 70.4008 15.6456L69.8186 14.2132C69.764 14.0922 69.6608 14.0464 69.438 14.0691C68.4491 14.1699 67.2385 14.8563 67.1201 16.3178L67.0507 17.1552C67.0088 17.849 66.7672 18.2395 66.1544 18.302L65.7087 18.3474L65.3565 14.8933C65.3452 14.7819 65.2838 14.7319 65.1723 14.7432L62.8603 14.9789C62.7071 14.9946 62.6417 15.0434 62.6588 15.2106L63.5874 24.3194C63.6016 24.4586 63.6255 24.5547 63.8344 24.5334L66.1604 24.2963C66.23 24.2892 66.3093 24.2389 66.2965 24.1135L65.9146 20.3669Z" fill="white"/>
<defs>
<clipPath id="clip0_1173_4639">
<rect width="90.9047" height="32.7792" fill="white" transform="translate(0.101562 9.82178) rotate(-6.02381)"/>
</clipPath>
</defs>
</svg>
