<svg width="202" height="37" viewBox="0 0 202 37" fill="none" xmlns="http://www.w3.org/2000/svg">
<g filter="url(#filter0_f_1119:1891)">
<rect x="10" y="2.65625" width="183" height="32.2941" rx="16.1471" fill="#810317"/>
</g>
<rect x="10" y="1" width="183" height="32.2941" rx="16.1471" fill="url(#paint0_radial_1119:1891)"/>
<path d="M36.0951 14.4637H39.3911C39.7751 14.4637 39.7271 14.2877 39.7271 14.1277V13.1037C39.7271 12.9597 39.7751 12.7837 39.3911 12.7837H34.6391C34.4631 12.7837 34.3991 12.7677 34.3671 13.0877L33.8551 18.5117C33.8391 18.6237 33.9991 18.6877 34.1111 18.7197L35.0711 19.0237C35.2311 19.0717 35.2791 19.0557 35.3111 19.0557C35.6791 19.0557 35.8231 18.2077 36.9911 18.2077C38.2071 18.2077 38.6711 18.9277 38.6711 19.8717C38.6711 21.2797 37.6311 22.0157 36.2871 22.0157C35.4071 22.0157 34.7351 21.7277 34.5431 21.6637C34.2871 21.5677 34.2231 21.5357 34.1111 21.5357C33.9991 21.5357 33.9671 21.6317 33.9671 21.6797L33.7591 22.8477C33.6151 23.6637 35.8711 23.7437 36.3671 23.7437C39.1351 23.7437 40.5111 21.9037 40.5111 19.8397C40.5111 17.6157 39.0391 16.5277 37.4551 16.5277C36.6231 16.5277 36.1751 16.7997 35.9031 16.9597L35.8231 17.0077L36.0951 14.4637ZM45.1301 18.6397L48.8101 23.5517C48.8901 23.6637 48.9541 23.7437 49.0501 23.7437C49.1141 23.7437 49.1941 23.7117 49.2741 23.6797L50.6501 22.9757C50.7621 22.9117 50.8581 22.8637 50.8581 22.7517C50.8581 22.6877 50.8261 22.6237 50.7461 22.5277L46.9861 17.8557L50.3941 13.3597C50.4421 13.2957 50.5061 13.2317 50.5061 13.1357C50.5061 13.0237 50.4261 12.9757 50.3621 12.9437L49.1141 12.3197C49.0501 12.2877 49.0021 12.2397 48.9221 12.2397C48.8101 12.2397 48.7301 12.3357 48.6501 12.4477L45.1301 17.3277H45.0981V12.8317C45.0981 12.6877 45.0661 12.5117 44.7781 12.5117H43.2421C43.0981 12.5117 42.9221 12.5437 42.9221 12.8317V23.1517C42.9221 23.2957 42.9541 23.4717 43.2421 23.4717H44.7781C45.0661 23.4717 45.0981 23.2957 45.0981 23.1517V18.6397H45.1301ZM54.5397 12.5117C54.3317 12.5117 54.3157 12.6077 54.2677 12.7517L51.0837 23.1517C51.0517 23.2477 50.9877 23.4717 51.3237 23.4717H53.0357C53.2437 23.4717 53.2597 23.3917 53.3237 23.1357L53.9797 20.5437H56.7317L57.4357 23.1357C57.5317 23.4557 57.5797 23.4717 57.7717 23.4717H59.5477C59.6277 23.4717 59.8037 23.4557 59.8037 23.2797C59.8037 23.1997 59.7717 23.1517 59.7557 23.0877L56.6197 12.7677C56.5717 12.6077 56.5397 12.5117 56.3797 12.5117H54.5397ZM56.3317 19.1037H54.2197L54.9237 16.3517C55.2117 15.2477 55.2597 14.6557 55.2757 14.2237H55.3237C55.4517 15.3277 55.5637 15.8717 55.6757 16.3517L56.3317 19.1037ZM63.9799 22.2237C63.9799 21.3917 63.2759 20.7037 62.4599 20.7037C61.6439 20.7037 60.9399 21.3917 60.9399 22.2237C60.9399 23.0557 61.6439 23.7437 62.4599 23.7437C63.2759 23.7437 63.9799 23.0557 63.9799 22.2237ZM68.6022 12.5117C68.3942 12.5117 68.3782 12.6077 68.3302 12.7517L65.1462 23.1517C65.1142 23.2477 65.0502 23.4717 65.3862 23.4717H67.0982C67.3062 23.4717 67.3222 23.3917 67.3862 23.1357L68.0422 20.5437H70.7942L71.4982 23.1357C71.5942 23.4557 71.6422 23.4717 71.8342 23.4717H73.6102C73.6902 23.4717 73.8662 23.4557 73.8662 23.2797C73.8662 23.1997 73.8342 23.1517 73.8182 23.0877L70.6822 12.7677C70.6342 12.6077 70.6022 12.5117 70.4422 12.5117H68.6022ZM70.3942 19.1037H68.2822L68.9862 16.3517C69.2742 15.2477 69.3222 14.6557 69.3382 14.2237H69.3862C69.5142 15.3277 69.6262 15.8717 69.7382 16.3517L70.3942 19.1037ZM77.7544 21.5517V12.8317C77.7544 12.6877 77.7224 12.5117 77.4344 12.5117H75.8984C75.7544 12.5117 75.5784 12.5437 75.5784 12.8317V23.1517C75.5784 23.2957 75.6104 23.4717 75.8984 23.4717H81.2104C81.4664 23.4717 81.4984 23.4077 81.5624 23.1837L81.8664 21.9677C81.8824 21.9197 81.8984 21.8717 81.8984 21.7597C81.8984 21.7437 81.8984 21.7437 81.8984 21.7277C81.8824 21.5677 81.7224 21.5517 81.6424 21.5517H77.7544ZM85.6606 19.0877H86.5086C88.7806 19.0877 90.1726 17.6797 90.1726 15.5677C90.1726 14.0157 89.4846 13.2957 88.8766 12.9597C88.1406 12.5437 87.1486 12.5117 86.4286 12.5117H83.8046C83.6606 12.5117 83.4846 12.5437 83.4846 12.8317V23.1517C83.4846 23.2957 83.5166 23.4717 83.8046 23.4717H85.3406C85.6286 23.4717 85.6606 23.2957 85.6606 23.1517V19.0877ZM85.6606 14.1917H86.3646C86.9726 14.1917 87.9966 14.2077 87.9966 15.6797C87.9966 17.2317 87.0846 17.3597 86.1566 17.3597H85.6606V14.1917ZM94.6919 18.6237H97.3799C97.5239 18.6237 97.6999 18.5917 97.6999 18.3037V17.2157C97.6999 17.0717 97.6679 16.8957 97.3799 16.8957H94.6919V14.2397H97.8439C98.0839 14.2397 98.1319 14.0797 98.1479 13.9997L98.4679 12.7997C98.4839 12.7357 98.4999 12.6557 98.4519 12.5917C98.4039 12.5277 98.3239 12.5117 98.2599 12.5117H92.8359C92.6919 12.5117 92.5159 12.5437 92.5159 12.8317V23.1517C92.5159 23.2957 92.5479 23.4717 92.8359 23.4717H98.0199C98.1639 23.4717 98.3399 23.4397 98.3399 23.1517V22.0637C98.3399 21.7757 98.1639 21.7437 98.0199 21.7437H94.6919V18.6237ZM102.309 17.3757C102.309 16.9277 102.293 16.0317 102.261 15.6157H102.293C102.565 16.6077 102.917 17.2477 103.205 17.7917L106.133 23.2477C106.181 23.3437 106.261 23.4717 106.437 23.4717H107.653C107.717 23.4717 107.893 23.4717 107.893 23.2317V12.7517C107.893 12.5117 107.717 12.5117 107.653 12.5117H106.293C106.229 12.5117 106.053 12.5117 106.053 12.7517V17.9197C106.053 18.4637 106.085 19.3917 106.101 19.9997H106.069C106.005 19.8077 105.653 18.6717 105.125 17.6797L102.485 12.7197C102.357 12.4797 102.309 12.5117 102.197 12.5117H100.709C100.469 12.5117 100.469 12.6877 100.469 12.7517V23.2317C100.469 23.4717 100.645 23.4717 100.709 23.4717H102.069C102.309 23.4717 102.309 23.2957 102.309 23.2317V17.3757ZM115.631 19.4717V21.7597C115.183 21.9677 114.815 22.0157 114.527 22.0157C113.999 22.0157 113.535 21.8557 113.231 21.5837C112.431 20.8637 112.351 18.9917 112.351 18.1917C112.351 17.3437 112.463 16.0477 112.687 15.3757C112.991 14.4957 113.535 13.9677 114.511 13.9677C115.007 13.9677 115.471 14.1117 115.951 14.3677C116.367 14.5917 116.479 14.6717 116.575 14.6717C116.703 14.6717 116.735 14.5757 116.783 14.4957L117.311 13.4397C117.375 13.3117 117.439 13.1997 117.023 12.9437C116.751 12.7837 115.823 12.2397 114.367 12.2397C113.023 12.2397 112.079 12.7037 111.407 13.4237C110.639 14.2557 110.079 15.6637 110.079 18.2237C110.079 19.8717 110.367 21.2797 111.167 22.3357C111.887 23.2797 112.895 23.7437 114.383 23.7437C115.711 23.7437 116.591 23.3597 117.039 23.1197C117.455 22.8957 117.567 22.7837 117.567 22.5597V18.0637C117.567 17.7757 117.391 17.7437 117.247 17.7437H114.415C114.271 17.7437 114.095 17.7757 114.095 18.0637V19.1517C114.095 19.4397 114.271 19.4717 114.415 19.4717H115.631ZM127.375 17.9997C127.375 16.8797 127.295 12.2397 123.391 12.2397C119.487 12.2397 119.407 16.8317 119.407 17.9997C119.407 19.1517 119.487 23.7437 123.391 23.7437C127.295 23.7437 127.375 19.1517 127.375 17.9997ZM123.391 22.0157C121.775 22.0157 121.679 19.3117 121.679 17.9997C121.679 16.4797 121.855 13.9677 123.391 13.9677C124.927 13.9677 125.103 16.4637 125.103 17.9997C125.103 19.3117 125.007 22.0157 123.391 22.0157ZM131.739 21.5517V12.8317C131.739 12.6877 131.707 12.5117 131.419 12.5117H129.883C129.739 12.5117 129.563 12.5437 129.563 12.8317V23.1517C129.563 23.2957 129.595 23.4717 129.883 23.4717H135.195C135.451 23.4717 135.483 23.4077 135.547 23.1837L135.851 21.9677C135.867 21.9197 135.883 21.8717 135.883 21.7597C135.883 21.7437 135.883 21.7437 135.883 21.7277C135.867 21.5677 135.707 21.5517 135.627 21.5517H131.739ZM137.789 12.5117C137.485 12.5117 137.469 12.7037 137.469 12.8477V23.1197C137.469 23.1997 137.469 23.4717 137.789 23.4717H140.909C141.725 23.4717 142.989 23.3437 143.885 22.2717C144.653 21.3437 144.957 19.9037 144.957 18.0157C144.957 16.3677 144.733 14.7037 143.885 13.6957C142.973 12.6077 141.725 12.5117 140.909 12.5117H137.789ZM139.645 14.2397H140.781C141.293 14.2397 142.013 14.4797 142.349 15.4717C142.589 16.1757 142.685 17.2317 142.685 17.9837C142.685 18.7197 142.589 19.7917 142.349 20.5117C142.013 21.5037 141.293 21.7437 140.781 21.7437H139.645V14.2397ZM149.62 22.2237C149.62 21.3917 148.916 20.7037 148.1 20.7037C147.284 20.7037 146.58 21.3917 146.58 22.2237C146.58 23.0557 147.284 23.7437 148.1 23.7437C148.916 23.7437 149.62 23.0557 149.62 22.2237ZM155.123 20.7837C155.171 20.9277 155.155 21.0557 155.411 21.0557H156.547C156.771 21.0557 156.771 20.9277 156.819 20.7837L157.795 17.6637C158.035 16.8957 158.179 16.1277 158.355 15.1517H158.403C158.403 15.5837 158.403 15.9997 158.403 16.4317C158.403 16.5597 158.403 16.6717 158.403 16.7997C158.403 17.2477 158.403 17.3597 158.419 17.7117L158.547 23.1357C158.547 23.3597 158.595 23.4717 158.787 23.4717H160.387C160.515 23.4717 160.643 23.4237 160.627 23.1357L160.179 13.0237C160.163 12.5437 160.067 12.5117 159.843 12.5117H158.211C158.003 12.5117 157.971 12.6237 157.923 12.7677L156.563 16.7997C156.323 17.5197 156.147 17.9677 156.051 18.7197H156.019C155.971 18.3837 155.715 17.3757 155.539 16.7997L154.243 12.7677C154.163 12.5117 154.115 12.5117 153.971 12.5117H152.275C152.099 12.5117 152.035 12.5757 152.019 12.8477L151.571 23.1357C151.555 23.4077 151.667 23.4717 151.827 23.4717H153.155C153.379 23.4717 153.411 23.3437 153.411 23.1357L153.555 18.4157C153.571 17.9357 153.571 17.3437 153.587 15.1517H153.635C153.843 16.3997 154.115 17.3757 154.195 17.6637L155.123 20.7837ZM165.317 18.6237H168.005C168.149 18.6237 168.325 18.5917 168.325 18.3037V17.2157C168.325 17.0717 168.293 16.8957 168.005 16.8957H165.317V14.2397H168.469C168.709 14.2397 168.757 14.0797 168.773 13.9997L169.093 12.7997C169.109 12.7357 169.125 12.6557 169.077 12.5917C169.029 12.5277 168.949 12.5117 168.885 12.5117H163.461C163.317 12.5117 163.141 12.5437 163.141 12.8317V23.1517C163.141 23.2957 163.173 23.4717 163.461 23.4717H168.645C168.789 23.4717 168.965 23.4397 168.965 23.1517V22.0637C168.965 21.7757 168.789 21.7437 168.645 21.7437H165.317V18.6237Z" fill="white"/>
<defs>
<filter id="filter0_f_1119:1891" x="8" y="0.65625" width="187" height="36.2939" filterUnits="userSpaceOnUse" color-interpolation-filters="sRGB">
<feFlood flood-opacity="0" result="BackgroundImageFix"/>
<feBlend mode="normal" in="SourceGraphic" in2="BackgroundImageFix" result="shape"/>
<feGaussianBlur stdDeviation="1" result="effect1_foregroundBlur_1119:1891"/>
</filter>
<radialGradient id="paint0_radial_1119:1891" cx="0" cy="0" r="1" gradientUnits="userSpaceOnUse" gradientTransform="translate(101.181 16.8535) scale(91.8188 20.5508)">
<stop stop-color="#F70000"/>
<stop offset="0.520436" stop-color="#E50000"/>
<stop offset="1" stop-color="#A70000"/>
</radialGradient>
</defs>
</svg>
